<svg width="20" height="21" viewBox="0 0 20 21" fill="none" xmlns="http://www.w3.org/2000/svg">
<g id="account_circle">
<path id="Vector" d="M5.0189 14.9099C5.72724 14.3843 6.49887 13.9692 7.3338 13.6647C8.16873 13.3603 9.05735 13.208 9.99965 13.208C10.942 13.208 11.8306 13.3603 12.6655 13.6647C13.5004 13.9692 14.2721 14.3843 14.9804 14.9099C15.4986 14.3405 15.9091 13.6813 16.212 12.9324C16.5149 12.1834 16.6663 11.3725 16.6663 10.4997C16.6663 8.65243 16.017 7.07952 14.7184 5.7809C13.4198 4.48229 11.8469 3.83299 9.99965 3.83299C8.15243 3.83299 6.57951 4.48229 5.2809 5.7809C3.98229 7.07952 3.33299 8.65243 3.33299 10.4997C3.33299 11.3725 3.48443 12.1834 3.78732 12.9324C4.09021 13.6813 4.50074 14.3405 5.0189 14.9099ZM9.9999 11.1246C9.23906 11.1246 8.59742 10.8635 8.07499 10.3412C7.55256 9.81896 7.29134 9.17741 7.29134 8.41657C7.29134 7.65573 7.55247 7.01409 8.07474 6.49166C8.59701 5.96922 9.23857 5.70801 9.9994 5.70801C10.7603 5.70801 11.4019 5.96914 11.9243 6.4914C12.4468 7.01368 12.708 7.65524 12.708 8.41607C12.708 9.17692 12.4468 9.81856 11.9246 10.341C11.4023 10.8634 10.7607 11.1246 9.9999 11.1246ZM9.99965 18.4163C8.90029 18.4163 7.86905 18.2096 6.90592 17.7961C5.94279 17.3826 5.10491 16.8196 4.3923 16.107C3.6797 15.3944 3.11667 14.5565 2.70322 13.5934C2.28974 12.6303 2.08301 11.599 2.08301 10.4997C2.08301 9.40029 2.28974 8.36905 2.70322 7.40592C3.11667 6.44279 3.6797 5.60491 4.3923 4.8923C5.10491 4.1797 5.94279 3.61668 6.90592 3.20322C7.86905 2.78974 8.90029 2.58301 9.99965 2.58301C11.099 2.58301 12.1303 2.78974 13.0934 3.20322C14.0565 3.61668 14.8944 4.1797 15.607 4.8923C16.3196 5.60491 16.8826 6.44279 17.2961 7.40592C17.7096 8.36905 17.9163 9.40029 17.9163 10.4997C17.9163 11.599 17.7096 12.6303 17.2961 13.5934C16.8826 14.5565 16.3196 15.3944 15.607 16.107C14.8944 16.8196 14.0565 17.3826 13.0934 17.7961C12.1303 18.2096 11.099 18.4163 9.99965 18.4163ZM9.99965 17.1663C10.7518 17.1663 11.477 17.0453 12.1751 16.8033C12.8733 16.5614 13.4933 16.2229 14.0349 15.7881C13.4933 15.3693 12.8813 15.0429 12.1992 14.8089C11.517 14.575 10.7838 14.458 9.99965 14.458C9.21546 14.458 8.48095 14.5736 7.79611 14.8049C7.11128 15.0362 6.5007 15.364 5.96438 15.7881C6.50605 16.2229 7.12598 16.5614 7.82417 16.8033C8.52236 17.0453 9.24751 17.1663 9.99965 17.1663ZM9.99965 9.87468C10.4142 9.87468 10.7609 9.73525 11.0397 9.45641C11.3186 9.17754 11.458 8.83085 11.458 8.41632C11.458 8.00179 11.3186 7.6551 11.0397 7.37624C10.7609 7.09739 10.4142 6.95797 9.99965 6.95797C9.58513 6.95797 9.23843 7.09739 8.95957 7.37624C8.68072 7.6551 8.5413 8.00179 8.5413 8.41632C8.5413 8.83085 8.68072 9.17754 8.95957 9.45641C9.23843 9.73525 9.58513 9.87468 9.99965 9.87468Z" fill="white"/>
</g>
</svg>
