<svg width="33" height="32" viewBox="0 0 33 32" fill="none" xmlns="http://www.w3.org/2000/svg">
<path d="M15.5 7.66644H12.5C12.2166 7.66644 11.9791 7.57057 11.7875 7.37884C11.5958 7.18708 11.5 6.94948 11.5 6.66604C11.5 6.38257 11.5958 6.14512 11.7875 5.95367C11.9791 5.76223 12.2166 5.6665 12.5 5.6665H15.5V2.66647C15.5 2.38314 15.5959 2.14564 15.7876 1.95397C15.9794 1.76233 16.217 1.6665 16.5004 1.6665C16.7839 1.6665 17.0213 1.76233 17.2128 1.95397C17.4042 2.14564 17.4999 2.38314 17.4999 2.66647V5.6665H20.5C20.7833 5.6665 21.0208 5.76237 21.2125 5.95411C21.4041 6.14586 21.4999 6.38346 21.4999 6.6669C21.4999 6.95037 21.4041 7.18783 21.2125 7.37927C21.0208 7.57072 20.7833 7.66644 20.5 7.66644H17.4999V10.6665C17.4999 10.9498 17.4041 11.1873 17.2123 11.379C17.0206 11.5706 16.783 11.6664 16.4995 11.6664C16.2161 11.6664 15.9786 11.5706 15.7872 11.379C15.5957 11.1873 15.5 10.9498 15.5 10.6665V7.66644ZM10.0384 28.7433C9.39059 28.7433 8.83974 28.5164 8.3859 28.0626C7.93206 27.6088 7.70513 27.0579 7.70513 26.41C7.70513 25.7622 7.93206 25.2113 8.3859 24.7575C8.83974 24.3037 9.39059 24.0767 10.0384 24.0767C10.6863 24.0767 11.2372 24.3037 11.691 24.7575C12.1448 25.2113 12.3718 25.7622 12.3718 26.41C12.3718 27.0579 12.1448 27.6088 11.691 28.0626C11.2372 28.5164 10.6863 28.7433 10.0384 28.7433ZM22.9615 28.7433C22.3136 28.7433 21.7628 28.5164 21.3089 28.0626C20.8551 27.6088 20.6282 27.0579 20.6282 26.41C20.6282 25.7622 20.8551 25.2113 21.3089 24.7575C21.7628 24.3037 22.3136 24.0767 22.9615 24.0767C23.6093 24.0767 24.1602 24.3037 24.614 24.7575C25.0679 25.2113 25.2948 25.7622 25.2948 26.41C25.2948 27.0579 25.0679 27.6088 24.614 28.0626C24.1602 28.5164 23.6093 28.7433 22.9615 28.7433ZM5.03847 4.9998H3.5C3.21667 4.9998 2.97917 4.90394 2.7875 4.71221C2.59583 4.52045 2.5 4.28285 2.5 3.9994C2.5 3.71594 2.59583 3.47848 2.7875 3.28704C2.97917 3.09559 3.21667 2.99987 3.5 2.99987H5.55713C5.78569 2.99987 5.99911 3.05985 6.1974 3.17981C6.39569 3.29976 6.54441 3.46969 6.64357 3.6896L11.8795 14.7434H20.9692C21.0461 14.7434 21.1145 14.7242 21.1743 14.6857C21.2342 14.6473 21.2854 14.5939 21.3282 14.5255L25.982 6.16647C26.0675 6.00409 26.1851 5.88017 26.3348 5.7947C26.4845 5.70924 26.6508 5.6665 26.8338 5.6665C27.2163 5.6665 27.5034 5.82975 27.6948 6.15624C27.8862 6.48273 27.8897 6.81263 27.705 7.14594L23.0794 15.5228C22.8606 15.9075 22.5711 16.207 22.2109 16.4216C21.8508 16.6361 21.4565 16.7433 21.0282 16.7433H11.3L9.75637 19.5639C9.68799 19.6665 9.68586 19.7776 9.74997 19.8972C9.81408 20.0169 9.91023 20.0767 10.0384 20.0767H24.2948C24.5781 20.0767 24.8156 20.1726 25.0073 20.3644C25.199 20.5561 25.2948 20.7937 25.2948 21.0772C25.2948 21.3606 25.199 21.5981 25.0073 21.7895C24.8156 21.981 24.5781 22.0767 24.2948 22.0767H10.0384C9.14957 22.0767 8.47821 21.6968 8.02437 20.9369C7.57052 20.1771 7.55812 19.4083 7.98717 18.6306L9.88977 15.21L5.03847 4.9998Z" fill="white"/>
</svg>
