<svg width="24" height="24" viewBox="0 0 24 24" fill="none" xmlns="http://www.w3.org/2000/svg">
<mask id="mask0_59_297" style="mask-type:alpha" maskUnits="userSpaceOnUse" x="0" y="0" width="24" height="24">
<rect width="24" height="24" fill="#D9D9D9"/>
</mask>
<g mask="url(#mask0_59_297)">
<path d="M11.25 11.1365V14.9423C11.25 15.1548 11.3219 15.3329 11.4657 15.4767C11.6095 15.6204 11.7877 15.6923 12.0003 15.6923C12.2129 15.6923 12.3926 15.6195 12.5394 15.4739C12.6862 15.3283 12.7596 15.1479 12.7596 14.9327V11.1365L14.0923 12.4692C14.2308 12.6077 14.4048 12.6753 14.6144 12.6721C14.824 12.6689 14.9981 12.598 15.1365 12.4596C15.275 12.3211 15.3442 12.1465 15.3442 11.9359C15.3442 11.7252 15.275 11.5517 15.1365 11.4154L12.6423 8.93075C12.4615 8.74999 12.2506 8.6596 12.0096 8.6596C11.7686 8.6596 11.5577 8.74999 11.3769 8.93075L8.88268 11.425C8.74423 11.5634 8.675 11.7359 8.675 11.9423C8.675 12.1487 8.74423 12.3211 8.88268 12.4596C9.02114 12.598 9.19571 12.6673 9.40638 12.6673C9.61706 12.6673 9.79056 12.598 9.92688 12.4596L11.25 11.1365ZM12.0016 21.5C10.6877 21.5 9.45268 21.2506 8.29655 20.752C7.1404 20.2533 6.13472 19.5765 5.2795 18.7217C4.42427 17.8669 3.74721 16.8616 3.24833 15.706C2.74944 14.5504 2.5 13.3156 2.5 12.0017C2.5 10.6877 2.74933 9.45268 3.248 8.29655C3.74667 7.1404 4.42342 6.13472 5.27825 5.2795C6.1331 4.42427 7.13834 3.74721 8.29398 3.24833C9.44959 2.74944 10.6844 2.5 11.9983 2.5C13.3122 2.5 14.5473 2.74933 15.7034 3.248C16.8596 3.74667 17.8652 4.42342 18.7205 5.27825C19.5757 6.1331 20.2527 7.13834 20.7516 8.29398C21.2505 9.44959 21.5 10.6844 21.5 11.9983C21.5 13.3122 21.2506 14.5473 20.752 15.7034C20.2533 16.8596 19.5765 17.8652 18.7217 18.7205C17.8669 19.5757 16.8616 20.2527 15.706 20.7516C14.5504 21.2505 13.3156 21.5 12.0016 21.5ZM12 20C14.2333 20 16.125 19.225 17.675 17.675C19.225 16.125 20 14.2333 20 12C20 9.76664 19.225 7.87498 17.675 6.32498C16.125 4.77498 14.2333 3.99998 12 3.99998C9.76664 3.99998 7.87498 4.77498 6.32498 6.32498C4.77498 7.87498 3.99998 9.76664 3.99998 12C3.99998 14.2333 4.77498 16.125 6.32498 17.675C7.87498 19.225 9.76664 20 12 20Z" fill="#1C1B1F"/>
</g>
</svg>
