<svg width="24" height="24" viewBox="0 0 24 24" fill="none" xmlns="http://www.w3.org/2000/svg">
<mask id="mask0_12_106" style="mask-type:alpha" maskUnits="userSpaceOnUse" x="0" y="0" width="24" height="24">
<rect width="24" height="24" fill="#D9D9D9"/>
</mask>
<g mask="url(#mask0_12_106)">
<path d="M11.1942 12.75H15C15.2125 12.75 15.3906 12.6781 15.5344 12.5343C15.6781 12.3904 15.75 12.2122 15.75 11.9997C15.75 11.7871 15.6781 11.609 15.5344 11.4654C15.3906 11.3218 15.2125 11.25 15 11.25H11.1942L12.5269 9.91728C12.6653 9.78096 12.7346 9.60746 12.7346 9.39678C12.7346 9.18609 12.6653 9.01153 12.5269 8.87308C12.3884 8.73461 12.2139 8.66538 12.0032 8.66538C11.7925 8.66538 11.619 8.73461 11.4827 8.87308L8.98845 11.3673C8.80768 11.5481 8.7173 11.759 8.7173 12C8.7173 12.241 8.80768 12.4519 8.98845 12.6327L11.4827 15.1269C11.6211 15.2653 11.7952 15.333 12.0048 15.3298C12.2144 15.3266 12.3884 15.2557 12.5269 15.1173C12.6653 14.9788 12.7346 14.8042 12.7346 14.5936C12.7346 14.3829 12.6653 14.2094 12.5269 14.0731L11.1942 12.75ZM12.0016 21.5C10.6877 21.5 9.45268 21.2506 8.29655 20.752C7.1404 20.2533 6.13472 19.5765 5.2795 18.7217C4.42427 17.8669 3.74721 16.8616 3.24833 15.706C2.74944 14.5504 2.5 13.3156 2.5 12.0017C2.5 10.6877 2.74933 9.45268 3.248 8.29655C3.74667 7.1404 4.42342 6.13472 5.27825 5.2795C6.1331 4.42427 7.13834 3.74721 8.29398 3.24833C9.44959 2.74944 10.6844 2.5 11.9983 2.5C13.3122 2.5 14.5473 2.74933 15.7034 3.248C16.8596 3.74667 17.8652 4.42342 18.7205 5.27825C19.5757 6.1331 20.2527 7.13834 20.7516 8.29398C21.2505 9.44959 21.5 10.6844 21.5 11.9983C21.5 13.3122 21.2506 14.5473 20.752 15.7034C20.2533 16.8596 19.5765 17.8652 18.7217 18.7205C17.8669 19.5757 16.8616 20.2527 15.706 20.7516C14.5504 21.2505 13.3156 21.5 12.0016 21.5ZM12 20C14.2333 20 16.125 19.225 17.675 17.675C19.225 16.125 20 14.2333 20 12C20 9.76664 19.225 7.87498 17.675 6.32498C16.125 4.77498 14.2333 3.99998 12 3.99998C9.76664 3.99998 7.87498 4.77498 6.32498 6.32498C4.77498 7.87498 3.99998 9.76664 3.99998 12C3.99998 14.2333 4.77498 16.125 6.32498 17.675C7.87498 19.225 9.76664 20 12 20Z" fill="#1C1B1F"/>
</g>
</svg>
