<svg width="24" height="24" viewBox="0 0 24 24" fill="none" xmlns="http://www.w3.org/2000/svg">
<mask id="mask0_332_636" style="mask-type:alpha" maskUnits="userSpaceOnUse" x="0" y="0" width="24" height="24">
<rect width="24" height="24" fill="#D9D9D9"/>
</mask>
<g mask="url(#mask0_332_636)">
<path d="M11.2501 7.37305L6.08083 12.5423C5.93211 12.691 5.75808 12.7644 5.55873 12.7625C5.35936 12.7606 5.18212 12.682 5.027 12.5269C4.88214 12.3718 4.80714 12.1962 4.802 12C4.79687 11.8039 4.87187 11.6282 5.027 11.4731L11.3674 5.13273C11.461 5.03915 11.5597 4.97312 11.6635 4.93465C11.7674 4.89619 11.8795 4.87695 12.0001 4.87695C12.1206 4.87695 12.2327 4.89619 12.3366 4.93465C12.4404 4.97312 12.5391 5.03915 12.6327 5.13273L18.9731 11.4731C19.1116 11.6116 19.1824 11.783 19.1856 11.9875C19.1888 12.192 19.118 12.3718 18.9731 12.5269C18.818 12.682 18.6398 12.7596 18.4385 12.7596C18.2372 12.7596 18.059 12.682 17.9039 12.5269L12.75 7.37305V18.75C12.75 18.9628 12.6782 19.141 12.5347 19.2846C12.3911 19.4282 12.2129 19.5 12.0001 19.5C11.7872 19.5 11.609 19.4282 11.4655 19.2846C11.3219 19.141 11.2501 18.9628 11.2501 18.75V7.37305Z" fill="#1C1B1F"/>
</g>
</svg>
