<svg width="24" height="24" viewBox="0 0 24 24" fill="none" xmlns="http://www.w3.org/2000/svg">
<mask id="mask0_12_107" style="mask-type:alpha" maskUnits="userSpaceOnUse" x="0" y="0" width="24" height="24">
<rect width="24" height="24" fill="#D9D9D9"/>
</mask>
<g mask="url(#mask0_12_107)">
<path d="M12.8058 12.75L11.4731 14.0827C11.3346 14.2211 11.267 14.3936 11.2702 14.6C11.2734 14.8064 11.3442 14.9788 11.4827 15.1173C11.6211 15.2557 11.7957 15.325 12.0064 15.325C12.2171 15.325 12.3906 15.2557 12.5269 15.1173L15.0115 12.6327C15.1923 12.4519 15.2827 12.241 15.2827 12C15.2827 11.759 15.1923 11.5481 15.0115 11.3673L12.5173 8.87308C12.3788 8.73461 12.2064 8.66538 12 8.66538C11.7936 8.66538 11.6211 8.73461 11.4827 8.87308C11.3442 9.01153 11.275 9.18609 11.275 9.39678C11.275 9.60746 11.3442 9.78096 11.4827 9.91728L12.8058 11.25H8.99998C8.78748 11.25 8.60936 11.3219 8.46563 11.4657C8.32188 11.6095 8.25 11.7877 8.25 12.0003C8.25 12.2129 8.32188 12.391 8.46563 12.5346C8.60936 12.6782 8.78748 12.75 8.99998 12.75H12.8058ZM12.0016 21.5C10.6877 21.5 9.45268 21.2506 8.29655 20.752C7.1404 20.2533 6.13472 19.5765 5.2795 18.7217C4.42427 17.8669 3.74721 16.8616 3.24833 15.706C2.74944 14.5504 2.5 13.3156 2.5 12.0017C2.5 10.6877 2.74933 9.45268 3.248 8.29655C3.74667 7.1404 4.42342 6.13472 5.27825 5.2795C6.1331 4.42427 7.13834 3.74721 8.29398 3.24833C9.44959 2.74944 10.6844 2.5 11.9983 2.5C13.3122 2.5 14.5473 2.74933 15.7034 3.248C16.8596 3.74667 17.8652 4.42342 18.7205 5.27825C19.5757 6.1331 20.2527 7.13834 20.7516 8.29398C21.2505 9.44959 21.5 10.6844 21.5 11.9983C21.5 13.3122 21.2506 14.5473 20.752 15.7034C20.2533 16.8596 19.5765 17.8652 18.7217 18.7205C17.8669 19.5757 16.8616 20.2527 15.706 20.7516C14.5504 21.2505 13.3156 21.5 12.0016 21.5ZM12 20C14.2333 20 16.125 19.225 17.675 17.675C19.225 16.125 20 14.2333 20 12C20 9.76664 19.225 7.87498 17.675 6.32498C16.125 4.77498 14.2333 3.99998 12 3.99998C9.76664 3.99998 7.87498 4.77498 6.32498 6.32498C4.77498 7.87498 3.99998 9.76664 3.99998 12C3.99998 14.2333 4.77498 16.125 6.32498 17.675C7.87498 19.225 9.76664 20 12 20Z" fill="#1C1B1F"/>
</g>
</svg>
