<svg width="24" height="24" viewBox="0 0 24 24" fill="none" xmlns="http://www.w3.org/2000/svg">
<mask id="mask0_281_336" style="mask-type:alpha" maskUnits="userSpaceOnUse" x="0" y="0" width="24" height="24">
<rect width="24" height="24" fill="#D9D9D9"/>
</mask>
<g mask="url(#mask0_281_336)">
<path d="M11.25 12.8539L9.91727 11.5212C9.77881 11.3827 9.60638 11.3135 9.39998 11.3135C9.19358 11.3135 9.02114 11.3827 8.88268 11.5212C8.74423 11.6596 8.675 11.8342 8.675 12.0449C8.675 12.2555 8.74423 12.429 8.88268 12.5654L11.3769 15.0596C11.5577 15.2403 11.7686 15.3307 12.0096 15.3307C12.2506 15.3307 12.4615 15.2403 12.6423 15.0596L15.1365 12.5654C15.275 12.429 15.3442 12.2555 15.3442 12.0449C15.3442 11.8342 15.275 11.6596 15.1365 11.5212C14.9981 11.3827 14.8235 11.3135 14.6128 11.3135C14.4021 11.3135 14.2286 11.3827 14.0923 11.5212L12.7596 12.8539V9.04805C12.7596 8.83557 12.6877 8.65745 12.5439 8.5137C12.4001 8.36995 12.2219 8.29808 12.0093 8.29808C11.7967 8.29808 11.617 8.36995 11.4702 8.5137C11.3234 8.65745 11.25 8.83557 11.25 9.04805V12.8539ZM12.0016 21.5C10.6877 21.5 9.45268 21.2506 8.29655 20.752C7.1404 20.2533 6.13472 19.5765 5.2795 18.7217C4.42427 17.8669 3.74721 16.8616 3.24833 15.706C2.74944 14.5504 2.5 13.3156 2.5 12.0017C2.5 10.6877 2.74933 9.45268 3.248 8.29655C3.74667 7.1404 4.42342 6.13472 5.27825 5.2795C6.1331 4.42427 7.13834 3.74721 8.29398 3.24833C9.44959 2.74944 10.6844 2.5 11.9983 2.5C13.3122 2.5 14.5473 2.74933 15.7034 3.248C16.8596 3.74667 17.8652 4.42342 18.7205 5.27825C19.5757 6.1331 20.2527 7.13834 20.7516 8.29398C21.2505 9.44959 21.5 10.6844 21.5 11.9983C21.5 13.3122 21.2506 14.5473 20.752 15.7034C20.2533 16.8596 19.5765 17.8652 18.7217 18.7205C17.8669 19.5757 16.8616 20.2527 15.706 20.7516C14.5504 21.2505 13.3156 21.5 12.0016 21.5ZM12 20C14.2333 20 16.125 19.225 17.675 17.675C19.225 16.125 20 14.2333 20 12C20 9.76664 19.225 7.87498 17.675 6.32498C16.125 4.77498 14.2333 3.99998 12 3.99998C9.76664 3.99998 7.87498 4.77498 6.32498 6.32498C4.77498 7.87498 3.99998 9.76664 3.99998 12C3.99998 14.2333 4.77498 16.125 6.32498 17.675C7.87498 19.225 9.76664 20 12 20Z" fill="#1C1B1F"/>
</g>
</svg>
