<svg width="24" height="24" viewBox="0 0 24 24" fill="none" xmlns="http://www.w3.org/2000/svg">
<mask id="mask0_2_1226" style="mask-type:alpha" maskUnits="userSpaceOnUse" x="0" y="0" width="24" height="24">
<rect width="24" height="24" fill="#D9D9D9"/>
</mask>
<g mask="url(#mask0_2_1226)">
<path d="M11.5001 21.8846C10.0372 21.8846 8.79333 21.3721 7.76833 20.3471C6.74333 19.3221 6.23083 18.0782 6.23083 16.6154V5.80767C6.23083 4.75527 6.60556 3.85436 7.35501 3.10492C8.10444 2.35549 9.00536 1.98077 10.0578 1.98077C11.1102 1.98077 12.0111 2.35549 12.7605 3.10492C13.5099 3.85436 13.8847 4.75527 13.8847 5.80767V15.5577C13.8847 16.2254 13.6541 16.7897 13.1931 17.2508C12.732 17.7118 12.1676 17.9423 11.4998 17.9423C10.832 17.9423 10.2677 17.7118 9.80679 17.2508C9.3459 16.7897 9.11546 16.2254 9.11546 15.5577V6.40382C9.11546 6.23161 9.17172 6.08919 9.28424 5.97657C9.39675 5.86397 9.53906 5.80767 9.71116 5.80767C9.88324 5.80767 10.0257 5.86397 10.1385 5.97657C10.2513 6.08919 10.3077 6.23161 10.3077 6.40382V15.5577C10.3077 15.8955 10.422 16.1787 10.6505 16.4072C10.8791 16.6358 11.1622 16.75 11.5001 16.75C11.8379 16.75 12.1211 16.6358 12.3496 16.4072C12.5781 16.1787 12.6924 15.8955 12.6924 15.5577V5.80767C12.6924 5.06997 12.4376 4.44645 11.9281 3.9371C11.4186 3.42773 10.7949 3.17305 10.0569 3.17305C9.31902 3.17305 8.69557 3.42773 8.18658 3.9371C7.67762 4.44645 7.42314 5.06997 7.42314 5.80767V16.6154C7.42314 17.741 7.82121 18.7019 8.61736 19.4981C9.41351 20.2942 10.3744 20.6923 11.5001 20.6923C12.6257 20.6923 13.5866 20.2942 14.3828 19.4981C15.1789 18.7019 15.577 17.741 15.577 16.6154V6.40382C15.577 6.23161 15.6332 6.08919 15.7458 5.97657C15.8583 5.86397 16.0006 5.80767 16.1727 5.80767C16.3448 5.80767 16.4872 5.86397 16.6 5.97657C16.7129 6.08919 16.7693 6.23161 16.7693 6.40382V16.6154C16.7693 18.0782 16.2568 19.3221 15.2318 20.3471C14.2068 21.3721 12.9629 21.8846 11.5001 21.8846Z" fill="#292735"/>
</g>
</svg>
