<svg width="24" height="24" viewBox="0 0 24 24" fill="none" xmlns="http://www.w3.org/2000/svg">
<path d="M11.25 12.2154L9.91728 13.5327C9.78041 13.6711 9.60933 13.7404 9.40405 13.7404C9.19877 13.7404 9.02178 13.666 8.87308 13.5173C8.72819 13.3788 8.65736 13.2032 8.66058 12.9904C8.66378 12.7776 8.73461 12.6019 8.87308 12.4635L11.3673 9.96926C11.5481 9.78849 11.759 9.69811 12 9.69811C12.241 9.69811 12.4519 9.78849 12.6327 9.96926L15.1269 12.4635C15.2653 12.6019 15.3387 12.7747 15.3471 12.9817C15.3554 13.1887 15.282 13.3674 15.1269 13.518C14.9884 13.656 14.8154 13.7259 14.6077 13.7279C14.4 13.7298 14.2218 13.6615 14.0731 13.5231L12.75 12.2154V17.6923C12.75 17.7692 12.782 17.8397 12.8461 17.9039C12.9102 17.968 12.9807 18 13.0577 18H18.5C19.2 18 19.7916 17.7583 20.275 17.275C20.7583 16.7917 21 16.2 21 15.5C21 14.8 20.7583 14.2083 20.275 13.725C19.7916 13.2417 19.2 13 18.5 13H17V11C17 9.61667 16.5125 8.43751 15.5375 7.46251C14.5625 6.48751 13.3833 6.00001 12 6.00001C10.6166 6.00001 9.43748 6.48751 8.46248 7.46251C7.48748 8.43751 6.99998 9.61667 6.99998 11H6.48075C5.53332 11 4.71633 11.3417 4.02978 12.025C3.34324 12.7083 2.99998 13.5333 2.99998 14.5C2.99998 15.4667 3.34164 16.2917 4.02498 16.975C4.70831 17.6583 5.53331 18 6.49998 18H8.25C8.46248 18 8.6406 18.0719 8.78435 18.2157C8.9281 18.3595 8.99998 18.5377 8.99998 18.7503C8.99998 18.9629 8.9281 19.141 8.78435 19.2846C8.6406 19.4282 8.46248 19.5 8.25 19.5H6.49998C5.11794 19.5 3.9391 19.0206 2.96345 18.0618C1.98782 17.103 1.5 15.9311 1.5 14.5462C1.5 13.3039 1.89968 12.2112 2.69905 11.2683C3.49842 10.3253 4.48976 9.76671 5.67308 9.59236C5.99359 8.09747 6.74519 6.87503 7.92788 5.92503C9.11056 4.97503 10.4679 4.50003 12 4.50003C13.8107 4.50003 15.3467 5.13069 16.608 6.39201C17.8693 7.65331 18.5 9.18931 18.5 11V11.5H18.8077C19.8615 11.5821 20.7403 12.0058 21.4442 12.7712C22.148 13.5366 22.5 14.4462 22.5 15.5C22.5 16.6154 22.1153 17.5609 21.3461 18.3365C20.5769 19.1122 19.6346 19.5 18.5192 19.5H13.0577C12.5525 19.5 12.125 19.325 11.775 18.975C11.425 18.625 11.25 18.1974 11.25 17.6923V12.2154Z" fill="#1C1B1F"/>
</svg>
