<svg width="24" height="24" viewBox="0 0 24 24" fill="none" xmlns="http://www.w3.org/2000/svg">
<path d="M3.25 20.5C3.0375 20.5 2.85938 20.4281 2.71563 20.2843C2.57188 20.1404 2.5 19.9622 2.5 19.7497C2.5 19.5371 2.57188 19.359 2.71563 19.2154C2.85938 19.0718 3.0375 19 3.25 19H20.75C20.9625 19 21.1406 19.0719 21.2843 19.2157C21.4281 19.3595 21.5 19.5377 21.5 19.7503C21.5 19.9629 21.4281 20.141 21.2843 20.2846C21.1406 20.4282 20.9625 20.5 20.75 20.5H3.25ZM4.75113 17.6154C4.40423 17.6154 4.10898 17.4938 3.8654 17.2508C3.6218 17.0077 3.5 16.7126 3.5 16.3654V12.75C3.5 12.4028 3.62142 12.1077 3.86425 11.8646C4.10708 11.6216 4.40195 11.5 4.74885 11.5C5.09577 11.5 5.39102 11.6216 5.6346 11.8646C5.87818 12.1077 5.99998 12.4028 5.99998 12.75V16.3654C5.99998 16.7126 5.87856 17.0077 5.63573 17.2508C5.39289 17.4938 5.09803 17.6154 4.75113 17.6154ZM9.57803 17.6154C9.23113 17.6154 8.93588 17.4938 8.6923 17.2508C8.44872 17.0077 8.32693 16.7126 8.32693 16.3654V7.75003C8.32693 7.40281 8.44834 7.10768 8.69118 6.86463C8.93401 6.62157 9.22888 6.50003 9.57578 6.50003C9.92268 6.50003 10.2179 6.62157 10.4615 6.86463C10.7051 7.10768 10.8269 7.40281 10.8269 7.75003V16.3654C10.8269 16.7126 10.7055 17.0077 10.4627 17.2508C10.2198 17.4938 9.92494 17.6154 9.57803 17.6154ZM14.4146 17.6154C14.0677 17.6154 13.7724 17.4938 13.5288 17.2508C13.2852 17.0077 13.1635 16.7126 13.1635 16.3654V10.75C13.1635 10.4028 13.2849 10.1077 13.5277 9.86463C13.7705 9.62157 14.0654 9.50003 14.4123 9.50003C14.7592 9.50003 15.0544 9.62157 15.298 9.86463C15.5416 10.1077 15.6634 10.4028 15.6634 10.75V16.3654C15.6634 16.7126 15.542 17.0077 15.2992 17.2508C15.0563 17.4938 14.7615 17.6154 14.4146 17.6154ZM19.2511 17.6154C18.9042 17.6154 18.6089 17.4938 18.3654 17.2508C18.1218 17.0077 18 16.7126 18 16.3654V4.75003C18 4.40281 18.1214 4.10768 18.3642 3.86463C18.6071 3.62156 18.9019 3.50003 19.2488 3.50003C19.5957 3.50003 19.891 3.62156 20.1346 3.86463C20.3782 4.10768 20.5 4.40281 20.5 4.75003V16.3654C20.5 16.7126 20.3785 17.0077 20.1357 17.2508C19.8929 17.4938 19.598 17.6154 19.2511 17.6154Z" fill="#1C1B1F"/>
</svg>
