<svg width="24" height="25" viewBox="0 0 24 25" fill="none" xmlns="http://www.w3.org/2000/svg">
<mask id="mask0_3436_93424" style="mask-type:alpha" maskUnits="userSpaceOnUse" x="0" y="0" width="24" height="25">
<rect y="0.5" width="24" height="24" fill="#D9D9D9"/>
</mask>
<g mask="url(#mask0_3436_93424)">
<path d="M5.25 19.3846C5.0375 19.3846 4.85938 19.3127 4.71563 19.1689C4.57188 19.0251 4.5 18.8469 4.5 18.6343C4.5 18.4217 4.57188 18.2436 4.71563 18.1C4.85938 17.9564 5.0375 17.8846 5.25 17.8846H6.3077V10.4231C6.3077 9.07818 6.72276 7.88908 7.55287 6.85575C8.38301 5.82242 9.44872 5.16153 10.75 4.87308V4.25C10.75 3.90278 10.8714 3.60765 11.1143 3.3646C11.3571 3.12153 11.6519 3 11.9988 3C12.3457 3 12.641 3.12153 12.8846 3.3646C13.1282 3.60765 13.25 3.90278 13.25 4.25V4.87308C14.5512 5.16153 15.6169 5.82242 16.4471 6.85575C17.2772 7.88908 17.6922 9.07818 17.6922 10.4231V17.8846H18.75C18.9625 17.8846 19.1406 17.9565 19.2843 18.1003C19.4281 18.2441 19.5 18.4223 19.5 18.6349C19.5 18.8475 19.4281 19.0256 19.2843 19.1692C19.1406 19.3128 18.9625 19.3846 18.75 19.3846H5.25ZM11.9983 22.1923C11.5007 22.1923 11.0753 22.0153 10.7221 21.6613C10.3689 21.3073 10.1923 20.8817 10.1923 20.3846H13.8077C13.8077 20.8833 13.6305 21.3093 13.2761 21.6625C12.9218 22.0157 12.4959 22.1923 11.9983 22.1923ZM7.80765 17.8846H16.1923V10.4231C16.1923 9.26535 15.783 8.27721 14.9644 7.45863C14.1458 6.64003 13.1577 6.23073 12 6.23073C10.8423 6.23073 9.85413 6.64003 9.03555 7.45863C8.21695 8.27721 7.80765 9.26535 7.80765 10.4231V17.8846Z" fill="#292735"/>
</g>
<rect x="14" y="4.5" width="8" height="8" rx="4" fill="#FF5757"/>
<rect x="14" y="4.5" width="8" height="8" rx="4" stroke="white" stroke-width="2"/>
</svg>
