<svg width="24" height="24" viewBox="0 0 24 24" fill="none" xmlns="http://www.w3.org/2000/svg">
<g id="bookmark">
<mask id="mask0_11360_69224" style="mask-type:alpha" maskUnits="userSpaceOnUse" x="0" y="0" width="24" height="24">
<rect id="Bounding box" width="24" height="24" fill="#D9D9D9"/>
</mask>
<g mask="url(#mask0_11360_69224)">
<path id="bookmark_2" d="M12 17.4615L8.03075 19.1653C7.4282 19.423 6.85577 19.3736 6.31347 19.0172C5.77116 18.6608 5.5 18.1595 5.5 17.5134V5.3077C5.5 4.80257 5.675 4.375 6.025 4.025C6.375 3.675 6.80257 3.5 7.3077 3.5H16.6922C17.1974 3.5 17.625 3.675 17.975 4.025C18.325 4.375 18.5 4.80257 18.5 5.3077V17.5134C18.5 18.1595 18.2288 18.6608 17.6865 19.0172C17.1442 19.3736 16.5717 19.423 15.9692 19.1653L12 17.4615ZM12 15.8L16.5672 17.7673C16.6698 17.8121 16.7676 17.8025 16.8605 17.7384C16.9535 17.6743 17 17.5878 17 17.4788V5.3077C17 5.23077 16.9679 5.16024 16.9038 5.09613C16.8397 5.03203 16.7692 4.99998 16.6922 4.99998H7.3077C7.23077 4.99998 7.16024 5.03203 7.09613 5.09613C7.03202 5.16024 6.99997 5.23077 6.99997 5.3077V17.4788C6.99997 17.5878 7.04645 17.6743 7.1394 17.7384C7.23237 17.8025 7.33013 17.8121 7.4327 17.7673L12 15.8Z" fill="white"/>
</g>
</g>
</svg>
