<svg width="14" height="17" viewBox="0 0 14 17" fill="none" xmlns="http://www.w3.org/2000/svg">
<path d="M6.99997 14.4615L3.03075 16.1653C2.4282 16.423 1.85577 16.3736 1.31347 16.0172C0.771158 15.6608 0.5 15.1595 0.5 14.5134V2.3077C0.5 1.80257 0.675 1.375 1.025 1.025C1.375 0.675 1.80257 0.5 2.3077 0.5H11.6922C12.1974 0.5 12.625 0.675 12.975 1.025C13.325 1.375 13.5 1.80257 13.5 2.3077V14.5134C13.5 15.1595 13.2288 15.6608 12.6865 16.0172C12.1442 16.3736 11.5717 16.423 10.9692 16.1653L6.99997 14.4615ZM6.99997 12.8L11.5672 14.7673C11.6698 14.8121 11.7676 14.8025 11.8605 14.7384C11.9535 14.6743 12 14.5878 12 14.4788V2.3077C12 2.23077 11.9679 2.16024 11.9038 2.09613C11.8397 2.03203 11.7692 1.99998 11.6922 1.99998H2.3077C2.23077 1.99998 2.16024 2.03203 2.09613 2.09613C2.03202 2.16024 1.99997 2.23077 1.99997 2.3077V14.4788C1.99997 14.5878 2.04645 14.6743 2.1394 14.7384C2.23237 14.8025 2.33013 14.8121 2.4327 14.7673L6.99997 12.8Z" fill="white"/>
</svg>
