<svg width="24" height="24" viewBox="0 0 24 24" fill="none" xmlns="http://www.w3.org/2000/svg">
<mask id="mask0_167_349" style="mask-type:alpha" maskUnits="userSpaceOnUse" x="0" y="0" width="24" height="24">
<rect width="24" height="24" fill="#D9D9D9"/>
</mask>
<g mask="url(#mask0_167_349)">
<path d="M12 17.4615L8.03075 19.1653C7.4282 19.423 6.85577 19.3736 6.31347 19.0172C5.77116 18.6608 5.5 18.1595 5.5 17.5134V5.3077C5.5 4.80257 5.675 4.375 6.025 4.025C6.375 3.675 6.80257 3.5 7.3077 3.5H16.6922C17.1974 3.5 17.625 3.675 17.975 4.025C18.325 4.375 18.5 4.80257 18.5 5.3077V17.5134C18.5 18.1595 18.2288 18.6608 17.6865 19.0172C17.1442 19.3736 16.5717 19.423 15.9692 19.1653L12 17.4615Z" fill="#1C1B1F"/>
</g>
</svg>
