<svg width="20" height="20" viewBox="0 0 20 20" fill="none" xmlns="http://www.w3.org/2000/svg">
<path d="M14.3751 15.6251H12.5001C12.323 15.6251 12.1745 15.5652 12.0547 15.4453C11.935 15.3255 11.8751 15.177 11.8751 14.9998C11.8751 14.8227 11.935 14.6742 12.0547 14.5546C12.1745 14.4349 12.323 14.3751 12.5001 14.3751H14.3751V12.5001C14.3751 12.323 14.435 12.1746 14.5548 12.0548C14.6747 11.935 14.8232 11.8751 15.0003 11.8751C15.1775 11.8751 15.3259 11.935 15.4456 12.0548C15.5652 12.1746 15.625 12.323 15.625 12.5001V14.3751H17.5001C17.6771 14.3751 17.8256 14.435 17.9454 14.5549C18.0652 14.6747 18.125 14.8232 18.125 15.0004C18.125 15.1775 18.0652 15.3259 17.9454 15.4456C17.8256 15.5653 17.6771 15.6251 17.5001 15.6251H15.625V17.5001C15.625 17.6772 15.5651 17.8256 15.4453 17.9454C15.3254 18.0652 15.1769 18.1251 14.9998 18.1251C14.8226 18.1251 14.6742 18.0652 14.5546 17.9454C14.4349 17.8256 14.3751 17.6772 14.3751 17.5001V15.6251ZM4.42316 16.2501C4.00222 16.2501 3.64591 16.1042 3.35425 15.8126C3.06258 15.5209 2.91675 15.1646 2.91675 14.7437V5.25653C2.91675 4.83559 3.06258 4.47928 3.35425 4.18762C3.64591 3.89595 4.00222 3.75012 4.42316 3.75012H5.57702V2.6283C5.57702 2.44669 5.63856 2.29446 5.76164 2.1716C5.88471 2.04874 6.03722 1.9873 6.21917 1.9873C6.4011 1.9873 6.55323 2.04874 6.67556 2.1716C6.79788 2.29446 6.85904 2.44669 6.85904 2.6283V3.75012H11.5065V2.61228C11.5065 2.4352 11.5664 2.28676 11.6862 2.16697C11.8061 2.04719 11.9546 1.9873 12.1317 1.9873C12.3089 1.9873 12.4573 2.04719 12.5769 2.16697C12.6966 2.28676 12.7564 2.4352 12.7564 2.61228V3.75012H13.9103C14.3312 3.75012 14.6875 3.89595 14.9792 4.18762C15.2709 4.47928 15.4167 4.83559 15.4167 5.25653V9.50333C15.4167 9.68041 15.3568 9.82885 15.2369 9.94864C15.1171 10.0684 14.9686 10.1283 14.7914 10.1283C14.6143 10.1283 14.4659 10.0684 14.3462 9.94864C14.2266 9.82885 14.1667 9.68041 14.1667 9.50333V8.58987H4.16673V14.7437C4.16673 14.8078 4.19344 14.8665 4.24685 14.92C4.30028 14.9734 4.35905 15.0001 4.42316 15.0001H9.49527C9.67235 15.0001 9.82079 15.06 9.94058 15.1799C10.0604 15.2997 10.1203 15.4482 10.1203 15.6254C10.1203 15.8025 10.0604 15.9509 9.94058 16.0706C9.82079 16.1902 9.67235 16.2501 9.49527 16.2501H4.42316ZM4.16673 7.33989H14.1667V5.25653C14.1667 5.19242 14.14 5.13365 14.0866 5.08022C14.0332 5.02681 13.9744 5.0001 13.9103 5.0001H4.42316C4.35905 5.0001 4.30028 5.02681 4.24685 5.08022C4.19344 5.13365 4.16673 5.19242 4.16673 5.25653V7.33989Z" fill="white"/>
</svg>
