<svg width="24" height="24" viewBox="0 0 24 24" fill="none" xmlns="http://www.w3.org/2000/svg">
<path d="M17.25 18.75H15C14.7875 18.75 14.6094 18.6781 14.4656 18.5343C14.3219 18.3905 14.25 18.2123 14.25 17.9997C14.25 17.7871 14.3219 17.609 14.4656 17.4654C14.6094 17.3218 14.7875 17.25 15 17.25H17.25V15C17.25 14.7875 17.3219 14.6094 17.4657 14.4656C17.6095 14.3219 17.7877 14.25 18.0003 14.25C18.2129 14.25 18.391 14.3219 18.5346 14.4656C18.6782 14.6094 18.75 14.7875 18.75 15V17.25H21C21.2125 17.25 21.3906 17.3219 21.5344 17.4657C21.6781 17.6095 21.75 17.7877 21.75 18.0003C21.75 18.2129 21.6781 18.391 21.5344 18.5346C21.3906 18.6782 21.2125 18.75 21 18.75H18.75V21C18.75 21.2125 18.6781 21.3906 18.5343 21.5343C18.3904 21.6781 18.2122 21.75 17.9997 21.75C17.7871 21.75 17.609 21.6781 17.4654 21.5344C17.3218 21.3906 17.25 21.2125 17.25 21V18.75ZM5.3077 19.5C4.80257 19.5 4.375 19.325 4.025 18.975C3.675 18.625 3.5 18.1974 3.5 17.6923V6.30772C3.5 5.80259 3.675 5.37502 4.025 5.02502C4.375 4.67502 4.80257 4.50002 5.3077 4.50002H6.69233V3.15384C6.69233 2.93591 6.76618 2.75323 6.91388 2.60579C7.06156 2.45836 7.24457 2.38464 7.4629 2.38464C7.68122 2.38464 7.86378 2.45836 8.01058 2.60579C8.15736 2.75323 8.23075 2.93591 8.23075 3.15384V4.50002H13.8077V3.13462C13.8077 2.92212 13.8796 2.74399 14.0234 2.60024C14.1672 2.45651 14.3454 2.38464 14.558 2.38464C14.7706 2.38464 14.9486 2.45651 15.0922 2.60024C15.2358 2.74399 15.3076 2.92212 15.3076 3.13462V4.50002H16.6922C17.1974 4.50002 17.625 4.67502 17.975 5.02502C18.325 5.37502 18.5 5.80259 18.5 6.30772V11.4039C18.5 11.6164 18.428 11.7945 18.2842 11.9382C18.1404 12.082 17.9622 12.1538 17.7496 12.1538C17.537 12.1538 17.3589 12.082 17.2154 11.9382C17.0718 11.7945 17 11.6164 17 11.4039V10.3077H4.99997V17.6923C4.99997 17.7692 5.03202 17.8397 5.09612 17.9038C5.16024 17.9679 5.23077 18 5.3077 18H11.3942C11.6067 18 11.7849 18.0719 11.9286 18.2157C12.0724 18.3595 12.1442 18.5377 12.1442 18.7503C12.1442 18.9629 12.0724 19.141 11.9286 19.2846C11.7849 19.4282 11.6067 19.5 11.3942 19.5H5.3077ZM4.99997 8.80774H17V6.30772C17 6.23079 16.9679 6.16026 16.9038 6.09614C16.8397 6.03204 16.7692 5.99999 16.6922 5.99999H5.3077C5.23077 5.99999 5.16024 6.03204 5.09612 6.09614C5.03202 6.16026 4.99997 6.23079 4.99997 6.30772V8.80774Z" fill="#1C1B1F"/>
</svg>
