<svg width="16" height="16" viewBox="0 0 16 16" fill="none" xmlns="http://www.w3.org/2000/svg">
<path d="M3.53839 14.3334C3.20163 14.3334 2.91659 14.2167 2.68325 13.9834C2.44992 13.7501 2.33325 13.465 2.33325 13.1283V4.20523C2.33325 3.86847 2.44992 3.58343 2.68325 3.35009C2.91659 3.11676 3.20163 3.00009 3.53839 3.00009H4.46147V2.10264C4.46147 1.9565 4.5104 1.83449 4.60827 1.73663C4.70612 1.63877 4.82813 1.58984 4.97429 1.58984C5.12043 1.58984 5.24244 1.63877 5.3403 1.73663C5.43816 1.83449 5.48709 1.9565 5.48709 2.10264V3.00009H10.5384V2.08983C10.5384 1.94795 10.5862 1.82915 10.6819 1.73343C10.7777 1.6377 10.8965 1.58984 11.0383 1.58984C11.1802 1.58984 11.299 1.6377 11.3947 1.73343C11.4905 1.82915 11.5383 1.94795 11.5383 2.08983V3.00009H12.4614C12.7982 3.00009 13.0832 3.11676 13.3166 3.35009C13.5499 3.58343 13.6666 3.86847 13.6666 4.20523V13.1283C13.6666 13.465 13.5499 13.7501 13.3166 13.9834C13.0832 14.2167 12.7982 14.3334 12.4614 14.3334H3.53839ZM3.53839 13.3334H12.4614C12.5127 13.3334 12.5597 13.312 12.6025 13.2693C12.6452 13.2266 12.6666 13.1795 12.6666 13.1283V6.87189H3.33324V13.1283C3.33324 13.1795 3.3546 13.2266 3.39734 13.2693C3.44008 13.312 3.4871 13.3334 3.53839 13.3334ZM3.33324 5.87191H12.6666V4.20523C12.6666 4.15394 12.6452 4.10692 12.6025 4.06418C12.5597 4.02144 12.5127 4.00008 12.4614 4.00008H3.53839C3.4871 4.00008 3.44008 4.02144 3.39734 4.06418C3.3546 4.10692 3.33324 4.15394 3.33324 4.20523V5.87191Z" fill="white"/>
</svg>
