<svg width="24" height="24" viewBox="0 0 24 24" fill="none" xmlns="http://www.w3.org/2000/svg">
<path d="M19.4403 20.5C17.5557 20.5 15.6625 20.0618 13.7606 19.1856C11.8586 18.3093 10.1112 17.0731 8.51828 15.4769C6.92533 13.8808 5.69071 12.1333 4.81442 10.2346C3.93814 8.33592 3.5 6.44426 3.5 4.55966C3.5 4.25691 3.6 4.00462 3.8 3.80278C4 3.60095 4.25 3.50003 4.55 3.50003H7.8115C8.06407 3.50003 8.28683 3.58241 8.47977 3.74716C8.67272 3.91191 8.79548 4.11543 8.84803 4.35773L9.4211 7.30001C9.46085 7.57309 9.45252 7.80771 9.3961 8.00386C9.3397 8.20001 9.23842 8.36475 9.09225 8.49808L6.78265 10.7462C7.15445 11.4269 7.57913 12.0708 8.0567 12.6779C8.53427 13.2849 9.05125 13.8648 9.60765 14.4173C10.1564 14.966 10.7397 15.4757 11.3577 15.9462C11.9756 16.4167 12.6429 16.8545 13.3596 17.2596L15.6038 14.9962C15.7602 14.8334 15.9497 14.7193 16.1721 14.6539C16.3945 14.5885 16.6256 14.5725 16.8654 14.6058L19.6423 15.1712C19.8948 15.2378 20.1009 15.3667 20.2605 15.5577C20.4201 15.7487 20.5 15.9654 20.5 16.2077V19.45C20.5 19.75 20.399 20 20.1972 20.2C19.9954 20.4 19.7431 20.5 19.4403 20.5ZM6.07305 9.32696L7.85768 7.61926C7.88973 7.59361 7.91056 7.55835 7.92018 7.51348C7.92979 7.4686 7.92819 7.42693 7.91538 7.38848L7.48075 5.15386C7.46793 5.10257 7.4455 5.06411 7.41345 5.03848C7.3814 5.01283 7.33973 5.00001 7.28845 5.00001H5.14997C5.11152 5.00001 5.07948 5.01283 5.05383 5.03848C5.02818 5.06411 5.01535 5.09616 5.01535 5.13463C5.06663 5.81797 5.17849 6.5122 5.35092 7.21733C5.52337 7.92246 5.76408 8.62567 6.07305 9.32696ZM14.773 17.9692C15.4359 18.2782 16.1272 18.5144 16.8471 18.6779C17.567 18.8414 18.2397 18.9385 18.8654 18.9692C18.9038 18.9692 18.9359 18.9564 18.9615 18.9308C18.9872 18.9051 19 18.8731 19 18.8346V16.7308C19 16.6795 18.9872 16.6378 18.9615 16.6058C18.9359 16.5737 18.8974 16.5513 18.8461 16.5385L16.7461 16.1115C16.7077 16.0987 16.674 16.0971 16.6452 16.1067C16.6163 16.1163 16.5859 16.1372 16.5538 16.1692L14.773 17.9692Z" fill="#1C1B1F"/>
</svg>
