<svg width="16" height="20" viewBox="0 0 16 20" fill="none" xmlns="http://www.w3.org/2000/svg">
<path d="M2.3077 19.5038C1.80898 19.5038 1.38302 19.3272 1.02982 18.974C0.676608 18.6208 0.5 18.1948 0.5 17.6961V8.31156C0.5 7.81284 0.676608 7.38688 1.02982 7.03368C1.38302 6.68046 1.80898 6.50386 2.3077 6.50386H3.5V4.50386C3.5 3.25516 3.93782 2.19299 4.81345 1.31736C5.6891 0.441724 6.75127 0.00390625 7.99997 0.00390625C9.24867 0.00390625 10.3108 0.441724 11.1865 1.31736C12.0621 2.19299 12.5 3.25516 12.5 4.50386V6.50386H13.6922C14.191 6.50386 14.6169 6.68046 14.9701 7.03368C15.3233 7.38688 15.5 7.81284 15.5 8.31156V17.6961C15.5 18.1948 15.3233 18.6208 14.9701 18.974C14.6169 19.3272 14.191 19.5038 13.6922 19.5038H2.3077ZM2.3077 18.0038H13.6922C13.782 18.0038 13.8557 17.975 13.9134 17.9173C13.9711 17.8596 14 17.7859 14 17.6961V8.31156C14 8.22181 13.9711 8.14808 13.9134 8.09038C13.8557 8.03268 13.782 8.00383 13.6922 8.00383H2.3077C2.21795 8.00383 2.14423 8.03268 2.08652 8.09038C2.02882 8.14808 1.99997 8.22181 1.99997 8.31156V17.6961C1.99997 17.7859 2.02882 17.8596 2.08652 17.9173C2.14423 17.975 2.21795 18.0038 2.3077 18.0038ZM7.99997 14.7538C8.48587 14.7538 8.89901 14.5836 9.23938 14.2432C9.57976 13.9029 9.74995 13.4897 9.74995 13.0038C9.74995 12.5179 9.57976 12.1048 9.23938 11.7644C8.89901 11.424 8.48587 11.2539 7.99997 11.2539C7.51407 11.2539 7.10094 11.424 6.76058 11.7644C6.42019 12.1048 6.25 12.5179 6.25 13.0038C6.25 13.4897 6.42019 13.9029 6.76058 14.2432C7.10094 14.5836 7.51407 14.7538 7.99997 14.7538ZM4.99997 6.50386H11V4.50386C11 3.67052 10.7083 2.96219 10.125 2.37886C9.54164 1.79552 8.83331 1.50386 7.99997 1.50386C7.16664 1.50386 6.45831 1.79552 5.87497 2.37886C5.29164 2.96219 4.99997 3.67052 4.99997 4.50386V6.50386Z" fill="#15151F"/>
</svg>
