<svg width="61" height="61" viewBox="0 0 61 61" fill="none" xmlns="http://www.w3.org/2000/svg">
<path d="M30.5 5.33594C16.7151 5.33594 5.5 16.5511 5.5 30.3359C5.5 44.1208 16.7151 55.3359 30.5 55.3359C44.2849 55.3359 55.5 44.1208 55.5 30.3359C55.5 16.5511 44.2849 5.33594 30.5 5.33594ZM43.5108 21.9573L27.357 41.1881C27.1798 41.3992 26.9593 41.5697 26.7104 41.6881C26.4616 41.8065 26.1902 41.87 25.9147 41.8744H25.8822C25.6127 41.8743 25.3461 41.8175 25.1 41.7078C24.8538 41.5981 24.6334 41.4378 24.4531 41.2374L17.53 33.5451C17.3542 33.3586 17.2175 33.1388 17.1278 32.8987C17.0381 32.6586 16.9973 32.4031 17.0078 32.147C17.0183 31.8909 17.0799 31.6395 17.189 31.4075C17.298 31.1756 17.4524 30.9678 17.6429 30.7964C17.8334 30.6249 18.0562 30.4933 18.2984 30.4092C18.5405 30.3251 18.797 30.2903 19.0527 30.3067C19.3085 30.3232 19.5584 30.3906 19.7877 30.505C20.0171 30.6194 20.2212 30.7785 20.3882 30.973L25.8317 37.021L40.5661 19.4838C40.8966 19.1017 41.3642 18.865 41.8678 18.8248C42.3715 18.7847 42.8707 18.9444 43.2575 19.2693C43.6444 19.5943 43.8878 20.0584 43.9352 20.5614C43.9826 21.0644 43.8302 21.5658 43.5108 21.9573Z" fill="#01B574"/>
</svg>
