<svg width="9" height="16" viewBox="0 0 9 16" fill="none" xmlns="http://www.w3.org/2000/svg">
<path d="M6.26155 7.99966L0.830783 2.56886C0.646161 2.38426 0.551716 2.15221 0.54745 1.87272C0.543161 1.59326 0.637605 1.35695 0.830783 1.16379C1.02394 0.970612 1.25812 0.874023 1.53332 0.874023C1.80852 0.874023 2.04269 0.970612 2.23585 1.16379L8.22815 7.15609C8.35295 7.28087 8.44098 7.41249 8.49225 7.55096C8.54354 7.6894 8.56918 7.83897 8.56918 7.99966C8.56918 8.16034 8.54354 8.30991 8.49225 8.44836C8.44098 8.58682 8.35295 8.71844 8.22815 8.84322L2.23585 14.8355C2.05125 15.0201 1.8192 15.1146 1.53972 15.1189C1.26025 15.1231 1.02394 15.0287 0.830783 14.8355C0.637605 14.6424 0.541016 14.4082 0.541016 14.133C0.541016 13.8578 0.637605 13.6236 0.830783 13.4305L6.26155 7.99966Z" fill="white"/>
</svg>
