<svg width="9" height="16" viewBox="0 0 9 16" fill="none" xmlns="http://www.w3.org/2000/svg">
<path d="M2.93849 8.0002L8.36926 13.431C8.55388 13.6156 8.64832 13.8476 8.65259 14.1271C8.65688 14.4066 8.56244 14.6429 8.36926 14.8361C8.1761 15.0292 7.94192 15.1258 7.66672 15.1258C7.39152 15.1258 7.15735 15.0292 6.96419 14.8361L0.971892 8.84377C0.847092 8.71899 0.759059 8.58737 0.707792 8.4489C0.656503 8.31045 0.630859 8.16089 0.630859 8.0002C0.630859 7.83951 0.656503 7.68994 0.707792 7.5515C0.759059 7.41303 0.847092 7.28141 0.971892 7.15663L6.96419 1.16433C7.14879 0.97971 7.38084 0.885266 7.66032 0.880999C7.93979 0.87671 8.1761 0.971155 8.36926 1.16433C8.56244 1.35749 8.65902 1.59167 8.65902 1.86687C8.65902 2.14207 8.56244 2.37624 8.36926 2.5694L2.93849 8.0002Z" fill="white"/>
</svg>
