<svg width="26" height="26" viewBox="0 0 26 26" fill="none" xmlns="http://www.w3.org/2000/svg">
<path d="M14.0741 13.9996L12.2971 15.7766C12.1125 15.9612 12.0223 16.1911 12.0266 16.4663C12.0309 16.7415 12.1253 16.9714 12.3099 17.156C12.4945 17.3406 12.7273 17.4329 13.0082 17.4329C13.2891 17.4329 13.5204 17.3406 13.7022 17.156L17.015 13.8432C17.256 13.6022 17.3765 13.321 17.3765 12.9996C17.3765 12.6783 17.256 12.3971 17.015 12.1561L13.6894 8.83044C13.5048 8.64582 13.2748 8.55351 12.9996 8.55351C12.7244 8.55351 12.4945 8.64582 12.3099 8.83044C12.1253 9.01504 12.033 9.2478 12.033 9.52871C12.033 9.80962 12.1253 10.041 12.3099 10.2227L14.0741 11.9997H8.99964C8.71631 11.9997 8.47882 12.0955 8.28718 12.2873C8.09551 12.479 7.99967 12.7166 7.99967 13.0001C7.99967 13.2835 8.09551 13.521 8.28718 13.7124C8.47882 13.9039 8.71631 13.9996 8.99964 13.9996H14.0741ZM13.0019 25.6663C11.25 25.6663 9.60325 25.3338 8.06174 24.6689C6.52021 24.0041 5.1793 23.1017 4.03901 21.9619C2.8987 20.8221 1.99595 19.4818 1.33077 17.941C0.665597 16.4002 0.333008 14.7538 0.333008 13.0019C0.333008 11.25 0.665452 9.60325 1.33034 8.06174C1.99523 6.52021 2.89756 5.1793 4.03734 4.03901C5.17714 2.8987 6.51746 1.99595 8.05831 1.33078C9.59913 0.665598 11.2455 0.333008 12.9974 0.333008C14.7493 0.333008 16.396 0.665454 17.9375 1.33034C19.4791 1.99523 20.82 2.89756 21.9603 4.03734C23.1006 5.17714 24.0033 6.51746 24.6685 8.05831C25.3337 9.59913 25.6663 11.2455 25.6663 12.9974C25.6663 14.7493 25.3338 16.396 24.6689 17.9375C24.0041 19.4791 23.1017 20.82 21.9619 21.9603C20.8221 23.1006 19.4818 24.0033 17.941 24.6685C16.4002 25.3337 14.7538 25.6663 13.0019 25.6663ZM12.9996 23.6663C15.9774 23.6663 18.4996 22.633 20.5663 20.5663C22.633 18.4996 23.6663 15.9774 23.6663 12.9996C23.6663 10.0219 22.633 7.49964 20.5663 5.43298C18.4996 3.36631 15.9774 2.33298 12.9996 2.33298C10.0219 2.33298 7.49964 3.36631 5.43297 5.43298C3.36631 7.49964 2.33297 10.0219 2.33297 12.9996C2.33297 15.9774 3.36631 18.4996 5.43297 20.5663C7.49964 22.633 10.0219 23.6663 12.9996 23.6663Z" fill="white"/>
</svg>