<svg width="26" height="26" viewBox="0 0 26 26" fill="none" xmlns="http://www.w3.org/2000/svg">
<path d="M11.9252 13.9996H16.9996C17.283 13.9996 17.5205 13.9037 17.7121 13.712C17.9038 13.5203 17.9996 13.2827 17.9996 12.9992C17.9996 12.7157 17.9038 12.4783 17.7121 12.2868C17.5205 12.0954 17.283 11.9997 16.9996 11.9997H11.9252L13.7022 10.2227C13.8868 10.041 13.9791 9.80962 13.9791 9.52871C13.9791 9.2478 13.8868 9.01504 13.7022 8.83044C13.5176 8.64582 13.2848 8.55351 13.0039 8.55351C12.723 8.55351 12.4917 8.64582 12.3099 8.83044L8.98427 12.1561C8.74325 12.3971 8.62274 12.6783 8.62274 12.9996C8.62274 13.321 8.74325 13.6022 8.98427 13.8432L12.3099 17.1688C12.4945 17.3535 12.7266 17.4436 13.006 17.4394C13.2855 17.4351 13.5176 17.3406 13.7022 17.156C13.8868 16.9714 13.9791 16.7387 13.9791 16.4578C13.9791 16.1769 13.8868 15.9455 13.7022 15.7638L11.9252 13.9996ZM13.0019 25.6663C11.25 25.6663 9.60325 25.3338 8.06174 24.6689C6.52021 24.0041 5.1793 23.1017 4.03901 21.9619C2.8987 20.8221 1.99595 19.4818 1.33077 17.941C0.665597 16.4002 0.333008 14.7538 0.333008 13.0019C0.333008 11.25 0.665452 9.60325 1.33034 8.06174C1.99523 6.52021 2.89756 5.1793 4.03734 4.03901C5.17714 2.8987 6.51746 1.99595 8.05831 1.33078C9.59913 0.665598 11.2455 0.333008 12.9974 0.333008C14.7493 0.333008 16.396 0.665454 17.9375 1.33034C19.4791 1.99523 20.82 2.89756 21.9603 4.03734C23.1006 5.17714 24.0033 6.51746 24.6685 8.05831C25.3337 9.59913 25.6663 11.2455 25.6663 12.9974C25.6663 14.7493 25.3338 16.396 24.6689 17.9375C24.0041 19.4791 23.1017 20.82 21.9619 21.9603C20.8221 23.1006 19.4818 24.0033 17.941 24.6685C16.4002 25.3337 14.7538 25.6663 13.0019 25.6663ZM12.9996 23.6663C15.9774 23.6663 18.4996 22.633 20.5663 20.5663C22.633 18.4996 23.6663 15.9774 23.6663 12.9996C23.6663 10.0219 22.633 7.49964 20.5663 5.43298C18.4996 3.36631 15.9774 2.33298 12.9996 2.33298C10.0219 2.33298 7.49964 3.36631 5.43297 5.43298C3.36631 7.49964 2.33297 10.0219 2.33297 12.9996C2.33297 15.9774 3.36631 18.4996 5.43297 20.5663C7.49964 22.633 10.0219 23.6663 12.9996 23.6663Z" fill="white"/>
</svg>