<svg width="22" height="22" viewBox="0 0 22 22" fill="none" xmlns="http://www.w3.org/2000/svg">
<mask id="mask0_6871_35766" style="mask-type:alpha" maskUnits="userSpaceOnUse" x="0" y="0" width="22" height="22">
<rect x="0.350586" y="0.764648" width="20.8333" height="20.8333" fill="#D9D9D9"/>
</mask>
<g mask="url(#mask0_6871_35766)">
<path d="M10.7674 12.746L6.71023 16.7955C6.49384 17.0115 6.22587 17.1195 5.90633 17.1195C5.58678 17.1195 5.31881 17.0115 5.10242 16.7955C4.88603 16.5795 4.77783 16.3121 4.77783 15.9931C4.77783 15.6742 4.88603 15.4067 5.10242 15.1907L9.15962 11.1413L5.10242 7.0918C4.88603 6.87582 4.77783 6.60836 4.77783 6.28943C4.77783 5.97049 4.88603 5.70303 5.10242 5.48705C5.31881 5.27107 5.58678 5.16309 5.90633 5.16309C6.22587 5.16309 6.49384 5.27107 6.71023 5.48705L10.7674 9.53653L14.8246 5.48705C15.041 5.27107 15.309 5.16309 15.6285 5.16309C15.9481 5.16309 16.2161 5.27107 16.4325 5.48705C16.6488 5.70303 16.757 5.97049 16.757 6.28943C16.757 6.60836 16.6488 6.87582 16.4325 7.0918L12.3752 11.1413L16.4325 15.1907C16.6488 15.4067 16.757 15.6742 16.757 15.9931C16.757 16.3121 16.6488 16.5795 16.4325 16.7955C16.2161 17.0115 15.9481 17.1195 15.6285 17.1195C15.309 17.1195 15.041 17.0115 14.8246 16.7955L10.7674 12.746Z" fill="white"/>
</g>
</svg>