<svg width="15" height="15" viewBox="0 0 15 15" fill="none" xmlns="http://www.w3.org/2000/svg">
<path id="Vector" d="M14.7801 13.7198C14.8497 13.7895 14.905 13.8722 14.9427 13.9632C14.9804 14.0543 14.9999 14.1519 14.9999 14.2504C14.9999 14.349 14.9804 14.4465 14.9427 14.5376C14.905 14.6286 14.8497 14.7114 14.7801 14.781C14.7104 14.8507 14.6277 14.906 14.5366 14.9437C14.4456 14.9814 14.348 15.0008 14.2494 15.0008C14.1509 15.0008 14.0533 14.9814 13.9623 14.9437C13.8712 14.906 13.7885 14.8507 13.7188 14.781L7.49944 8.56073L1.28007 14.781C1.13933 14.9218 0.948463 15.0008 0.74944 15.0008C0.550417 15.0008 0.359546 14.9218 0.218815 14.781C0.0780849 14.6403 -0.000976559 14.4494 -0.000976562 14.2504C-0.000976566 14.0514 0.078085 13.8605 0.218815 13.7198L6.43913 7.50042L0.218815 1.28104C0.0780849 1.14031 -0.000976564 0.94944 -0.000976562 0.750417C-0.000976561 0.551394 0.0780849 0.360523 0.218815 0.219792C0.359546 0.0790615 0.550417 1.48284e-09 0.74944 0C0.948463 -1.48284e-09 1.13933 0.0790615 1.28007 0.219792L7.49944 6.4401L13.7188 0.219792C13.8595 0.0790615 14.0504 -3.92322e-09 14.2494 0C14.4485 3.92322e-09 14.6393 0.0790615 14.7801 0.219792C14.9208 0.360523 14.9999 0.551394 14.9999 0.750417C14.9999 0.94944 14.9208 1.14031 14.7801 1.28104L8.55975 7.50042L14.7801 13.7198Z" fill="white"/>
</svg>
