<svg width="24" height="24" viewBox="0 0 24 24" fill="none" xmlns="http://www.w3.org/2000/svg">
<path d="M12.0385 13.6153L9.30382 16.35C9.44355 16.6 9.54323 16.8651 9.60284 17.1452C9.66246 17.4253 9.69227 17.7102 9.69227 18C9.69227 19.0048 9.3346 19.865 8.61927 20.5805C7.90393 21.296 7.044 21.6538 6.03947 21.6538C5.03495 21.6538 4.17469 21.2961 3.45867 20.5808C2.74265 19.8655 2.38464 19.0055 2.38464 18.001C2.38464 16.9965 2.74241 16.1362 3.45794 15.4202C4.17349 14.7042 5.03367 14.3462 6.03847 14.3462C6.3282 14.3462 6.61313 14.376 6.89327 14.4356C7.1734 14.4952 7.43847 14.5949 7.68847 14.7346L10.4231 12L7.68847 9.26534C7.43847 9.40509 7.1734 9.50477 6.89327 9.56439C6.61313 9.624 6.3282 9.65381 6.03847 9.65381C5.03367 9.65381 4.17349 9.29614 3.45794 8.58079C2.74241 7.86545 2.38464 7.00553 2.38464 6.00101C2.38464 4.99649 2.74231 4.13622 3.45764 3.42019C4.17299 2.70417 5.03293 2.34616 6.03744 2.34616C7.04196 2.34616 7.90223 2.70394 8.61824 3.41949C9.33426 4.13502 9.69227 4.99519 9.69227 5.99999C9.69227 6.28974 9.66246 6.57467 9.60284 6.85479C9.54323 7.13492 9.44355 7.39999 9.30382 7.64999L20.4846 18.8308C20.8513 19.1974 20.9333 19.6122 20.7308 20.075C20.5283 20.5378 20.1705 20.7692 19.6574 20.7692C19.5089 20.7692 19.3645 20.7393 19.2243 20.6796C19.0842 20.6199 18.9607 20.5369 18.8539 20.4307L12.0385 13.6153ZM14.8077 10.8461L13.1923 9.23076L18.8539 3.56924C18.9616 3.46305 19.0861 3.38009 19.2274 3.32036C19.3688 3.26063 19.5135 3.23076 19.6615 3.23076C20.1731 3.23076 20.5272 3.46474 20.724 3.93269C20.9208 4.40062 20.8359 4.81792 20.4692 5.18459L14.8077 10.8461ZM6.03847 8.15384C6.63077 8.15384 7.13782 7.94294 7.55962 7.52114C7.98142 7.09935 8.19232 6.5923 8.19232 5.99999C8.19232 5.40767 7.98142 4.90062 7.55962 4.47884C7.13782 4.05704 6.63077 3.84614 6.03847 3.84614C5.44615 3.84614 4.93909 4.05704 4.51729 4.47884C4.09549 4.90062 3.88459 5.40767 3.88459 5.99999C3.88459 6.5923 4.09549 7.09935 4.51729 7.52114C4.93909 7.94294 5.44615 8.15384 6.03847 8.15384ZM12.0385 12.25C12.1051 12.25 12.1634 12.225 12.2134 12.175C12.2634 12.125 12.2884 12.0667 12.2884 12C12.2884 11.9333 12.2634 11.875 12.2134 11.825C12.1634 11.775 12.1051 11.75 12.0385 11.75C11.9718 11.75 11.9135 11.775 11.8635 11.825C11.8135 11.875 11.7885 11.9333 11.7885 12C11.7885 12.0667 11.8135 12.125 11.8635 12.175C11.9135 12.225 11.9718 12.25 12.0385 12.25ZM6.03847 20.1538C6.63077 20.1538 7.13782 19.9429 7.55962 19.5211C7.98142 19.0994 8.19232 18.5923 8.19232 18C8.19232 17.4077 7.98142 16.9006 7.55962 16.4788C7.13782 16.057 6.63077 15.8461 6.03847 15.8461C5.44615 15.8461 4.93909 16.057 4.51729 16.4788C4.09549 16.9006 3.88459 17.4077 3.88459 18C3.88459 18.5923 4.09549 19.0994 4.51729 19.5211C4.93909 19.9429 5.44615 20.1538 6.03847 20.1538Z" fill="#1C1B1F"/>
</svg>
