<svg width="24" height="24" viewBox="0 0 24 24" fill="none" xmlns="http://www.w3.org/2000/svg">
<path d="M5.3077 20.5C4.81058 20.5 4.38503 20.323 4.03102 19.9689C3.67701 19.6149 3.5 19.1894 3.5 18.6923V5.30771C3.5 4.8106 3.67701 4.38504 4.03102 4.03104C4.38503 3.67702 4.81058 3.50001 5.3077 3.50001H9.71348C9.85194 3.01285 10.135 2.60901 10.5625 2.28851C10.9901 1.968 11.4692 1.80774 12 1.80774C12.5512 1.80774 13.0381 1.968 13.4605 2.28851C13.883 2.60901 14.1634 3.01285 14.3019 3.50001H18.6923C19.1894 3.50001 19.6149 3.67702 19.9689 4.03104C20.3229 4.38504 20.5 4.8106 20.5 5.30771V18.6923C20.5 19.1894 20.3229 19.6149 19.9689 19.9689C19.6149 20.323 19.1894 20.5 18.6923 20.5H5.3077ZM5.3077 19H18.6923C18.7692 19 18.8397 18.9679 18.9038 18.9038C18.9679 18.8397 19 18.7692 19 18.6923V5.30771C19 5.23078 18.9679 5.16026 18.9038 5.09614C18.8397 5.03204 18.7692 4.99999 18.6923 4.99999H16.5V6.71151C16.5 6.9676 16.4137 7.18226 16.2412 7.35549C16.0687 7.52872 15.8549 7.61534 15.5999 7.61534H8.39983C8.14482 7.61534 7.93111 7.52872 7.75868 7.35549C7.58623 7.18226 7.5 6.9676 7.5 6.71151V4.99999H5.3077C5.23077 4.99999 5.16024 5.03204 5.09612 5.09614C5.03202 5.16026 4.99997 5.23078 4.99997 5.30771V18.6923C4.99997 18.7692 5.03202 18.8397 5.09612 18.9038C5.16024 18.9679 5.23077 19 5.3077 19ZM12.0016 5.11539C12.2582 5.11539 12.4727 5.02861 12.6452 4.85504C12.8176 4.68149 12.9038 4.46643 12.9038 4.20986C12.9038 3.9533 12.817 3.7388 12.6435 3.56637C12.4699 3.39393 12.2549 3.30771 11.9983 3.30771C11.7417 3.30771 11.5272 3.39449 11.3548 3.56804C11.1824 3.74161 11.0961 3.95667 11.0961 4.21324C11.0961 4.46981 11.1829 4.68431 11.3565 4.85674C11.53 5.02917 11.7451 5.11539 12.0016 5.11539Z" fill="#1C1B1F"/>
</svg>
