<svg width="30" height="30" viewBox="0 0 30 30" fill="none" xmlns="http://www.w3.org/2000/svg">
<mask id="mask0_1583_47032" style="mask-type:alpha" maskUnits="userSpaceOnUse" x="3" y="3" width="24" height="24">
<rect x="3" y="3" width="24" height="24" fill="#D9D9D9"/>
</mask>
<g mask="url(#mask0_1583_47032)">
<path d="M14.9904 23.7095C14.7763 23.7095 14.5612 23.671 14.3452 23.5941C14.1291 23.5171 13.9391 23.3966 13.775 23.2325L12.3385 21.9268C10.5654 20.3101 8.98238 18.722 7.58943 17.1624C6.19648 15.6027 5.5 13.9319 5.5 12.1499C5.5 10.7307 5.97852 9.54253 6.93558 8.58548C7.89263 7.62843 9.08076 7.1499 10.5 7.1499C11.3064 7.1499 12.1029 7.3358 12.8894 7.7076C13.6759 8.0794 14.3795 8.68325 15 9.51915C15.6205 8.68325 16.324 8.0794 17.1105 7.7076C17.8971 7.3358 18.6936 7.1499 19.5 7.1499C20.9192 7.1499 22.1073 7.62843 23.0644 8.58548C24.0214 9.54253 24.5 10.7307 24.5 12.1499C24.5 13.9511 23.7916 15.6406 22.375 17.2181C20.9583 18.7957 19.3788 20.3704 17.6365 21.9422L16.2154 23.2325C16.0513 23.3966 15.8596 23.5171 15.6404 23.5941C15.4211 23.671 15.2045 23.7095 14.9904 23.7095Z" fill="#C33032"/>
</g>
</svg>
