<svg width="30" height="30" viewBox="0 0 30 30" fill="none" xmlns="http://www.w3.org/2000/svg">
<mask id="mask0_1583_47030" style="mask-type:alpha" maskUnits="userSpaceOnUse" x="3" y="3" width="24" height="24">
<rect x="3" y="3" width="24" height="24" fill="#D9D9D9"/>
</mask>
<g mask="url(#mask0_1583_47030)">
<path d="M14.9904 23.7095C14.7763 23.7095 14.5612 23.671 14.3452 23.5941C14.1291 23.5171 13.9391 23.3966 13.775 23.2325L12.3385 21.9268C10.5654 20.3101 8.98238 18.722 7.58943 17.1624C6.19648 15.6027 5.5 13.9319 5.5 12.1499C5.5 10.7307 5.97852 9.54253 6.93558 8.58548C7.89263 7.62843 9.08076 7.1499 10.5 7.1499C11.3064 7.1499 12.1029 7.3358 12.8894 7.7076C13.6759 8.0794 14.3795 8.68325 15 9.51915C15.6205 8.68325 16.324 8.0794 17.1105 7.7076C17.8971 7.3358 18.6936 7.1499 19.5 7.1499C20.9192 7.1499 22.1073 7.62843 23.0644 8.58548C24.0214 9.54253 24.5 10.7307 24.5 12.1499C24.5 13.9511 23.7916 15.6406 22.375 17.2181C20.9583 18.7957 19.3788 20.3704 17.6365 21.9422L16.2154 23.2325C16.0513 23.3966 15.8596 23.5171 15.6404 23.5941C15.4211 23.671 15.2045 23.7095 14.9904 23.7095ZM14.2808 11.0384C13.7397 10.214 13.1702 9.60982 12.5721 9.22585C11.974 8.84187 11.2833 8.64988 10.5 8.64988C9.49998 8.64988 8.66664 8.98321 7.99998 9.64988C7.33331 10.3165 6.99998 11.1499 6.99998 12.1499C6.99998 12.9524 7.25863 13.7915 7.77593 14.6672C8.29323 15.5428 8.94258 16.4133 9.72398 17.2787C10.5054 18.1441 11.3519 18.9896 12.2634 19.8152C13.1749 20.6409 14.0198 21.4082 14.798 22.1172C14.8557 22.1685 14.923 22.1941 15 22.1941C15.0769 22.1941 15.1442 22.1685 15.2019 22.1172C15.9801 21.4082 16.825 20.6409 17.7366 19.8152C18.6481 18.9896 19.4946 18.1441 20.276 17.2787C21.0574 16.4133 21.7067 15.5428 22.224 14.6672C22.7413 13.7915 23 12.9524 23 12.1499C23 11.1499 22.6666 10.3165 22 9.64988C21.3333 8.98321 20.5 8.64988 19.5 8.64988C18.7166 8.64988 18.0259 8.84187 17.4279 9.22585C16.8298 9.60982 16.2602 10.214 15.7192 11.0384C15.6346 11.1666 15.5282 11.2627 15.4 11.3268C15.2718 11.3909 15.1384 11.423 15 11.423C14.8615 11.423 14.7282 11.3909 14.6 11.3268C14.4718 11.2627 14.3654 11.1666 14.2808 11.0384Z" fill="white"/>
</g>
</svg>