<svg width="24" height="24" viewBox="0 0 24 24" fill="none" xmlns="http://www.w3.org/2000/svg">
<path d="M4.50002 18.6923V11.2404L3.23077 12.2269C3.05514 12.3551 2.86925 12.4058 2.6731 12.3788C2.47695 12.3519 2.31478 12.2506 2.1866 12.075C2.05838 11.8994 2.00613 11.7135 2.02985 11.5173C2.05356 11.3212 2.14811 11.159 2.3135 11.0308L4.50002 9.35003V7.23078C4.50002 7.01798 4.57182 6.83978 4.71542 6.69618C4.859 6.55259 5.0372 6.4808 5.25002 6.4808C5.46284 6.4808 5.64104 6.55259 5.78462 6.69618C5.9282 6.83978 5.99999 7.01798 5.99999 7.23078V8.20005L10.9 4.4635C11.2346 4.21222 11.6029 4.08658 12.0048 4.08658C12.4067 4.08658 12.7718 4.21222 13.1 4.4635L21.6865 11.0308C21.8519 11.159 21.9464 11.3212 21.9701 11.5173C21.9939 11.7135 21.9416 11.8994 21.8134 12.075C21.6852 12.2404 21.523 12.3365 21.3269 12.3635C21.1307 12.3904 20.95 12.3397 20.7846 12.2115L19.5 11.2404V18.6923C19.5 19.191 19.3234 19.617 18.9701 19.9702C18.6169 20.3234 18.191 20.5 17.6923 20.5H6.30772C5.809 20.5 5.38305 20.3234 5.02985 19.9702C4.67663 19.617 4.50002 19.191 4.50002 18.6923ZM6.30772 19H10.8077V15.8077C10.8077 15.4731 10.9227 15.1907 11.1529 14.9606C11.383 14.7304 11.6654 14.6154 12 14.6154C12.3346 14.6154 12.617 14.7304 12.8471 14.9606C13.0773 15.1907 13.1923 15.4731 13.1923 15.8077V19H17.6923C17.782 19 17.8557 18.9712 17.9134 18.9135C17.9711 18.8558 18 18.782 18 18.6923V10.1L12.1827 5.66925C12.1314 5.62437 12.0705 5.60193 12 5.60193C11.9295 5.60193 11.8686 5.62437 11.8173 5.66925L5.99999 10.1V18.6923C5.99999 18.782 6.02885 18.8558 6.08655 18.9135C6.14425 18.9712 6.21797 19 6.30772 19ZM6.30772 19H18H5.99999H6.30772ZM5.425 5.38465C5.15706 5.38465 4.94617 5.2744 4.79232 5.05388C4.63849 4.83338 4.62118 4.60454 4.7404 4.36738C4.9404 3.88404 5.25514 3.50007 5.68462 3.21545C6.1141 2.93084 6.59103 2.78853 7.1154 2.78853C7.3436 2.78853 7.55705 2.72667 7.75577 2.60295C7.9545 2.47922 8.08912 2.31159 8.15962 2.10005C8.21732 1.97569 8.30258 1.87664 8.4154 1.80293C8.52821 1.72921 8.65705 1.69235 8.80192 1.69235C9.07627 1.69235 9.2894 1.80421 9.44132 2.02793C9.59325 2.25164 9.6096 2.4853 9.49037 2.72888C9.28397 3.2058 8.96763 3.58496 8.54135 3.86638C8.11506 4.14778 7.63975 4.28848 7.1154 4.28848C6.88718 4.28848 6.67371 4.34297 6.475 4.45195C6.27628 4.56092 6.14166 4.7263 6.07115 4.9481C6.00705 5.07887 5.92115 5.18432 5.81347 5.26445C5.70577 5.34459 5.57628 5.38465 5.425 5.38465Z" fill="#292735"/>
</svg>
