<svg width="24" height="24" viewBox="0 0 24 24" fill="none" xmlns="http://www.w3.org/2000/svg">
<path d="M4.5 7H3V19C3 19.5304 3.21071 20.0391 3.58579 20.4142C3.96086 20.7893 4.46957 21 5 21H17V19.5H4.5V7Z" fill="#292735"/>
<path d="M8 2.6H20C20.3713 2.6 20.7274 2.7475 20.9899 3.01005C21.2525 3.2726 21.4 3.6287 21.4 4V16C21.4 16.3713 21.2525 16.7274 20.9899 16.9899C20.7274 17.2525 20.3713 17.4 20 17.4H8C7.6287 17.4 7.2726 17.2525 7.01005 16.9899C6.7475 16.7274 6.6 16.3713 6.6 16V4C6.6 3.6287 6.7475 3.2726 7.01005 3.01005C7.2726 2.7475 7.6287 2.6 8 2.6ZM10.4 13.1384C10.4 13.983 11.3124 14.5125 12.0458 14.0935L17.538 10.9551C18.277 10.5328 18.277 9.46722 17.538 9.04493L12.0458 5.90652C11.3124 5.48748 10.4 6.01699 10.4 6.86159V13.1384Z" stroke="#292735" stroke-width="1.2"/>
</svg>
