<svg width="32" height="32" viewBox="0 0 32 32" fill="none" xmlns="http://www.w3.org/2000/svg">
<path d="M28.6663 8.41027V23.5897C28.6663 24.2632 28.4329 24.8333 27.9663 25.2999C27.4996 25.7666 26.9295 25.9999 26.256 25.9999H5.74327C5.06976 25.9999 4.49967 25.7666 4.03301 25.2999C3.56634 24.8333 3.33301 24.2632 3.33301 23.5897V8.41027C3.33301 7.73676 3.56634 7.16667 4.03301 6.7C4.49967 6.23333 5.06976 6 5.74327 6H26.256C26.9295 6 27.4996 6.23333 27.9663 6.7C28.4329 7.16667 28.6663 7.73676 28.6663 8.41027ZM5.33297 11.2051H26.6663V8.41027C26.6663 8.30769 26.6236 8.21366 26.5381 8.12817C26.4526 8.0427 26.3586 7.99997 26.256 7.99997H5.74327C5.6407 7.99997 5.54666 8.0427 5.46117 8.12817C5.37571 8.21366 5.33297 8.30769 5.33297 8.41027V11.2051ZM5.33297 15.4615V23.5897C5.33297 23.6922 5.37571 23.7863 5.46117 23.8718C5.54666 23.9572 5.6407 24 5.74327 24H26.256C26.3586 24 26.4526 23.9572 26.5381 23.8718C26.6236 23.7863 26.6663 23.6922 26.6663 23.5897V15.4615H5.33297Z" fill="white"/>
</svg>
