<svg width="24" height="24" viewBox="0 0 24 24" fill="none" xmlns="http://www.w3.org/2000/svg">
<g id="dark_mode">
<mask id="mask0_11360_69242" style="mask-type:alpha" maskUnits="userSpaceOnUse" x="0" y="0" width="24" height="24">
<rect id="Bounding box" width="24" height="24" fill="#D9D9D9"/>
</mask>
<g mask="url(#mask0_11360_69242)">
<path id="dark_mode_2" d="M12.0293 20.5C9.66006 20.5 7.65109 19.6757 6.00237 18.027C4.35366 16.3783 3.5293 14.3693 3.5293 12.0001C3.5293 10.027 4.13986 8.2732 5.361 6.7386C6.58213 5.20398 8.20871 4.21487 10.2407 3.77127C10.451 3.71871 10.6363 3.72383 10.7965 3.78665C10.9568 3.84948 11.0869 3.94307 11.1869 4.06742C11.2869 4.19177 11.3459 4.34273 11.3638 4.5203C11.3818 4.69787 11.3401 4.87511 11.2388 5.05202C11.0324 5.42766 10.8792 5.8179 10.7792 6.22275C10.6792 6.62758 10.6292 7.05336 10.6292 7.50007C10.6292 9.13897 11.2028 10.532 12.3501 11.6793C13.4973 12.8265 14.8904 13.4001 16.5293 13.4001C17.0203 13.4001 17.4895 13.3379 17.9369 13.2136C18.3844 13.0892 18.776 12.945 19.1119 12.7809C19.276 12.7091 19.4363 12.6838 19.5927 12.7049C19.7491 12.7261 19.8826 12.7783 19.9931 12.8617C20.1159 12.945 20.2071 13.0588 20.2667 13.203C20.3263 13.3472 20.3331 13.5168 20.2869 13.7117C19.9318 15.6783 18.975 17.3014 17.4167 18.5808C15.8584 19.8603 14.0626 20.5 12.0293 20.5ZM12.0293 19.0001C13.4959 19.0001 14.8126 18.5959 15.9793 17.7876C17.1459 16.9792 17.9959 15.9251 18.5293 14.6251C18.1959 14.7084 17.8626 14.7751 17.5293 14.8251C17.1959 14.8751 16.8626 14.9001 16.5293 14.9001C14.4793 14.9001 12.7334 14.1792 11.2918 12.7376C9.85011 11.2959 9.12927 9.55007 9.12927 7.50007C9.12927 7.16674 9.15427 6.83341 9.20427 6.50007C9.25427 6.16674 9.32094 5.83341 9.40427 5.50007C8.10427 6.03341 7.05011 6.88341 6.24177 8.05007C5.43344 9.21674 5.02927 10.5334 5.02927 12.0001C5.02927 13.9334 5.71261 15.5834 7.07927 16.9501C8.44594 18.3167 10.0959 19.0001 12.0293 19.0001Z" fill="white"/>
</g>
</g>
</svg>
