<svg width="24" height="24" viewBox="0 0 24 24" fill="none" xmlns="http://www.w3.org/2000/svg">
<mask id="mask0_3110_97700" style="mask-type:alpha" maskUnits="userSpaceOnUse" x="0" y="0" width="24" height="24">
<rect width="24" height="24" fill="#D9D9D9"/>
</mask>
<g mask="url(#mask0_3110_97700)">
<path d="M12.0288 20.5C9.65957 20.5 7.6506 19.6756 6.00188 18.0269C4.35317 16.3782 3.52881 14.3692 3.52881 12C3.52881 10.027 4.13938 8.27314 5.36051 6.73854C6.58164 5.20392 8.20823 4.21481 10.2403 3.77121C10.4505 3.71865 10.6358 3.72377 10.796 3.78659C10.9563 3.84942 11.0864 3.94301 11.1864 4.06736C11.2864 4.19171 11.3454 4.34267 11.3633 4.52024C11.3813 4.69781 11.3396 4.87505 11.2383 5.05196C11.0319 5.4276 10.8787 5.81862 10.7787 6.22504C10.6787 6.63144 10.6287 7.05643 10.6287 7.50001C10.6287 9.14105 11.2018 10.5346 12.348 11.6808C13.4942 12.827 14.8878 13.4 16.5288 13.4C17.0198 13.4 17.489 13.3379 17.9365 13.2135C18.3839 13.0892 18.7756 12.9449 19.1115 12.7808C19.2756 12.709 19.4358 12.6837 19.5922 12.7049C19.7486 12.726 19.8826 12.7783 19.9941 12.8616C20.1159 12.9449 20.2066 13.0587 20.2662 13.203C20.3258 13.3472 20.3326 13.5167 20.2864 13.7116C19.9313 15.6782 18.9746 17.3013 17.4162 18.5808C15.8579 19.8602 14.0621 20.5 12.0288 20.5Z" fill="white"/>
</g>
</svg>
