<svg width="24" height="24" viewBox="0 0 24 24" fill="none" xmlns="http://www.w3.org/2000/svg">
<mask id="mask0_173_330" style="mask-type:alpha" maskUnits="userSpaceOnUse" x="0" y="0" width="24" height="24">
<rect width="24" height="24" fill="#D9D9D9"/>
</mask>
<g mask="url(#mask0_173_330)">
<path d="M12.0289 20.5C9.65969 20.5 7.65072 19.6756 6.00201 18.0269C4.35329 16.3782 3.52893 14.3692 3.52893 12C3.52893 10.027 4.1395 8.27314 5.36063 6.73854C6.58176 5.20392 8.20835 4.21481 10.2404 3.77121C10.4506 3.71865 10.6359 3.72377 10.7962 3.78659C10.9564 3.84942 11.0865 3.94301 11.1865 4.06736C11.2865 4.19171 11.3455 4.34267 11.3635 4.52024C11.3814 4.69781 11.3397 4.87505 11.2385 5.05196C11.0321 5.4276 10.8789 5.81784 10.7789 6.22269C10.6789 6.62752 10.6289 7.0533 10.6289 7.50001C10.6289 9.13891 11.2025 10.532 12.3497 11.6792C13.4969 12.8264 14.89 13.4 16.5289 13.4C17.0199 13.4 17.4891 13.3379 17.9366 13.2135C18.384 13.0892 18.7757 12.9449 19.1116 12.7808C19.2757 12.709 19.4359 12.6837 19.5923 12.7049C19.7487 12.726 19.8822 12.7783 19.9927 12.8616C20.1155 12.9449 20.2067 13.0587 20.2664 13.203C20.326 13.3472 20.3327 13.5167 20.2866 13.7116C19.9314 15.6782 18.9747 17.3013 17.4164 18.5808C15.858 19.8602 14.0622 20.5 12.0289 20.5ZM12.0289 19C13.4956 19 14.8122 18.5958 15.9789 17.7875C17.1456 16.9792 17.9956 15.925 18.5289 14.625C18.1956 14.7083 17.8622 14.775 17.5289 14.825C17.1956 14.875 16.8622 14.9 16.5289 14.9C14.4789 14.9 12.7331 14.1792 11.2914 12.7375C9.84974 11.2958 9.12891 9.55001 9.12891 7.50001C9.12891 7.16668 9.15391 6.83335 9.20391 6.50001C9.25391 6.16668 9.32057 5.83335 9.40391 5.50001C8.10391 6.03335 7.04974 6.88335 6.24141 8.05001C5.43307 9.21668 5.02891 10.5333 5.02891 12C5.02891 13.9333 5.71224 15.5833 7.07891 16.95C8.44557 18.3167 10.0956 19 12.0289 19Z" fill="#1C1B1F"/>
</g>
</svg>
