<svg width="24" height="24" viewBox="0 0 24 24" fill="none" xmlns="http://www.w3.org/2000/svg">
<mask id="mask0_183_322" style="mask-type:alpha" maskUnits="userSpaceOnUse" x="0" y="0" width="24" height="24">
<rect width="24" height="24" fill="#D9D9D9"/>
</mask>
<g mask="url(#mask0_183_322)">
<path d="M7.3077 20.5C6.81058 20.5 6.38502 20.323 6.03102 19.9689C5.67701 19.6149 5.5 19.1894 5.5 18.6923V5.99999H5.25C5.0375 5.99999 4.85938 5.92808 4.71563 5.78427C4.57188 5.64047 4.5 5.46227 4.5 5.24967C4.5 5.03708 4.57188 4.859 4.71563 4.71542C4.85938 4.57182 5.0375 4.50002 5.25 4.50002H8.99997C8.99997 4.25515 9.08619 4.0465 9.25863 3.87407C9.43106 3.70163 9.63971 3.61542 9.88457 3.61542H14.1154C14.3602 3.61542 14.5689 3.70163 14.7413 3.87407C14.9138 4.0465 15 4.25515 15 4.50002H18.75C18.9625 4.50002 19.1406 4.57193 19.2843 4.71574C19.4281 4.85956 19.5 5.03776 19.5 5.25034C19.5 5.46294 19.4281 5.64103 19.2843 5.78462C19.1406 5.9282 18.9625 5.99999 18.75 5.99999H18.5V18.6923C18.5 19.1894 18.3229 19.6149 17.9689 19.9689C17.6149 20.323 17.1894 20.5 16.6922 20.5H7.3077ZM17 5.99999H6.99997V18.6923C6.99997 18.782 7.02883 18.8557 7.08652 18.9134C7.14422 18.9711 7.21795 19 7.3077 19H16.6922C16.782 19 16.8557 18.9711 16.9134 18.9134C16.9711 18.8557 17 18.782 17 18.6923V5.99999ZM10.1542 17C10.3668 17 10.5448 16.9281 10.6884 16.7844C10.832 16.6406 10.9038 16.4625 10.9038 16.25V8.74997C10.9038 8.53749 10.8319 8.35937 10.6881 8.21562C10.5443 8.07187 10.3661 7.99999 10.1535 7.99999C9.9409 7.99999 9.76281 8.07187 9.61922 8.21562C9.47564 8.35937 9.40385 8.53749 9.40385 8.74997V16.25C9.40385 16.4625 9.47576 16.6406 9.61958 16.7844C9.76337 16.9281 9.94158 17 10.1542 17ZM13.8464 17C14.059 17 14.2371 16.9281 14.3807 16.7844C14.5243 16.6406 14.5961 16.4625 14.5961 16.25V8.74997C14.5961 8.53749 14.5242 8.35937 14.3804 8.21562C14.2366 8.07187 14.0584 7.99999 13.8458 7.99999C13.6332 7.99999 13.4551 8.07187 13.3115 8.21562C13.1679 8.35937 13.0961 8.53749 13.0961 8.74997V16.25C13.0961 16.4625 13.168 16.6406 13.3118 16.7844C13.4557 16.9281 13.6339 17 13.8464 17Z" fill="#1C1B1F"/>
</g>
</svg>
