<svg width="20" height="20" viewBox="0 0 20 20" fill="none" xmlns="http://www.w3.org/2000/svg">
<mask id="mask0_10432_8634" style="mask-type:alpha" maskUnits="userSpaceOnUse" x="0" y="0" width="20" height="20">
<rect width="20" height="20" fill="#D9D9D9"/>
</mask>
<g mask="url(#mask0_10432_8634)">
<path d="M6.08975 17.0834C5.67549 17.0834 5.32085 16.9359 5.02585 16.6409C4.73084 16.3459 4.58333 15.9912 4.58333 15.577V5.00009H4.375C4.19792 5.00009 4.04948 4.94016 3.92969 4.82031C3.8099 4.70048 3.75 4.55198 3.75 4.37481C3.75 4.19766 3.8099 4.04926 3.92969 3.92961C4.04948 3.80994 4.19792 3.75011 4.375 3.75011H7.49998C7.49998 3.54605 7.57183 3.37218 7.71552 3.22848C7.85922 3.08479 8.03309 3.01294 8.23715 3.01294H11.7628C11.9669 3.01294 12.1407 3.08479 12.2844 3.22848C12.4281 3.37218 12.5 3.54605 12.5 3.75011H15.625C15.802 3.75011 15.9505 3.81003 16.0703 3.92988C16.1901 4.04972 16.25 4.19822 16.25 4.37538C16.25 4.55254 16.1901 4.70095 16.0703 4.82061C15.9505 4.94026 15.802 5.00009 15.625 5.00009H15.4166V15.577C15.4166 15.9912 15.2691 16.3459 14.9741 16.6409C14.6791 16.9359 14.3245 17.0834 13.9102 17.0834H6.08975ZM14.1666 5.00009H5.83331V15.577C5.83331 15.6518 5.85735 15.7132 5.90544 15.7613C5.95352 15.8094 6.01496 15.8334 6.08975 15.8334H13.9102C13.985 15.8334 14.0464 15.8094 14.0945 15.7613C14.1426 15.7132 14.1666 15.6518 14.1666 15.577V5.00009ZM8.46181 14.1668C8.63897 14.1668 8.78737 14.1069 8.90702 13.9871C9.02669 13.8673 9.08652 13.7188 9.08652 13.5418V7.29173C9.08652 7.11466 9.0266 6.96623 8.90675 6.84644C8.7869 6.72665 8.6384 6.66675 8.46125 6.66675C8.28408 6.66675 8.13567 6.72665 8.01602 6.84644C7.89637 6.96623 7.83654 7.11466 7.83654 7.29173V13.5418C7.83654 13.7188 7.89647 13.8673 8.01631 13.9871C8.13615 14.1069 8.28465 14.1668 8.46181 14.1668ZM11.5387 14.1668C11.7159 14.1668 11.8643 14.1069 11.9839 13.9871C12.1036 13.8673 12.1634 13.7188 12.1634 13.5418V7.29173C12.1634 7.11466 12.1035 6.96623 11.9836 6.84644C11.8638 6.72665 11.7153 6.66675 11.5381 6.66675C11.361 6.66675 11.2126 6.72665 11.0929 6.84644C10.9733 6.96623 10.9134 7.11466 10.9134 7.29173V13.5418C10.9134 13.7188 10.9734 13.8673 11.0932 13.9871C11.2131 14.1069 11.3616 14.1668 11.5387 14.1668Z" fill="white"/>
</g>
</svg>
