<svg width="42" height="56" viewBox="0 0 42 56" fill="none" xmlns="http://www.w3.org/2000/svg">
<path d="M27.9915 0C29.4754 0 30.8826 0.659115 31.8326 1.79908L40.8411 12.6093C41.5899 13.5079 42 14.6406 42 15.8102V53.2224C41.9994 53.9593 41.755 54.6658 41.3205 55.1866C40.8861 55.7075 40.2971 56 39.683 56H2.317C1.70422 55.9949 1.11771 55.7007 0.684175 55.181C0.250642 54.6613 0.00488752 53.9577 0 53.2224V2.7776C0 1.2432 1.03833 0 2.317 0H27.9915ZM23.8 28L30.3333 16.8H24.7333L21 23.2008L17.2667 16.8H11.6667L18.2 28L11.6667 39.2H17.2667L21 32.7992L24.7333 39.2H30.3333L23.8 28Z" fill="#4D4D4D"/>
</svg>
