<svg width="42" height="56" viewBox="0 0 42 56" fill="none" xmlns="http://www.w3.org/2000/svg">
<path fill-rule="evenodd" clip-rule="evenodd" d="M0 5.6C0 4.11479 0.510576 2.69041 1.41941 1.6402C2.32824 0.589998 3.56087 0 4.84615 0L29.0757 0C30.5271 0 31.9068 0.630641 32.8566 1.72812L40.7808 10.8851C41.5672 11.7938 42 12.9552 42 14.1569V50.4C42 51.8852 41.4894 53.3096 40.5806 54.3598C39.6718 55.41 38.4391 56 37.1538 56H4.84615C3.56087 56 2.32824 55.41 1.41941 54.3598C0.510576 53.3096 0 51.8852 0 50.4V5.6ZM8.07692 22.4H3.23077V41.0667H6.46154V33.6H8.07692C9.3622 33.6 10.5948 33.01 11.5037 31.9598C12.4125 30.9096 12.9231 29.4852 12.9231 28C12.9231 26.5148 12.4125 25.0904 11.5037 24.0402C10.5948 22.99 9.3622 22.4 8.07692 22.4ZM21 22.4H16.1538V41.0667H21C22.2853 41.0667 23.5179 40.4767 24.4267 39.4265C25.3356 38.3763 25.8462 36.9519 25.8462 35.4667V28C25.8462 26.5148 25.3356 25.0904 24.4267 24.0402C23.5179 22.99 22.2853 22.4 21 22.4ZM29.0769 41.0667V22.4H38.7692V26.1333H32.3077V29.8667H35.5385V33.6H32.3077V41.0667H29.0769Z" fill="#4D4D4D"/>
</svg>
