<svg width="42" height="56" viewBox="0 0 42 56" fill="none" xmlns="http://www.w3.org/2000/svg">
<path fill-rule="evenodd" clip-rule="evenodd" d="M0 5.6C0 4.11479 0.510576 2.69041 1.41941 1.6402C2.32824 0.589998 3.56087 0 4.84615 0L28.6186 0C30.3603 0 32.016 0.75677 33.1557 2.07374L40.537 10.6033C41.4806 11.6937 42 13.0875 42 14.5296V50.4C42 51.8852 41.4894 53.3096 40.5806 54.3598C39.6718 55.41 38.4391 56 37.1538 56H4.84615C3.56087 56 2.32824 55.41 1.41941 54.3598C0.510576 53.3096 0 51.8852 0 50.4V5.6ZM9.69231 16.7901C9.69231 15.7587 10.5288 14.9227 11.5603 14.9234L23.9808 14.932C25.0112 14.9328 25.8462 15.7683 25.8462 16.7987V16.7987C25.8462 17.8301 25.0096 18.6661 23.9782 18.6654L11.5577 18.6568C10.5273 18.656 9.69231 17.8205 9.69231 16.7901V16.7901ZM32.3077 27.9813C32.3077 26.9504 31.472 26.1147 30.441 26.1147H11.559C10.528 26.1147 9.69231 26.9504 9.69231 27.9813V27.9813C9.69231 29.0123 10.528 29.848 11.559 29.848H30.441C31.472 29.848 32.3077 29.0123 32.3077 27.9813V27.9813ZM32.3077 39.1996C32.3077 38.1705 31.4742 37.336 30.4452 37.3346L11.5613 37.3097C10.5295 37.3083 9.69231 38.1444 9.69231 39.1762V39.1762C9.69231 40.2062 10.5267 41.0415 11.5567 41.0427L30.4406 41.0645C31.4714 41.0657 32.3077 40.2304 32.3077 39.1996V39.1996Z" fill="#4D4D4D"/>
</svg>
