<svg width="24" height="24" viewBox="0 0 24 24" fill="none" xmlns="http://www.w3.org/2000/svg">
<path d="M8.99997 17.75H15C15.2128 17.75 15.391 17.6782 15.5346 17.5346C15.6782 17.391 15.75 17.2128 15.75 17C15.75 16.7872 15.6782 16.609 15.5346 16.4654C15.391 16.3218 15.2128 16.25 15 16.25H8.99997C8.78716 16.25 8.60896 16.3218 8.46537 16.4654C8.32179 16.609 8.25 16.7872 8.25 17C8.25 17.2128 8.32179 17.391 8.46537 17.5346C8.60896 17.6782 8.78716 17.75 8.99997 17.75ZM8.99997 13.75H15C15.2128 13.75 15.391 13.6782 15.5346 13.5346C15.6782 13.391 15.75 13.2128 15.75 13C15.75 12.7872 15.6782 12.609 15.5346 12.4654C15.391 12.3218 15.2128 12.25 15 12.25H8.99997C8.78716 12.25 8.60896 12.3218 8.46537 12.4654C8.32179 12.609 8.25 12.7872 8.25 13C8.25 13.2128 8.32179 13.391 8.46537 13.5346C8.60896 13.6782 8.78716 13.75 8.99997 13.75ZM6.3077 21.5C5.80257 21.5 5.375 21.325 5.025 20.975C4.675 20.625 4.5 20.1974 4.5 19.6923V4.30773C4.5 3.8026 4.675 3.37503 5.025 3.02503C5.375 2.67503 5.80257 2.50003 6.3077 2.50003H13.5019C13.7429 2.50003 13.9747 2.54683 14.1971 2.64043C14.4195 2.73401 14.6128 2.86286 14.7769 3.02696L18.973 7.22306C19.1371 7.38717 19.266 7.58045 19.3595 7.80288C19.4531 8.02531 19.5 8.25704 19.5 8.49806V19.6923C19.5 20.1974 19.325 20.625 18.975 20.975C18.625 21.325 18.1974 21.5 17.6922 21.5H6.3077ZM13.5 7.59613V4.00001H6.3077C6.23077 4.00001 6.16024 4.03206 6.09612 4.09616C6.03202 4.16027 5.99997 4.2308 5.99997 4.30773V19.6923C5.99997 19.7692 6.03202 19.8397 6.09612 19.9039C6.16024 19.968 6.23077 20 6.3077 20H17.6922C17.7692 20 17.8397 19.968 17.9038 19.9039C17.9679 19.8397 18 19.7692 18 19.6923V8.49998H14.4039C14.1462 8.49998 13.9311 8.41376 13.7587 8.24131C13.5862 8.06887 13.5 7.85381 13.5 7.59613Z" fill="#292735"/>
</svg>
