<svg width="53" height="54" viewBox="0 0 53 54" fill="none" xmlns="http://www.w3.org/2000/svg">
<g clip-path="url(#clip0_12384_14584)">
<path d="M12.3663 29.0499H10.5996V25.5166H12.3663C12.8348 25.5166 13.2842 25.7027 13.6155 26.034C13.9468 26.3654 14.1329 26.8147 14.1329 27.2833C14.1329 27.7518 13.9468 28.2012 13.6155 28.5325C13.2842 28.8638 12.8348 29.0499 12.3663 29.0499ZM24.7329 36.1166V25.5166H26.4996C26.9682 25.5166 27.4175 25.7027 27.7488 26.034C28.0801 26.3654 28.2663 26.8147 28.2663 27.2833V34.3499C28.2663 34.8185 28.0801 35.2678 27.7488 35.5992C27.4175 35.9305 26.9682 36.1166 26.4996 36.1166H24.7329Z" fill="white"/>
<path fill-rule="evenodd" clip-rule="evenodd" d="M3.5332 6.0832C3.5332 4.67756 4.09159 3.32948 5.08554 2.33554C6.07948 1.34159 7.42756 0.783203 8.8332 0.783203L37.8313 0.783203L49.4665 12.4185V48.4832C49.4665 49.8889 48.9081 51.2369 47.9142 52.2309C46.9203 53.2248 45.5722 53.7832 44.1665 53.7832H8.8332C7.42756 53.7832 6.07948 53.2248 5.08554 52.2309C4.09159 51.2369 3.5332 49.8889 3.5332 48.4832V6.0832ZM12.3665 21.9832H7.06654V39.6499H10.5999V32.5832H12.3665C13.7722 32.5832 15.1203 32.0248 16.1142 31.0309C17.1081 30.0369 17.6665 28.6889 17.6665 27.2832C17.6665 25.8776 17.1081 24.5295 16.1142 23.5355C15.1203 22.5416 13.7722 21.9832 12.3665 21.9832ZM26.4999 21.9832H21.1999V39.6499H26.4999C27.9055 39.6499 29.2536 39.0915 30.2475 38.0975C31.2415 37.1036 31.7999 35.7555 31.7999 34.3499V27.2832C31.7999 25.8776 31.2415 24.5295 30.2475 23.5355C29.2536 22.5416 27.9055 21.9832 26.4999 21.9832ZM35.3332 39.6499V21.9832H45.9332V25.5165H38.8665V29.0499H42.3999V32.5832H38.8665V39.6499H35.3332Z" fill="white"/>
</g>
<defs>
<clipPath id="clip0_12384_14584">
<rect width="53" height="53" fill="white" transform="translate(0 0.783203)"/>
</clipPath>
</defs>
</svg>