<svg width="42" height="53" viewBox="0 0 42 53" fill="none" xmlns="http://www.w3.org/2000/svg">
<path fill-rule="evenodd" clip-rule="evenodd" d="M26.373 0H2.625C1.92881 0 1.26113 0.279196 0.768845 0.776167C0.276562 1.27314 0 1.94718 0 2.65V50.35C0 51.0528 0.276562 51.7269 0.768845 52.2238C1.26113 52.7208 1.92881 53 2.625 53H39.375C40.0712 53 40.7389 52.7208 41.2312 52.2238C41.7234 51.7269 42 51.0528 42 50.35V15.7186C42 14.1372 41.3756 12.6197 40.2627 11.4962L30.6357 1.77751C29.5089 0.639973 27.9742 0 26.373 0ZM11.7708 22.0813C11.2785 22.5736 11.002 23.2413 11.002 23.9375V37.0625C11.002 37.7587 11.2785 38.4264 11.7708 38.9187C12.2631 39.4109 12.9308 39.6875 13.627 39.6875H29.377C30.0731 39.6875 30.7408 39.4109 31.2331 38.9187C31.7254 38.4264 32.002 37.7587 32.002 37.0625V23.9375C32.002 23.2413 31.7254 22.5736 31.2331 22.0813C30.7408 21.5891 30.0731 21.3125 29.377 21.3125H13.627C12.9308 21.3125 12.2631 21.5891 11.7708 22.0813ZM12.3145 37.0625V35.75L15.7873 32.6604C15.8946 32.5535 16.0355 32.487 16.1862 32.4722C16.337 32.4573 16.4881 32.4951 16.6142 32.579L20.1055 34.9048L24.9748 30.0354C25.0723 29.9382 25.1979 29.8741 25.3338 29.8522C25.4697 29.8303 25.6091 29.8517 25.7321 29.9133L30.6895 32.4688V37.0625C30.6895 37.4106 30.5512 37.7444 30.305 37.9906C30.0589 38.2367 29.725 38.375 29.377 38.375H13.627C13.2789 38.375 12.945 38.2367 12.6989 37.9906C12.4527 37.7444 12.3145 37.4106 12.3145 37.0625ZM18.3003 25.8266C18.6695 26.1958 18.877 26.6966 18.877 27.2188C18.877 27.7409 18.6695 28.2417 18.3003 28.6109C17.9311 28.9801 17.4303 29.1875 16.9082 29.1875C16.3861 29.1875 15.8853 28.9801 15.5161 28.6109C15.1469 28.2417 14.9395 27.7409 14.9395 27.2188C14.9395 26.6966 15.1469 26.1958 15.5161 25.8266C15.8853 25.4574 16.3861 25.25 16.9082 25.25C17.4303 25.25 17.9311 25.4574 18.3003 25.8266Z" fill="white"/>
</svg>