<svg width="42" height="56" viewBox="0 0 42 56" fill="none" xmlns="http://www.w3.org/2000/svg">
<path d="M27.5231 0C29.3038 0 30.9924 0.790938 32.1324 2.15889L40.6093 12.3312C41.5079 13.4095 42 14.7687 42 16.1723V53.2224C41.9994 53.9593 41.755 54.6658 41.3205 55.1866C40.8861 55.7074 40.2971 56 39.683 56H2.317C1.70422 55.9949 1.11771 55.7007 0.684175 55.181C0.250642 54.6612 0.00488752 53.9577 0 53.2224V2.7776C0 1.2432 1.03833 0 2.317 0H27.5231ZM28.2419 15.8628C26.5316 15.8087 25.6667 17.849 25.6667 19.5601V30.7692L23.9896 27.0913C23.4643 25.9393 22.3147 25.2 21.0486 25.2V25.2C19.7979 25.2 18.6594 25.9215 18.1255 27.0526L16.3567 30.8L16.3379 19.5544C16.335 17.8301 15.4909 15.6905 13.7684 15.7699V15.7699C12.2229 15.8412 11.6667 17.6934 11.6667 19.2406V33.9602C11.6667 37.2426 13.906 41.4096 16.3333 39.2V39.2L21 33.6L25.0986 38.5183C25.4765 38.9718 26.0205 39.5168 26.5171 39.836V39.836C28.8876 41.36 30.3333 37.5827 30.3333 34.7646V19.1489C30.3333 17.6654 29.7246 15.9097 28.2419 15.8628V15.8628Z" fill="white"/>
</svg>
