<svg width="20" height="21" viewBox="0 0 20 21" fill="none" xmlns="http://www.w3.org/2000/svg">
<g id="diamond">
<path id="Vector" d="M9.99979 16.8813C9.78506 16.8813 9.57726 16.8359 9.3764 16.7451C9.17555 16.6543 8.9998 16.5197 8.84917 16.3413L2.53827 8.78037C2.42395 8.64362 2.33822 8.49431 2.28106 8.33245C2.2239 8.17059 2.19531 8.00045 2.19531 7.82204C2.19531 7.70773 2.20707 7.59262 2.23058 7.4767C2.25408 7.36079 2.29522 7.24994 2.35398 7.14416L3.87642 4.0961C4.01317 3.84503 4.19933 3.64418 4.4349 3.49354C4.67046 3.3429 4.93195 3.26758 5.21935 3.26758H14.7802C15.0676 3.26758 15.3291 3.3429 15.5647 3.49354C15.8003 3.64418 15.9864 3.84503 16.1232 4.0961L17.6456 7.14416C17.7044 7.24994 17.7455 7.36079 17.769 7.4767C17.7925 7.59262 17.8043 7.70773 17.8043 7.82204C17.8043 8.00045 17.7757 8.17059 17.7185 8.33245C17.6614 8.49431 17.5756 8.64362 17.4613 8.78037L11.1504 16.3413C10.9998 16.5197 10.824 16.6543 10.6232 16.7451C10.4223 16.8359 10.2145 16.8813 9.99979 16.8813ZM7.68406 7.43424H12.3155L10.8572 4.51754H9.14242L7.68406 7.43424ZM9.37481 15.032V8.6842H4.10073L9.37481 15.032ZM10.6248 15.032L15.8989 8.6842H10.6248V15.032ZM13.7049 7.43424H16.378L14.9918 4.66179C14.9704 4.61905 14.9384 4.58432 14.8956 4.5576C14.8529 4.53089 14.8075 4.51754 14.7594 4.51754H12.2466L13.7049 7.43424ZM3.62156 7.43424H6.29467L7.75302 4.51754H5.24019C5.1921 4.51754 5.14669 4.53089 5.10396 4.5576C5.06121 4.58432 5.02915 4.61905 5.00779 4.66179L3.62156 7.43424Z" fill="white"/>
</g>
</svg>
