<svg width="24" height="24" viewBox="0 0 24 24" fill="none" xmlns="http://www.w3.org/2000/svg">
<path d="M12 19.5865C11.7423 19.5865 11.493 19.532 11.2519 19.4231C11.0109 19.3141 10.8 19.1526 10.6193 18.9385L3.04619 9.86538C2.90901 9.70128 2.80613 9.52211 2.73754 9.32788C2.66894 9.13365 2.63464 8.92948 2.63464 8.71538C2.63464 8.57821 2.64875 8.44008 2.67697 8.30098C2.70517 8.16188 2.75453 8.02886 2.82504 7.90193L4.65197 4.24426C4.81607 3.94297 5.03946 3.70195 5.32214 3.52118C5.60483 3.34041 5.91861 3.25003 6.26349 3.25003H17.7365C18.0814 3.25003 18.3952 3.34041 18.6779 3.52118C18.9606 3.70195 19.184 3.94297 19.3481 4.24426L21.175 7.90193C21.2455 8.02886 21.2949 8.16188 21.3231 8.30098C21.3513 8.44008 21.3654 8.57821 21.3654 8.71538C21.3654 8.92948 21.3311 9.13365 21.2625 9.32788C21.1939 9.52211 21.091 9.70128 20.9538 9.86538L13.3808 18.9385C13.2 19.1526 12.9891 19.3141 12.7481 19.4231C12.5071 19.532 12.2577 19.5865 12 19.5865ZM9.22114 8.25003H14.7789L13.0289 4.74998H10.9712L9.22114 8.25003ZM11.25 17.3674V9.74998H4.92114L11.25 17.3674ZM12.75 17.3674L19.0789 9.74998H12.75V17.3674ZM16.4462 8.25003H19.6539L17.9904 4.92308C17.9648 4.8718 17.9263 4.83012 17.875 4.79806C17.8237 4.76601 17.7692 4.74998 17.7115 4.74998H14.6961L16.4462 8.25003ZM4.34614 8.25003H7.55387L9.30389 4.74998H6.28849C6.23079 4.74998 6.1763 4.76601 6.12502 4.79806C6.07372 4.83012 6.03525 4.8718 6.00962 4.92308L4.34614 8.25003Z" fill="#1C1B1F"/>
</svg>
