<svg width="20" height="20" viewBox="0 0 20 20" fill="none" xmlns="http://www.w3.org/2000/svg">
<mask id="mask0_9131_16409" style="mask-type:alpha" maskUnits="userSpaceOnUse" x="0" y="0" width="20" height="21">
<rect y="0.00415039" width="20" height="20" fill="#D9D9D9"/>
</mask>
<g mask="url(#mask0_9131_16409)">
<path d="M9.99998 12.8471C9.89955 12.8471 9.80607 12.831 9.71954 12.799C9.633 12.7669 9.55074 12.7119 9.47275 12.6339L6.88142 10.0426C6.75749 9.91868 6.69633 9.77365 6.69794 9.60753C6.69953 9.4414 6.76069 9.2937 6.88142 9.16442C7.01069 9.03516 7.15919 8.96839 7.32692 8.96411C7.49465 8.95983 7.64316 9.02233 7.77244 9.15161L9.375 10.7542V4.37915C9.375 4.2018 9.43483 4.0533 9.55448 3.93365C9.67413 3.81398 9.82263 3.75415 9.99998 3.75415C10.1773 3.75415 10.3258 3.81398 10.4455 3.93365C10.5651 4.0533 10.625 4.2018 10.625 4.37915V10.7542L12.2275 9.15161C12.3515 9.02768 12.4986 8.96651 12.669 8.96811C12.8394 8.96972 12.9893 9.03516 13.1185 9.16442C13.2393 9.2937 13.3018 9.44007 13.306 9.60353C13.3103 9.76698 13.2478 9.91334 13.1185 10.0426L10.5272 12.6339C10.4492 12.7119 10.367 12.7669 10.2804 12.799C10.1939 12.831 10.1004 12.8471 9.99998 12.8471ZM5.25642 16.2541C4.83547 16.2541 4.47917 16.1083 4.1875 15.8166C3.89583 15.5249 3.75 15.1686 3.75 14.7477V13.1131C3.75 12.9357 3.80983 12.7872 3.9295 12.6676C4.04915 12.5479 4.19765 12.4881 4.375 12.4881C4.55235 12.4881 4.70085 12.5479 4.8205 12.6676C4.94015 12.7872 4.99998 12.9357 4.99998 13.1131V14.7477C4.99998 14.8118 5.02669 14.8706 5.0801 14.924C5.13353 14.9774 5.19231 15.0041 5.25642 15.0041H14.7435C14.8077 15.0041 14.8664 14.9774 14.9199 14.924C14.9733 14.8706 15 14.8118 15 14.7477V13.1131C15 12.9357 15.0598 12.7872 15.1795 12.6676C15.2991 12.5479 15.4476 12.4881 15.625 12.4881C15.8023 12.4881 15.9508 12.5479 16.0705 12.6676C16.1901 12.7872 16.25 12.9357 16.25 13.1131V14.7477C16.25 15.1686 16.1041 15.5249 15.8125 15.8166C15.5208 16.1083 15.1645 16.2541 14.7435 16.2541H5.25642Z" fill="white"/>
</g>
</svg>
