<svg width="20" height="20" viewBox="0 0 20 20" fill="none" xmlns="http://www.w3.org/2000/svg">
<mask id="mask0_11423_8889" style="mask-type:alpha" maskUnits="userSpaceOnUse" x="0" y="0" width="20" height="21">
<rect y="0.00390625" width="20" height="20" fill="#D9D9D9"/>
</mask>
<g mask="url(#mask0_11423_8889)">
<path d="M9.99998 12.8468C9.89955 12.8468 9.80607 12.8308 9.71954 12.7987C9.633 12.7667 9.55074 12.7117 9.47275 12.6337L6.88142 10.0424C6.75749 9.91843 6.69633 9.77341 6.69794 9.60728C6.69953 9.44116 6.76069 9.29345 6.88142 9.16418C7.01069 9.03491 7.15919 8.96814 7.32692 8.96386C7.49465 8.95959 7.64316 9.02209 7.77244 9.15136L9.375 10.7539V4.37891C9.375 4.20156 9.43483 4.05306 9.55448 3.93341C9.67413 3.81374 9.82263 3.75391 9.99998 3.75391C10.1773 3.75391 10.3258 3.81374 10.4455 3.93341C10.5651 4.05306 10.625 4.20156 10.625 4.37891V10.7539L12.2275 9.15136C12.3515 9.02743 12.4986 8.96627 12.669 8.96786C12.8394 8.96948 12.9893 9.03491 13.1185 9.16418C13.2393 9.29345 13.3018 9.43982 13.306 9.60328C13.3103 9.76674 13.2478 9.9131 13.1185 10.0424L10.5272 12.6337C10.4492 12.7117 10.367 12.7667 10.2804 12.7987C10.1939 12.8308 10.1004 12.8468 9.99998 12.8468ZM5.25642 16.2539C4.83547 16.2539 4.47917 16.108 4.1875 15.8164C3.89583 15.5247 3.75 15.1684 3.75 14.7474V13.1128C3.75 12.9355 3.80983 12.787 3.9295 12.6673C4.04915 12.5477 4.19765 12.4879 4.375 12.4879C4.55235 12.4879 4.70085 12.5477 4.8205 12.6673C4.94015 12.787 4.99998 12.9355 4.99998 13.1128V14.7474C4.99998 14.8116 5.02669 14.8703 5.0801 14.9238C5.13353 14.9772 5.19231 15.0039 5.25642 15.0039H14.7435C14.8077 15.0039 14.8664 14.9772 14.9199 14.9238C14.9733 14.8703 15 14.8116 15 14.7474V13.1128C15 12.9355 15.0598 12.787 15.1795 12.6673C15.2991 12.5477 15.4476 12.4879 15.625 12.4879C15.8023 12.4879 15.9508 12.5477 16.0705 12.6673C16.1901 12.787 16.25 12.9355 16.25 13.1128V14.7474C16.25 15.1684 16.1041 15.5247 15.8125 15.8164C15.5208 16.108 15.1645 16.2539 14.7435 16.2539H5.25642Z" fill="#15151F"/>
</g>
</svg>