<svg width="24" height="24" viewBox="0 0 24 24" fill="none" xmlns="http://www.w3.org/2000/svg">
<path d="M9.55005 13.4577L17.9808 5.02695C18.1295 4.87824 18.3061 4.80228 18.5106 4.79908C18.7151 4.79586 18.8949 4.87182 19.05 5.02695C19.2051 5.18207 19.2827 5.36027 19.2827 5.56155C19.2827 5.76284 19.2051 5.94104 19.05 6.09615L10.1827 14.9634C10.002 15.1442 9.79106 15.2346 9.55005 15.2346C9.30903 15.2346 9.09814 15.1442 8.91737 14.9634L4.95007 10.9962C4.80135 10.8474 4.72796 10.6708 4.7299 10.4664C4.73181 10.2619 4.81033 10.0821 4.96545 9.92695C5.12058 9.77182 5.29879 9.69425 5.50007 9.69425C5.70134 9.69425 5.87954 9.77182 6.03467 9.92695L9.55005 13.4577ZM6.25007 19.5C6.03725 19.5 5.85905 19.4282 5.71547 19.2846C5.57187 19.141 5.50007 18.9628 5.50007 18.75C5.50007 18.5372 5.57187 18.359 5.71547 18.2154C5.85905 18.0718 6.03725 18 6.25007 18H17.75C17.9628 18 18.141 18.0718 18.2846 18.2154C18.4282 18.359 18.5 18.5372 18.5 18.75C18.5 18.9628 18.4282 19.141 18.2846 19.2846C18.141 19.4282 17.9628 19.5 17.75 19.5H6.25007Z" fill="#1C1B1F"/>
</svg>
