<svg xmlns="http://www.w3.org/2000/svg" width="18" height="17" viewBox="0 0 18 17" fill="none">
  <path d="M17.5 4.45368C17.5006 4.34182 17.4792 4.23094 17.4369 4.12739C17.3946 4.02383 17.3323 3.92964 17.2535 3.85023L13.6495 0.246496C13.5701 0.167722 13.4759 0.105401 13.3723 0.0631039C13.2688 0.0208072 13.1579 -0.000632505 13.046 1.42061e-05C12.9341 -0.000632505 12.8232 0.0208072 12.7197 0.0631039C12.6161 0.105401 12.5219 0.167722 12.4425 0.246496L0.746514 11.9416C0.667735 12.021 0.605408 12.1152 0.563109 12.2188C0.520809 12.3223 0.499367 12.4332 0.500014 12.5451V16.1488C0.500014 16.3742 0.589567 16.5904 0.748973 16.7498C0.908379 16.9092 1.12458 16.9987 1.35001 16.9987H4.95401C5.07294 17.0052 5.19192 16.9866 5.3032 16.9442C5.41449 16.9017 5.51561 16.8363 5.6 16.7523L14.8395 7.46246L17.2535 5.09963C17.3311 5.01726 17.3943 4.92245 17.4405 4.81915C17.4487 4.75141 17.4487 4.68292 17.4405 4.61517C17.4445 4.5756 17.4445 4.53574 17.4405 4.49618L17.5 4.45368ZM4.60551 15.2989H2.20001V12.8936L10.6405 4.45368L13.046 6.859L4.60551 15.2989ZM14.2445 5.66059L11.839 3.25527L13.046 2.05686L15.443 4.45368L14.2445 5.66059Z" fill="#292735"/>
</svg>