<svg width="24" height="24" viewBox="0 0 24 24" fill="none" xmlns="http://www.w3.org/2000/svg">
<path d="M5.3077 21.5C4.80257 21.5 4.375 21.325 4.025 20.975C3.675 20.625 3.5 20.1974 3.5 19.6923V6.30772C3.5 5.80259 3.675 5.37502 4.025 5.02502C4.375 4.67502 4.80257 4.50002 5.3077 4.50002H6.69233V3.15384C6.69233 2.93463 6.76573 2.75162 6.91253 2.60482C7.05931 2.45804 7.24232 2.38464 7.46155 2.38464C7.68077 2.38464 7.86378 2.45804 8.01058 2.60482C8.15736 2.75162 8.23075 2.93463 8.23075 3.15384V4.50002H15.8077V3.13462C15.8077 2.9218 15.8794 2.7436 16.023 2.60002C16.1666 2.45643 16.3448 2.38464 16.5576 2.38464C16.7704 2.38464 16.9486 2.45643 17.0922 2.60002C17.2358 2.7436 17.3076 2.9218 17.3076 3.13462V4.50002H18.6923C19.1974 4.50002 19.625 4.67502 19.975 5.02502C20.325 5.37502 20.5 5.80259 20.5 6.30772V10.6212C20.5 10.834 20.4282 11.0122 20.2845 11.1558C20.141 11.2994 19.9628 11.3712 19.75 11.3712C19.5371 11.3712 19.3589 11.2994 19.2154 11.1558C19.0718 11.0122 19 10.834 19 10.6212V10.3077H4.99997V19.6923C4.99997 19.7692 5.03202 19.8397 5.09612 19.9038C5.16024 19.9679 5.23077 20 5.3077 20H11.1731C11.3859 20 11.5641 20.0718 11.7077 20.2154C11.8513 20.359 11.9231 20.5372 11.9231 20.75C11.9231 20.9628 11.8513 21.141 11.7077 21.2846C11.5641 21.4282 11.3859 21.5 11.1731 21.5H5.3077ZM4.99997 8.80774H19V6.30772C19 6.23079 18.9679 6.16026 18.9038 6.09614C18.8397 6.03204 18.7692 5.99999 18.6923 5.99999H5.3077C5.23077 5.99999 5.16024 6.03204 5.09612 6.09614C5.03202 6.16026 4.99997 6.23079 4.99997 6.30772V8.80774ZM14.1154 20.5961V19.2346C14.1154 19.1141 14.1372 18.9994 14.1808 18.8904C14.2243 18.7814 14.2929 18.6801 14.3865 18.5865L19.5442 13.4538C19.6686 13.3295 19.8032 13.242 19.9481 13.1913C20.0929 13.1407 20.2378 13.1154 20.3827 13.1154C20.5378 13.1154 20.6894 13.1449 20.8375 13.2038C20.9855 13.2628 21.1185 13.3513 21.2365 13.4692L22.1615 14.4038C22.2692 14.5282 22.3525 14.6628 22.4115 14.8077C22.4705 14.9526 22.5 15.0974 22.5 15.2423C22.5 15.3872 22.473 15.5346 22.4192 15.6846C22.3653 15.8346 22.2794 15.9718 22.1615 16.0961L17.0288 21.2288C16.9352 21.3224 16.8339 21.391 16.725 21.4346C16.616 21.4782 16.5012 21.5 16.3807 21.5H15.0192C14.7615 21.5 14.5465 21.4137 14.374 21.2413C14.2016 21.0689 14.1154 20.8538 14.1154 20.5961ZM15.3077 20.3077H16.2577L19.5038 17.0461L19.0442 16.5711L18.5788 16.1019L15.3077 19.3577V20.3077ZM19.0442 16.5711L18.5788 16.1019L19.5038 17.0461L19.0442 16.5711Z" fill="#1C1B1F"/>
</svg>
