<svg width="24" height="24" viewBox="0 0 24 24" fill="none" xmlns="http://www.w3.org/2000/svg">
<path d="M12 20.9422C11.5987 20.9422 11.2439 20.8365 10.9356 20.6249C10.6272 20.4134 10.4115 20.1358 10.2884 19.7922H9.99997C9.59101 19.7922 9.23877 19.6445 8.94327 19.349C8.64776 19.0535 8.5 18.7012 8.5 18.2923V15.0115C7.49103 14.4 6.69712 13.5801 6.11827 12.5519C5.53942 11.5237 5.25 10.4231 5.25 9.25001C5.25 7.36797 5.90448 5.77246 7.21345 4.46348C8.52243 3.15451 10.1179 2.50003 12 2.50003C13.882 2.50003 15.4775 3.15451 16.7865 4.46348C18.0955 5.77246 18.75 7.36797 18.75 9.25001C18.75 10.4436 18.4605 11.5494 17.8817 12.5673C17.3028 13.5853 16.5089 14.4 15.5 15.0115V18.2923C15.5 18.7012 15.3522 19.0535 15.0567 19.349C14.7612 19.6445 14.4089 19.7922 14 19.7922H13.7115C13.5884 20.1358 13.3727 20.4134 13.0644 20.6249C12.7561 20.8365 12.4013 20.9422 12 20.9422ZM9.99997 18.2923H14V17.3538H9.99997V18.2923ZM9.99997 16.4692H14V15.5H9.99997V16.4692ZM9.79997 14H11.4038V11.0885L9.68075 9.36538C9.5628 9.24743 9.50222 9.10929 9.49902 8.95096C9.49582 8.79262 9.5564 8.65128 9.68075 8.52693C9.80512 8.40257 9.94486 8.34038 10.1 8.34038C10.2551 8.34038 10.3948 8.40257 10.5192 8.52693L12 10.0077L13.4808 8.52693C13.5987 8.40898 13.7368 8.34841 13.8952 8.34521C14.0535 8.34199 14.1948 8.40257 14.3192 8.52693C14.4435 8.65128 14.5057 8.79102 14.5057 8.94616C14.5057 9.10127 14.4435 9.24101 14.3192 9.36538L12.5961 11.0885V14H14.2C15.1 13.5667 15.8333 12.9292 16.4 12.0875C16.9666 11.2458 17.25 10.3 17.25 9.25001C17.25 7.78334 16.7416 6.54167 15.725 5.52501C14.7083 4.50834 13.4666 4.00001 12 4.00001C10.5333 4.00001 9.29164 4.50834 8.27497 5.52501C7.25831 6.54167 6.74997 7.78334 6.74997 9.25001C6.74997 10.3 7.03331 11.2458 7.59997 12.0875C8.16664 12.9292 8.89997 13.5667 9.79997 14Z" fill="#292735"/>
</svg>
