<svg width="24" height="24" viewBox="0 0 24 24" fill="none" xmlns="http://www.w3.org/2000/svg">
<path d="M11.25 19V15.5731C10.3821 15.4474 9.61763 15.108 8.95673 14.5548C8.29583 14.0016 7.84743 13.3064 7.61153 12.4692C6.45769 12.332 5.48398 11.8423 4.6904 11C3.8968 10.1577 3.5 9.15769 3.5 8.00001V7.30773C3.5 6.81062 3.67701 6.38506 4.03102 6.03106C4.38503 5.67704 4.81058 5.50003 5.3077 5.50003H7.32693V5.30773C7.32693 4.81062 7.50392 4.38506 7.85792 4.03106C8.21193 3.67704 8.63748 3.50003 9.1346 3.50003H14.8654C15.3625 3.50003 15.788 3.67704 16.142 4.03106C16.496 4.38506 16.673 4.81062 16.673 5.30773V5.50003H18.6923C19.1894 5.50003 19.6149 5.67704 19.9689 6.03106C20.3229 6.38506 20.5 6.81062 20.5 7.30773V8.00001C20.5 9.15769 20.1031 10.1577 19.3096 11C18.516 11.8423 17.5423 12.332 16.3884 12.4692C16.1525 13.3064 15.7041 14.0016 15.0432 14.5548C14.3823 15.108 13.6179 15.4474 12.75 15.5731V19H15.5576C15.7701 19 15.9483 19.0719 16.092 19.2157C16.2358 19.3595 16.3076 19.5377 16.3076 19.7503C16.3076 19.9629 16.2358 20.141 16.092 20.2846C15.9483 20.4282 15.7701 20.5 15.5576 20.5H8.44233C8.22983 20.5 8.0517 20.4281 7.90795 20.2843C7.7642 20.1404 7.69233 19.9622 7.69233 19.7497C7.69233 19.5371 7.7642 19.359 7.90795 19.2154C8.0517 19.0718 8.22983 19 8.44233 19H11.25ZM7.32693 10.8577V7.00001H5.3077C5.21795 7.00001 5.14423 7.02886 5.08653 7.08656C5.02883 7.14426 4.99997 7.21798 4.99997 7.30773V8.00001C4.99997 8.69104 5.21857 9.30194 5.65575 9.83271C6.09293 10.3635 6.64999 10.7051 7.32693 10.8577ZM12.0023 14.1346C12.879 14.1346 13.6234 13.828 14.2355 13.2148C14.8477 12.6015 15.1538 11.8568 15.1538 10.9808V5.30773C15.1538 5.21798 15.125 5.14426 15.0673 5.08656C15.0096 5.02886 14.9359 5.00001 14.8461 5.00001H9.15383C9.06408 5.00001 8.99035 5.02886 8.93265 5.08656C8.87497 5.14426 8.84613 5.21798 8.84613 5.30773V10.9808C8.84613 11.8568 9.15297 12.6015 9.76665 13.2148C10.3803 13.828 11.1255 14.1346 12.0023 14.1346ZM16.673 10.8577C17.35 10.7051 17.907 10.3635 18.3442 9.83271C18.7814 9.30194 19 8.69104 19 8.00001V7.30773C19 7.21798 18.9711 7.14426 18.9134 7.08656C18.8557 7.02886 18.782 7.00001 18.6923 7.00001H16.673V10.8577Z" fill="#1C1B1F"/>
</svg>
