<svg width="40" height="40" viewBox="0 0 40 40" fill="none" xmlns="http://www.w3.org/2000/svg">
<path d="M10.906 8.3341C10.7725 8.19786 10.6134 8.08927 10.4379 8.01453C10.2624 7.93979 10.0739 7.90036 9.88316 7.89851C9.69241 7.89665 9.50316 7.9324 9.32623 8.0037C9.14931 8.07501 8.98816 8.18049 8.85201 8.3141C7.31191 9.84526 6.09024 11.6662 5.25747 13.6719C4.42471 15.6776 3.99734 17.8284 4.00001 20.0001C3.99751 22.2551 4.45852 24.4866 5.35442 26.5561C6.25032 28.6255 7.56198 30.4887 9.20801 32.0301C9.48505 32.2862 9.851 32.4242 10.2282 32.4149C10.6053 32.4056 10.964 32.2496 11.228 31.9801C11.86 31.3481 11.782 30.3421 11.174 29.7601C9.85301 28.5012 8.80179 26.9868 8.08425 25.3089C7.3667 23.6311 6.99782 21.8249 7.00001 20.0001C7.00001 16.3081 8.48201 12.9601 10.886 10.5241C11.466 9.9341 11.526 8.9541 10.906 8.3341ZM14.428 11.8601C14.1646 11.5891 13.8045 11.4335 13.4266 11.4275C13.0487 11.4215 12.6839 11.5656 12.412 11.8281C11.3299 12.896 10.471 14.1685 9.88523 15.5714C9.29947 16.9743 8.99856 18.4798 9.00001 20.0001C9.00001 23.3841 10.46 26.4261 12.786 28.5301C13.0608 28.7724 13.4182 28.8996 13.7842 28.8855C14.1502 28.8713 14.4968 28.7168 14.752 28.4541C15.408 27.7981 15.286 26.7661 14.67 26.1861C13.8256 25.3924 13.153 24.4339 12.6938 23.3699C12.2345 22.3059 11.9984 21.159 12 20.0001C12 17.7001 12.914 15.6121 14.4 14.0801C14.972 13.4921 15.066 12.4961 14.428 11.8601ZM25.572 11.8581C25.8354 11.5871 26.1955 11.4315 26.5734 11.4255C26.9513 11.4195 27.3161 11.5636 27.588 11.8261C28.6704 12.8942 29.5294 14.167 30.1152 15.5703C30.701 16.9736 31.0017 18.4794 31 20.0001C31 23.3841 29.54 26.4261 27.214 28.5301C26.9393 28.7724 26.5818 28.8996 26.2158 28.8855C25.8498 28.8713 25.5032 28.7168 25.248 28.4541C24.592 27.7981 24.714 26.7661 25.33 26.1861C26.1744 25.3924 26.847 24.4339 27.3062 23.3699C27.7655 22.3059 28.0016 21.159 28 20.0001C28 17.7001 27.086 15.6121 25.6 14.0801C25.028 13.4921 24.934 12.4941 25.572 11.8581ZM29.094 8.3341C29.2275 8.19786 29.3866 8.08927 29.5621 8.01453C29.7376 7.93979 29.9261 7.90036 30.1169 7.89851C30.3076 7.89665 30.4969 7.9324 30.6738 8.0037C30.8507 8.07501 31.0119 8.18049 31.148 8.3141C32.6881 9.84526 33.9098 11.6662 34.7426 13.6719C35.5753 15.6776 36.0027 17.8284 36 20.0001C36.0025 22.2551 35.5415 24.4866 34.6456 26.5561C33.7497 28.6255 32.438 30.4887 30.792 32.0301C30.515 32.2862 30.149 32.4242 29.7719 32.4149C29.3947 32.4056 29.036 32.2496 28.772 31.9801C28.14 31.3481 28.218 30.3421 28.828 29.7601C30.1487 28.501 31.1995 26.9865 31.9167 25.3087C32.6339 23.6309 33.0025 21.8248 33 20.0001C33 16.3081 31.518 12.9601 29.114 10.5241C28.534 9.9341 28.474 8.9541 29.094 8.3341ZM20 17.0001C19.2044 17.0001 18.4413 17.3162 17.8787 17.8788C17.3161 18.4414 17 19.2044 17 20.0001C17 20.7957 17.3161 21.5588 17.8787 22.1214C18.4413 22.684 19.2044 23.0001 20 23.0001C20.7957 23.0001 21.5587 22.684 22.1213 22.1214C22.6839 21.5588 23 20.7957 23 20.0001C23 19.2044 22.6839 18.4414 22.1213 17.8788C21.5587 17.3162 20.7957 17.0001 20 17.0001Z" fill="#EB5757"/>
</svg>
