<svg width="24" height="23" viewBox="0 0 24 23" fill="none" xmlns="http://www.w3.org/2000/svg">
<path d="M7.275 18.7375L12 15.8875L16.725 18.775L15.4875 13.375L19.65 9.77503L14.175 9.28753L12 4.18753L9.825 9.25003L4.35 9.73753L8.5125 13.375L7.275 18.7375ZM12 18.5327L6.16444 22.0519C5.94714 22.1788 5.72936 22.2322 5.51111 22.212C5.29284 22.1918 5.09524 22.1182 4.91831 21.9913C4.74141 21.8644 4.60489 21.6985 4.50874 21.4937C4.41256 21.2889 4.39718 21.0625 4.46257 20.8144L6.01159 14.1885L0.859687 9.72887C0.667387 9.56157 0.544799 9.36783 0.491924 9.14766C0.439049 8.92745 0.452987 8.71352 0.533737 8.50584C0.614512 8.29814 0.730862 8.12843 0.882787 7.99671C1.03471 7.86498 1.2424 7.77893 1.50585 7.73855L8.30486 7.14433L10.9443 0.887606C11.0404 0.654931 11.1861 0.482817 11.3813 0.371267C11.5765 0.259742 11.7827 0.203979 12 0.203979C12.2173 0.203979 12.4235 0.259742 12.6187 0.371267C12.8139 0.482817 12.9596 0.654931 13.0557 0.887606L15.6951 7.14433L22.4941 7.73855C22.7576 7.77893 22.9653 7.86498 23.1172 7.99671C23.2691 8.12843 23.3855 8.29814 23.4663 8.50584C23.547 8.71352 23.5609 8.92745 23.5081 9.14766C23.4552 9.36783 23.3326 9.56157 23.1403 9.72887L17.9884 14.1885L19.5374 20.8144C19.6028 21.0625 19.5874 21.2889 19.4913 21.4937C19.3951 21.6985 19.2586 21.8644 19.0817 21.9913C18.9048 22.1182 18.7072 22.1918 18.4889 22.212C18.2706 22.2322 18.0529 22.1788 17.8356 22.0519L12 18.5327Z" fill="#292735"/>
</svg>
