<svg width="24" height="23" viewBox="0 0 24 23" fill="none" xmlns="http://www.w3.org/2000/svg">
<path d="M11.9999 18.5328L6.16435 22.052C5.94705 22.1789 5.72927 22.2323 5.51102 22.2121C5.29275 22.1919 5.09515 22.1183 4.91822 21.9914C4.74132 21.8645 4.6048 21.6986 4.50865 21.4938C4.41247 21.289 4.39708 21.0626 4.46248 20.8145L6.0115 14.1886L0.859596 9.72899C0.667296 9.56169 0.544708 9.36795 0.491833 9.14778C0.438958 8.92758 0.452896 8.71364 0.533646 8.50597C0.614421 8.29827 0.730771 8.12855 0.882696 7.99683C1.03462 7.8651 1.24231 7.77905 1.50576 7.73868L8.30477 7.14445L10.9442 0.887728C11.0403 0.655053 11.186 0.482939 11.3812 0.371389C11.5764 0.259864 11.7826 0.204102 11.9999 0.204102C12.2172 0.204102 12.4235 0.259864 12.6187 0.371389C12.8138 0.482939 12.9595 0.655053 13.0556 0.887728L15.695 7.14445L22.4941 7.73868C22.7575 7.77905 22.9652 7.8651 23.1171 7.99683C23.269 8.12855 23.3854 8.29827 23.4662 8.50597C23.5469 8.71364 23.5609 8.92758 23.508 9.14778C23.4551 9.36795 23.3325 9.56169 23.1402 9.72899L17.9883 14.1886L19.5373 20.8145C19.6027 21.0626 19.5873 21.289 19.4912 21.4938C19.395 21.6986 19.2585 21.8645 19.0816 21.9914C18.9047 22.1183 18.7071 22.1919 18.4888 22.2121C18.2705 22.2323 18.0528 22.1789 17.8355 22.052L11.9999 18.5328Z" fill="white"/>
</svg>