<svg width="24" height="24" viewBox="0 0 24 24" fill="none" xmlns="http://www.w3.org/2000/svg">
<path d="M12 15.9288L10.2269 17.7019C10.0884 17.8404 9.91439 17.9112 9.70477 17.9144C9.49517 17.9176 9.31794 17.8468 9.17308 17.7019C9.02819 17.557 8.95575 17.3814 8.95575 17.175C8.95575 16.9686 9.02819 16.7929 9.17308 16.6481L10.9462 14.875L9.17308 13.1019C9.03461 12.9634 8.96378 12.7894 8.96058 12.5798C8.95736 12.3702 9.02819 12.1929 9.17308 12.0481C9.31794 11.9032 9.49358 11.8308 9.69998 11.8308C9.90638 11.8308 10.082 11.9032 10.2269 12.0481L12 13.8212L13.7731 12.0481C13.9115 11.9096 14.0856 11.8388 14.2952 11.8356C14.5048 11.8324 14.682 11.9032 14.8269 12.0481C14.9718 12.1929 15.0442 12.3686 15.0442 12.575C15.0442 12.7814 14.9718 12.957 14.8269 13.1019L13.0538 14.875L14.8269 16.6481C14.9653 16.7865 15.0362 16.9606 15.0394 17.1702C15.0426 17.3798 14.9718 17.557 14.8269 17.7019C14.682 17.8468 14.5064 17.9192 14.3 17.9192C14.0936 17.9192 13.9179 17.8468 13.7731 17.7019L12 15.9288ZM5.3077 21.5C4.80257 21.5 4.375 21.325 4.025 20.975C3.675 20.625 3.5 20.1974 3.5 19.6923V6.30772C3.5 5.80259 3.675 5.37502 4.025 5.02502C4.375 4.67502 4.80257 4.50002 5.3077 4.50002H6.69233V3.15384C6.69233 2.93463 6.76573 2.75162 6.91253 2.60482C7.05931 2.45804 7.24232 2.38464 7.46155 2.38464C7.68077 2.38464 7.86378 2.45804 8.01058 2.60482C8.15736 2.75162 8.23075 2.93463 8.23075 3.15384V4.50002H15.8077V3.13462C15.8077 2.9218 15.8794 2.7436 16.023 2.60002C16.1666 2.45643 16.3448 2.38464 16.5576 2.38464C16.7704 2.38464 16.9486 2.45643 17.0922 2.60002C17.2358 2.7436 17.3076 2.9218 17.3076 3.13462V4.50002H18.6923C19.1974 4.50002 19.625 4.67502 19.975 5.02502C20.325 5.37502 20.5 5.80259 20.5 6.30772V19.6923C20.5 20.1974 20.325 20.625 19.975 20.975C19.625 21.325 19.1974 21.5 18.6923 21.5H5.3077ZM5.3077 20H18.6923C18.7692 20 18.8397 19.9679 18.9038 19.9038C18.9679 19.8397 19 19.7692 19 19.6923V10.3077H4.99997V19.6923C4.99997 19.7692 5.03202 19.8397 5.09612 19.9038C5.16024 19.9679 5.23077 20 5.3077 20ZM4.99997 8.80774H19V6.30772C19 6.23079 18.9679 6.16026 18.9038 6.09614C18.8397 6.03204 18.7692 5.99999 18.6923 5.99999H5.3077C5.23077 5.99999 5.16024 6.03204 5.09612 6.09614C5.03202 6.16026 4.99997 6.23079 4.99997 6.30772V8.80774Z" fill="#1C1B1F"/>
</svg>
