<svg width="19" height="20" viewBox="0 0 19 20" fill="none" xmlns="http://www.w3.org/2000/svg">
<g id="expand_more">
<mask id="mask0_11360_69239" style="mask-type:alpha" maskUnits="userSpaceOnUse" x="0" y="0" width="19" height="20">
<rect id="Bounding box" y="0.5" width="19" height="19" fill="#D9D9D9"/>
</mask>
<g mask="url(#mask0_11360_69239)">
<path id="expand_more_2" d="M9.49957 12.1066C9.40416 12.1066 9.31535 12.0913 9.23315 12.0609C9.15094 12.0304 9.07279 11.9782 8.9987 11.9041L5.44077 8.34615C5.33115 8.23654 5.27508 8.09877 5.27254 7.93282C5.27 7.76688 5.32607 7.62656 5.44077 7.51187C5.55546 7.39719 5.6945 7.33984 5.8579 7.33984C6.0213 7.33984 6.16034 7.39719 6.27503 7.51187L9.49957 10.7364L12.7241 7.51187C12.8337 7.40227 12.9715 7.34619 13.1374 7.34364C13.3034 7.34111 13.4437 7.39719 13.5584 7.51187C13.6731 7.62656 13.7304 7.76561 13.7304 7.92902C13.7304 8.09242 13.6731 8.23146 13.5584 8.34615L10.0004 11.9041C9.92635 11.9782 9.8482 12.0304 9.76598 12.0609C9.68378 12.0913 9.59498 12.1066 9.49957 12.1066Z" fill="white"/>
</g>
</g>
</svg>
