<svg width="24" height="24" viewBox="0 0 24 24" fill="none" xmlns="http://www.w3.org/2000/svg">
<path fill-rule="evenodd" clip-rule="evenodd" d="M12 3C16.9627 3 21 7.05668 21 12.0432C21 16.6112 17.6111 20.3966 13.2273 21V14.715H14.8636L15.6818 12.6478L13.2273 12.6597V10.7155C13.2273 10.2 13.6429 9.78237 14.1559 9.78237C14.5249 9.78237 14.8636 9.78237 14.8636 9.78237V8.13816H13.123C12.4995 8.13816 11.9018 8.38685 11.4612 8.82996C11.0202 9.27267 10.7727 9.87321 10.7727 10.4997C10.7727 11.5902 10.7727 12.6478 10.7727 12.6478H9.13636V14.715H10.7727V21C6.38891 20.3966 3 16.6112 3 12.0432C3 7.05668 7.03732 3 12 3Z" fill="#060000"/>
</svg>
