<svg width="24" height="24" viewBox="0 0 24 24" fill="none" xmlns="http://www.w3.org/2000/svg">
<path d="M12 3C7.03764 3 3 7.03764 3 12C3 16.9624 7.03764 21 12 21C16.9624 21 21 16.9624 21 12C21 7.03764 16.9624 3 12 3ZM12 4.38462C16.2141 4.38462 19.6154 7.78594 19.6154 12C19.6154 15.8303 16.8013 18.9799 13.125 19.5234V14.2013H15.2749L15.613 12.0189H13.125V10.8236C13.125 9.9167 13.4202 9.11178 14.2689 9.11178H15.6319V7.20523C15.3924 7.17338 14.8863 7.10246 13.9282 7.10246C11.9288 7.10246 10.756 8.15893 10.756 10.564V12.0162H8.70072V14.2013H10.7587V19.5045C7.13971 18.9122 4.38462 15.7898 4.38462 12C4.38462 7.78594 7.78594 4.38462 12 4.38462Z" fill="black"/>
</svg>
