<svg width="24" height="24" viewBox="0 0 24 24" fill="none" xmlns="http://www.w3.org/2000/svg">
<mask id="mask0_281_627" style="mask-type:alpha" maskUnits="userSpaceOnUse" x="0" y="0" width="24" height="24">
<rect width="24" height="24" fill="#D9D9D9"/>
</mask>
<g mask="url(#mask0_281_627)">
<path d="M3.2981 15.6154V8.38466C3.2981 8.11031 3.38848 7.89109 3.56925 7.72699C3.75003 7.56289 3.96093 7.48083 4.20195 7.48083C4.28528 7.48083 4.37054 7.48917 4.45772 7.50583C4.54489 7.5225 4.62694 7.56096 4.70387 7.62121L10.1346 11.2519C10.2718 11.3455 10.373 11.4552 10.4384 11.5808C10.5038 11.7064 10.5365 11.8462 10.5365 12C10.5365 12.1539 10.5038 12.2936 10.4384 12.4192C10.373 12.5449 10.2718 12.6545 10.1346 12.7481L4.70387 16.3788C4.62694 16.4391 4.54489 16.4775 4.45772 16.4942C4.37054 16.5109 4.28528 16.5192 4.20195 16.5192C3.96093 16.5192 3.75003 16.4371 3.56925 16.273C3.38848 16.1089 3.2981 15.8897 3.2981 15.6154ZM12.7404 15.6154V8.38466C12.7404 8.11031 12.8308 7.89109 13.0115 7.72699C13.1923 7.56289 13.4032 7.48083 13.6442 7.48083C13.7276 7.48083 13.8128 7.48917 13.9 7.50583C13.9872 7.5225 14.0692 7.56096 14.1461 7.62121L19.5768 11.2519C19.714 11.3455 19.8153 11.4552 19.8807 11.5808C19.9461 11.7064 19.9788 11.8462 19.9788 12C19.9788 12.1539 19.9461 12.2936 19.8807 12.4192C19.8153 12.5449 19.714 12.6545 19.5768 12.7481L14.1461 16.3788C14.0692 16.4391 13.9872 16.4775 13.9 16.4942C13.8128 16.5109 13.7276 16.5192 13.6442 16.5192C13.4032 16.5192 13.1923 16.4371 13.0115 16.273C12.8308 16.1089 12.7404 15.8897 12.7404 15.6154ZM4.79807 14.5L8.56347 12L4.79807 9.49999V14.5ZM14.2403 14.5L18.0057 12L14.2403 9.49999V14.5Z" fill="#1C1B1F"/>
</g>
</svg>
