<svg width="24" height="24" viewBox="0 0 24 24" fill="none" xmlns="http://www.w3.org/2000/svg">
<mask id="mask0_281_624" style="mask-type:alpha" maskUnits="userSpaceOnUse" x="0" y="0" width="24" height="24">
<rect width="24" height="24" fill="#D9D9D9"/>
</mask>
<g mask="url(#mask0_281_624)">
<path d="M19.2961 16.3788L13.8654 12.7481C13.7283 12.6545 13.627 12.5449 13.5616 12.4192C13.4962 12.2936 13.4635 12.1539 13.4635 12C13.4635 11.8462 13.4962 11.7064 13.5616 11.5808C13.627 11.4552 13.7283 11.3455 13.8654 11.2519L19.2961 7.62121C19.3731 7.56096 19.4551 7.5225 19.5423 7.50583C19.6295 7.48917 19.7147 7.48083 19.7981 7.48083C20.0391 7.48083 20.25 7.56289 20.4308 7.72699C20.6115 7.89109 20.7019 8.11031 20.7019 8.38466V15.6154C20.7019 15.8897 20.6115 16.1089 20.4308 16.273C20.25 16.4371 20.0391 16.5192 19.7981 16.5192C19.7147 16.5192 19.6295 16.5109 19.5423 16.4942C19.4551 16.4775 19.3731 16.4391 19.2961 16.3788ZM9.85389 16.3788L4.42317 12.7481C4.28598 12.6545 4.1847 12.5449 4.11931 12.4192C4.05393 12.2936 4.02124 12.1539 4.02124 12C4.02124 11.8462 4.05393 11.7064 4.11931 11.5808C4.1847 11.4552 4.28598 11.3455 4.42317 11.2519L9.85389 7.62121C9.93081 7.56096 10.0129 7.5225 10.1 7.50583C10.1872 7.48917 10.2725 7.48083 10.3558 7.48083C10.5968 7.48083 10.8077 7.56289 10.9885 7.72699C11.1693 7.89109 11.2596 8.11031 11.2596 8.38466V15.6154C11.2596 15.8897 11.1693 16.1089 10.9885 16.273C10.8077 16.4371 10.5968 16.5192 10.3558 16.5192C10.2725 16.5192 10.1872 16.5109 10.1 16.4942C10.0129 16.4775 9.93081 16.4391 9.85389 16.3788ZM9.75967 14.5V9.49999L5.99426 12L9.75967 14.5ZM19.2019 14.5V9.49999L15.4365 12L19.2019 14.5Z" fill="#1C1B1F"/>
</g>
</svg>
