<svg width="24" height="24" viewBox="0 0 24 24" fill="none" xmlns="http://www.w3.org/2000/svg">
<mask id="mask0_167_347" style="mask-type:alpha" maskUnits="userSpaceOnUse" x="0" y="0" width="24" height="24">
<rect width="24" height="24" fill="#D9D9D9"/>
</mask>
<g mask="url(#mask0_167_347)">
<path d="M11.9904 20.7096C11.7763 20.7096 11.5612 20.6711 11.3452 20.5942C11.1291 20.5173 10.9391 20.3968 10.775 20.2327L9.33848 18.9269C7.56539 17.3102 5.98238 15.7221 4.58943 14.1625C3.19648 12.6029 2.5 10.932 2.5 9.15C2.5 7.73078 2.97852 6.54265 3.93558 5.5856C4.89263 4.62855 6.08076 4.15002 7.49998 4.15002C8.30638 4.15002 9.10285 4.33593 9.8894 4.70773C10.6759 5.07953 11.3795 5.68337 12 6.51927C12.6205 5.68337 13.324 5.07953 14.1105 4.70773C14.8971 4.33593 15.6936 4.15002 16.5 4.15002C17.9192 4.15002 19.1073 4.62855 20.0644 5.5856C21.0214 6.54265 21.5 7.73078 21.5 9.15C21.5 10.9513 20.7916 12.6407 19.375 14.2183C17.9583 15.7958 16.3788 17.3705 14.6365 18.9423L13.2154 20.2327C13.0513 20.3968 12.8596 20.5173 12.6404 20.5942C12.4211 20.6711 12.2045 20.7096 11.9904 20.7096Z" fill="#1C1B1F"/>
</g>
</svg>
