<svg width="24" height="24" viewBox="0 0 24 24" fill="none" xmlns="http://www.w3.org/2000/svg">
<mask id="mask0_167_346" style="mask-type:alpha" maskUnits="userSpaceOnUse" x="0" y="0" width="24" height="24">
<rect width="24" height="24" fill="#D9D9D9"/>
</mask>
<g mask="url(#mask0_167_346)">
<path d="M11.9904 20.7096C11.7763 20.7096 11.5612 20.6711 11.3452 20.5942C11.1291 20.5173 10.9391 20.3968 10.775 20.2327L9.33848 18.9269C7.56539 17.3102 5.98238 15.7221 4.58943 14.1625C3.19648 12.6029 2.5 10.932 2.5 9.15C2.5 7.73078 2.97852 6.54265 3.93558 5.5856C4.89263 4.62855 6.08076 4.15002 7.49998 4.15002C8.30638 4.15002 9.10285 4.33593 9.8894 4.70773C10.6759 5.07953 11.3795 5.68337 12 6.51927C12.6205 5.68337 13.324 5.07953 14.1105 4.70773C14.8971 4.33593 15.6936 4.15002 16.5 4.15002C17.9192 4.15002 19.1073 4.62855 20.0644 5.5856C21.0214 6.54265 21.5 7.73078 21.5 9.15C21.5 10.9513 20.7916 12.6407 19.375 14.2183C17.9583 15.7958 16.3788 17.3705 14.6365 18.9423L13.2154 20.2327C13.0513 20.3968 12.8596 20.5173 12.6404 20.5942C12.4211 20.6711 12.2045 20.7096 11.9904 20.7096ZM11.2808 8.03848C10.7397 7.21411 10.1702 6.60994 9.5721 6.22598C8.97402 5.84199 8.28331 5.65 7.49998 5.65C6.49998 5.65 5.66664 5.98333 4.99998 6.65C4.33331 7.31667 3.99998 8.15 3.99998 9.15C3.99998 9.95257 4.25863 10.7917 4.77593 11.6673C5.29323 12.5429 5.94257 13.4134 6.72398 14.2788C7.50539 15.1442 8.35187 15.9897 9.2634 16.8154C10.1749 17.641 11.0198 18.4083 11.798 19.1173C11.8557 19.1686 11.923 19.1942 12 19.1942C12.0769 19.1942 12.1442 19.1686 12.2019 19.1173C12.9801 18.4083 13.825 17.641 14.7366 16.8154C15.6481 15.9897 16.4946 15.1442 17.276 14.2788C18.0574 13.4134 18.7067 12.5429 19.224 11.6673C19.7413 10.7917 20 9.95257 20 9.15C20 8.15 19.6666 7.31667 19 6.65C18.3333 5.98333 17.5 5.65 16.5 5.65C15.7166 5.65 15.0259 5.84199 14.4279 6.22598C13.8298 6.60994 13.2602 7.21411 12.7192 8.03848C12.6346 8.16668 12.5282 8.26283 12.4 8.32695C12.2718 8.39105 12.1384 8.4231 12 8.4231C11.8615 8.4231 11.7282 8.39105 11.6 8.32695C11.4718 8.26283 11.3654 8.16668 11.2808 8.03848Z" fill="#1C1B1F"/>
</g>
</svg>
