<svg width="24" height="24" viewBox="0 0 24 24" fill="none" xmlns="http://www.w3.org/2000/svg">
<path d="M18.6923 18.5H8.3077C7.80257 18.5 7.375 18.325 7.025 17.975C6.675 17.625 6.5 17.1974 6.5 16.6923V3.30773C6.5 2.8026 6.675 2.37503 7.025 2.02503C7.375 1.67503 7.80257 1.50003 8.3077 1.50003H14.5019C14.7429 1.50003 14.9747 1.54683 15.1971 1.64043C15.4195 1.73401 15.6128 1.86286 15.7769 2.02696L19.973 6.22306C20.1371 6.38717 20.266 6.58045 20.3596 6.80288C20.4532 7.02531 20.5 7.25704 20.5 7.49806V16.6923C20.5 17.1974 20.325 17.625 19.975 17.975C19.625 18.325 19.1974 18.5 18.6923 18.5ZM19 7.49998H15.7115C15.3718 7.49998 15.0849 7.38299 14.851 7.14901C14.617 6.91504 14.5 6.62819 14.5 6.28846V3.00001H8.3077C8.23077 3.00001 8.16024 3.03206 8.09613 3.09616C8.03203 3.16027 7.99998 3.2308 7.99998 3.30773V16.6923C7.99998 16.7692 8.03203 16.8397 8.09613 16.9039C8.16024 16.968 8.23077 17 8.3077 17H18.6923C18.7692 17 18.8397 16.968 18.9038 16.9039C18.9679 16.8397 19 16.7692 19 16.6923V7.49998ZM4.3077 22.5C3.80257 22.5 3.375 22.325 3.025 21.975C2.675 21.625 2.5 21.1974 2.5 20.6923V8.25003C2.5 8.03721 2.5718 7.85901 2.7154 7.71543C2.85898 7.57183 3.03718 7.50003 3.25 7.50003C3.46282 7.50003 3.64102 7.57183 3.7846 7.71543C3.92818 7.85901 3.99998 8.03721 3.99998 8.25003V20.6923C3.99998 20.7692 4.03202 20.8397 4.09613 20.9039C4.16024 20.968 4.23077 21 4.3077 21H13.75C13.9628 21 14.141 21.0718 14.2846 21.2154C14.4282 21.359 14.5 21.5372 14.5 21.75C14.5 21.9628 14.4282 22.141 14.2846 22.2846C14.141 22.4282 13.9628 22.5 13.75 22.5L4.3077 22.5Z" fill="#1C1B1F"/>
</svg>
