<svg width="17" height="18" viewBox="0 0 17 18" fill="none" xmlns="http://www.w3.org/2000/svg">
<mask id="mask0_9131_34932" style="mask-type:alpha" maskUnits="userSpaceOnUse" x="0" y="0" width="17" height="18">
<rect y="0.5" width="17" height="17" fill="#D9D9D9"/>
</mask>
<g mask="url(#mask0_9131_34932)">
<path d="M4.24998 10.4167C4.24998 11.1305 4.42048 11.7948 4.76149 12.4096C5.10249 13.0244 5.57132 13.5203 6.16797 13.8971C6.1153 13.7972 6.07761 13.6976 6.0549 13.5981C6.03219 13.4987 6.02083 13.3945 6.02083 13.2855C6.02083 12.9577 6.08372 12.6489 6.2095 12.3592C6.33527 12.0695 6.51576 11.8071 6.75097 11.5719L8.49998 9.85148L10.2558 11.5719C10.491 11.8071 10.6704 12.0695 10.7939 12.3592C10.9174 12.6489 10.9791 12.9577 10.9791 13.2855C10.9791 13.3945 10.9678 13.4987 10.9451 13.5981C10.9224 13.6976 10.8847 13.7972 10.832 13.8971C11.4286 13.5203 11.8975 13.0244 12.2385 12.4096C12.5795 11.7948 12.75 11.1305 12.75 10.4167C12.75 9.82647 12.6408 9.26866 12.4224 8.74331C12.204 8.21797 11.8882 7.74869 11.475 7.3355C11.2389 7.48897 10.991 7.60408 10.7312 7.68081C10.4715 7.75755 10.2059 7.79592 9.93436 7.79592C9.19787 7.79592 8.56105 7.5539 8.02389 7.06987C7.48674 6.58585 7.17912 5.98513 7.10102 5.26772C6.64061 5.65275 6.23332 6.05482 5.87915 6.47392C5.52498 6.89302 5.22689 7.32029 4.98488 7.75574C4.74286 8.19117 4.55988 8.6332 4.43592 9.08181C4.31196 9.53042 4.24998 9.9754 4.24998 10.4167ZM8.49998 11.3376L7.49061 12.3293C7.36075 12.4591 7.2604 12.6067 7.18957 12.772C7.11873 12.9372 7.08332 13.1084 7.08332 13.2855C7.08332 13.6633 7.22203 13.9879 7.49946 14.2595C7.77689 14.531 8.1104 14.6668 8.49998 14.6668C8.88957 14.6668 9.22307 14.531 9.5005 14.2595C9.77793 13.9879 9.91665 13.6633 9.91665 13.2855C9.91665 13.0966 9.88123 12.9225 9.8104 12.7631C9.73957 12.6037 9.63922 12.4591 9.50936 12.3293L8.49998 11.3376ZM8.1458 3.25854V4.96258C8.1458 5.46387 8.31857 5.88434 8.6641 6.22398C9.00965 6.56362 9.43307 6.73343 9.93436 6.73343C10.1514 6.73343 10.3582 6.69257 10.5548 6.61084C10.7514 6.52911 10.9319 6.40879 11.0963 6.24987L11.4082 5.93521C12.1547 6.41288 12.742 7.05015 13.1702 7.84702C13.5984 8.64389 13.8125 9.50046 13.8125 10.4167C13.8125 11.8988 13.2976 13.1547 12.2677 14.1845C11.238 15.2143 9.98203 15.7292 8.49998 15.7292C7.01794 15.7292 5.76201 15.2143 4.73222 14.1845C3.7024 13.1547 3.1875 11.8988 3.1875 10.4167C3.1875 9.04823 3.63338 7.73146 4.52515 6.46646C5.41692 5.20145 6.6238 4.13214 8.1458 3.25854Z" fill="white"/>
</g>
</svg>
