<svg width="25" height="24" viewBox="0 0 25 24" fill="none" xmlns="http://www.w3.org/2000/svg">
<mask id="mask0_13233_68048" style="mask-type:alpha" maskUnits="userSpaceOnUse" x="0" y="0" width="25" height="24">
<rect x="0.5" width="24" height="24" fill="#D9D9D9"/>
</mask>
<g mask="url(#mask0_13233_68048)">
<path d="M13.4462 12L9.37309 7.92689C9.23462 7.78844 9.16379 7.6144 9.16059 7.40479C9.15737 7.19519 9.2282 7.01795 9.37309 6.87309C9.51795 6.7282 9.69359 6.65576 9.89999 6.65576C10.1064 6.65576 10.282 6.7282 10.4269 6.87309L14.9211 11.3673C15.0147 11.4609 15.0807 11.5596 15.1192 11.6635C15.1577 11.7673 15.1769 11.8795 15.1769 12C15.1769 12.1205 15.1577 12.2327 15.1192 12.3365C15.0807 12.4404 15.0147 12.5391 14.9211 12.6327L10.4269 17.1269C10.2884 17.2654 10.1144 17.3362 9.90479 17.3394C9.69519 17.3426 9.51795 17.2718 9.37309 17.1269C9.2282 16.982 9.15576 16.8064 9.15576 16.6C9.15576 16.3936 9.2282 16.218 9.37309 16.0731L13.4462 12Z" fill="white"/>
</g>
</svg>
