<svg width="24" height="24" viewBox="0 0 24 24" fill="none" xmlns="http://www.w3.org/2000/svg">
<path d="M4.3077 19.5C3.80257 19.5 3.375 19.325 3.025 18.975C2.675 18.625 2.5 18.1974 2.5 17.6923V6.30773C2.5 5.8026 2.675 5.37503 3.025 5.02503C3.375 4.67503 3.80257 4.50003 4.3077 4.50003H9.04998C9.29099 4.50003 9.52272 4.54683 9.74515 4.64043C9.96758 4.73401 10.1609 4.86286 10.325 5.02696L11.798 6.50003H19.6923C20.1974 6.50003 20.625 6.67503 20.975 7.02503C21.325 7.37503 21.5 7.8026 21.5 8.30773V17.6923C21.5 18.1974 21.325 18.625 20.975 18.975C20.625 19.325 20.1974 19.5 19.6923 19.5H4.3077ZM4.3077 18H19.6923C19.782 18 19.8557 17.9712 19.9134 17.9135C19.9711 17.8558 20 17.782 20 17.6923V8.30773C20 8.21798 19.9711 8.14426 19.9134 8.08656C19.8557 8.02886 19.782 8.00001 19.6923 8.00001H11.1846L9.27113 6.08656C9.23908 6.05451 9.20543 6.03206 9.17018 6.01923C9.13491 6.00641 9.09804 6.00001 9.05958 6.00001H4.3077C4.21795 6.00001 4.14423 6.02886 4.08653 6.08656C4.02883 6.14426 3.99998 6.21798 3.99998 6.30773V17.6923C3.99998 17.782 4.02883 17.8558 4.08653 17.9135C4.14423 17.9712 4.21795 18 4.3077 18Z" fill="#1C1B1F"/>
</svg>
