<svg width="24" height="24" viewBox="0 0 24 24" fill="none" xmlns="http://www.w3.org/2000/svg">
<path d="M4.25 19.5C3.7641 19.5 3.35096 19.3298 3.01058 18.9894C2.67019 18.649 2.5 18.2359 2.5 17.75V6.30773C2.5 5.82183 2.67981 5.39907 3.03943 5.03946C3.39904 4.67984 3.8218 4.50003 4.3077 4.50003H9.04997C9.29099 4.50003 9.52272 4.54683 9.74515 4.64043C9.96758 4.73401 10.1608 4.86286 10.3249 5.02696L11.798 6.50003H19.6923C20.1397 6.50003 20.5256 6.64458 20.8499 6.93368C21.1743 7.22278 21.3621 7.57822 21.4134 8.00001H11.1846L9.1846 6.00001H4.3077C4.21795 6.00001 4.14423 6.02886 4.08653 6.08656C4.02883 6.14426 3.99998 6.21798 3.99998 6.30773V18C3.99998 17.9103 4.01761 17.8766 4.05287 17.899C4.08812 17.9215 4.1346 17.9487 4.1923 17.9808L6.13845 11.4827C6.25897 11.0942 6.48076 10.7821 6.80382 10.5462C7.12691 10.3103 7.48588 10.1923 7.88075 10.1923H20.7423C21.3551 10.1923 21.8413 10.4359 22.2009 10.9231C22.5605 11.4103 22.6551 11.9417 22.4846 12.5173L20.7615 18.2577C20.6474 18.6333 20.4336 18.9343 20.1202 19.1606C19.8067 19.3868 19.459 19.5 19.0769 19.5H4.25ZM5.7634 18H19.0385C19.109 18 19.1715 17.9808 19.226 17.9423C19.2805 17.9038 19.3173 17.8493 19.3366 17.7788L21.0404 12.0866C21.0724 11.984 21.0564 11.8926 20.9923 11.8125C20.9282 11.7323 20.8448 11.6923 20.7423 11.6923H7.88075C7.81023 11.6923 7.74773 11.7115 7.69323 11.75C7.63874 11.7884 7.60188 11.8429 7.58265 11.9135L5.7634 18ZM5.7634 18L7.58265 11.9135C7.60188 11.8429 7.61791 11.7884 7.63073 11.75L7.64995 11.6923L7.6163 11.8125C7.59387 11.8926 7.56663 11.984 7.53457 12.0866L5.83073 17.7788C5.81149 17.8493 5.79547 17.9038 5.78265 17.9423L5.7634 18Z" fill="#292735"/>
</svg>
