<svg width="25" height="24" viewBox="0 0 25 24" fill="none" xmlns="http://www.w3.org/2000/svg">
<path d="M5 19.5C4.5141 19.5 4.10096 19.3298 3.76058 18.9894C3.42019 18.649 3.25 18.2359 3.25 17.75V6.3077C3.25 5.8218 3.42981 5.39904 3.78943 5.03943C4.14904 4.67981 4.5718 4.5 5.0577 4.5H9.79997C10.041 4.5 10.2727 4.5468 10.4952 4.6404C10.7176 4.73398 10.9108 4.86283 11.0749 5.02693L12.548 6.5H20.4423C20.8897 6.5 21.2756 6.64455 21.5999 6.93365C21.9243 7.22275 22.1121 7.57819 22.1634 7.99998H11.9346L9.9346 5.99998H5.0577C4.96795 5.99998 4.89423 6.02882 4.83653 6.08652C4.77883 6.14423 4.74998 6.21795 4.74998 6.3077V18C4.74998 17.9102 4.76761 17.8766 4.80287 17.899C4.83812 17.9214 4.8846 17.9487 4.9423 17.9808L6.88845 11.4827C7.00897 11.0942 7.23076 10.782 7.55382 10.5462C7.87691 10.3103 8.23588 10.1923 8.63075 10.1923H21.4923C22.1051 10.1923 22.5913 10.4359 22.9509 10.923C23.3105 11.4102 23.4051 11.9416 23.2346 12.5173L21.5115 18.2577C21.3974 18.6333 21.1836 18.9342 20.8702 19.1605C20.5567 19.3868 20.209 19.5 19.8269 19.5H5ZM6.5134 18H19.7885C19.859 18 19.9215 17.9807 19.976 17.9423C20.0305 17.9038 20.0673 17.8493 20.0866 17.7788L21.7904 12.0865C21.8224 11.9839 21.8064 11.8926 21.7423 11.8125C21.6782 11.7323 21.5948 11.6923 21.4923 11.6923H8.63075C8.56023 11.6923 8.49773 11.7115 8.44323 11.75C8.38874 11.7884 8.35188 11.8429 8.33265 11.9134L6.5134 18ZM6.5134 18L8.33265 11.9134C8.35188 11.8429 8.36791 11.7884 8.38073 11.75L8.39995 11.6923L8.3663 11.8125C8.34387 11.8926 8.31663 11.9839 8.28457 12.0865L6.58073 17.7788C6.56149 17.8493 6.54547 17.9038 6.53265 17.9423L6.5134 18Z" fill="white"/>
</svg>
