<svg width="16" height="17" viewBox="0 0 16 17" fill="none" xmlns="http://www.w3.org/2000/svg">
<path d="M13.0651 2.27889H7.86901C7.71118 2.27953 7.55677 2.22152 7.42537 2.11223L6.49875 1.33764C6.19191 1.08115 5.83093 0.944658 5.46181 0.945561H2.93228C2.43739 0.946223 1.96293 1.19227 1.613 1.62971C1.26307 2.06715 1.06624 2.66026 1.06571 3.27889V4.27889H14.9316C14.9316 2.99223 14.0943 2.27889 13.0651 2.27889ZM13.59 16.9456H2.4073C1.91753 16.9449 1.4476 16.7036 1.09886 16.2737C0.750119 15.8438 0.550506 15.2598 0.543072 14.6476L0.00510139 7.78348V7.77181C-0.0125156 7.49669 0.0156097 7.21999 0.0877075 6.95913C0.159805 6.69826 0.274315 6.45887 0.424031 6.25602C0.573747 6.05317 0.755428 5.89125 0.957643 5.78046C1.15986 5.66966 1.37823 5.61238 1.59901 5.61223H14.4017C14.6224 5.6125 14.8407 5.66986 15.0428 5.78071C15.245 5.89155 15.4266 6.05349 15.5762 6.25633C15.7258 6.45916 15.8403 6.69851 15.9123 6.95932C15.9844 7.22013 16.0125 7.49676 15.9949 7.77181V7.78348L15.4543 14.6476C15.4468 15.2598 15.2472 15.8438 14.8985 16.2737C14.5497 16.7036 14.0798 16.9449 13.59 16.9456Z" fill="#292735"/>
</svg>
