<svg width="16" height="17" viewBox="0 0 16 17" fill="none" xmlns="http://www.w3.org/2000/svg">
<path d="M13.0651 2.27865H7.86901C7.71118 2.27928 7.55677 2.22127 7.42537 2.11198L6.49875 1.3374C6.19191 1.08091 5.83093 0.944414 5.46181 0.945317H2.93228C2.43739 0.945979 1.96293 1.19202 1.613 1.62947C1.26307 2.06691 1.06624 2.66001 1.06571 3.27865V4.27865H14.9316C14.9316 2.99198 14.0943 2.27865 13.0651 2.27865ZM13.59 16.9453H2.4073C1.91753 16.9446 1.4476 16.7033 1.09886 16.2734C0.750119 15.8436 0.550506 15.2596 0.543072 14.6474L0.00510139 7.78323V7.77157C-0.0125156 7.49645 0.0156097 7.21975 0.0877075 6.95888C0.159805 6.69801 0.274315 6.45862 0.424031 6.25578C0.573747 6.05293 0.755428 5.89101 0.957643 5.78021C1.15986 5.66941 1.37823 5.61214 1.59901 5.61198H14.4017C14.6224 5.61225 14.8407 5.66961 15.0428 5.78046C15.245 5.89131 15.4266 6.05324 15.5762 6.25608C15.7258 6.45892 15.8403 6.69827 15.9123 6.95908C15.9844 7.21989 16.0125 7.49652 15.9949 7.77157V7.78323L15.4543 14.6474C15.4468 15.2596 15.2472 15.8436 14.8985 16.2734C14.5497 16.7033 14.0798 16.9446 13.59 16.9453Z" fill="white"/>
</svg>
