<svg width="24" height="24" viewBox="0 0 24 24" fill="none" xmlns="http://www.w3.org/2000/svg">
<path d="M10.0577 18.75C9.84518 18.75 9.66705 18.6781 9.5233 18.5343C9.37957 18.3905 9.3077 18.2123 9.3077 17.9997C9.3077 17.7871 9.37957 17.609 9.5233 17.4654C9.66705 17.3218 9.84518 17.25 10.0577 17.25H19.75C19.9625 17.25 20.1406 17.3219 20.2843 17.4657C20.4281 17.6095 20.5 17.7877 20.5 18.0003C20.5 18.2129 20.4281 18.391 20.2843 18.5346C20.1406 18.6782 19.9625 18.75 19.75 18.75H10.0577ZM10.0577 12.75C9.84518 12.75 9.66705 12.6781 9.5233 12.5343C9.37957 12.3905 9.3077 12.2123 9.3077 11.9997C9.3077 11.7871 9.37957 11.609 9.5233 11.4654C9.66705 11.3218 9.84518 11.25 10.0577 11.25H19.75C19.9625 11.25 20.1406 11.3219 20.2843 11.4657C20.4281 11.6095 20.5 11.7877 20.5 12.0003C20.5 12.2129 20.4281 12.391 20.2843 12.5346C20.1406 12.6782 19.9625 12.75 19.75 12.75H10.0577ZM10.0577 6.74998C9.84518 6.74998 9.66705 6.67808 9.5233 6.53428C9.37957 6.39046 9.3077 6.21226 9.3077 5.99968C9.3077 5.78708 9.37957 5.60899 9.5233 5.4654C9.66705 5.32182 9.84518 5.25003 10.0577 5.25003H19.75C19.9625 5.25003 20.1406 5.32193 20.2843 5.46573C20.4281 5.60955 20.5 5.78774 20.5 6.00033C20.5 6.21293 20.4281 6.39102 20.2843 6.5346C20.1406 6.67819 19.9625 6.74998 19.75 6.74998H10.0577ZM5.16345 19.6634C4.706 19.6634 4.3144 19.5006 3.98865 19.1748C3.66288 18.8491 3.5 18.4575 3.5 18C3.5 17.5426 3.66288 17.151 3.98865 16.8252C4.3144 16.4995 4.706 16.3366 5.16345 16.3366C5.6209 16.3366 6.0125 16.4995 6.33825 16.8252C6.664 17.151 6.82687 17.5426 6.82687 18C6.82687 18.4575 6.664 18.8491 6.33825 19.1748C6.0125 19.5006 5.6209 19.6634 5.16345 19.6634ZM5.16345 13.6634C4.706 13.6634 4.3144 13.5006 3.98865 13.1748C3.66288 12.8491 3.5 12.4575 3.5 12C3.5 11.5426 3.66288 11.151 3.98865 10.8252C4.3144 10.4995 4.706 10.3366 5.16345 10.3366C5.6209 10.3366 6.0125 10.4995 6.33825 10.8252C6.664 11.151 6.82687 11.5426 6.82687 12C6.82687 12.4575 6.664 12.8491 6.33825 13.1748C6.0125 13.5006 5.6209 13.6634 5.16345 13.6634ZM5.16345 7.66343C4.706 7.66343 4.3144 7.50055 3.98865 7.1748C3.66288 6.84905 3.5 6.45745 3.5 6C3.5 5.54255 3.66288 5.15095 3.98865 4.8252C4.3144 4.49945 4.706 4.33658 5.16345 4.33658C5.6209 4.33658 6.0125 4.49945 6.33825 4.8252C6.664 5.15095 6.82687 5.54255 6.82687 6C6.82687 6.45745 6.664 6.84905 6.33825 7.1748C6.0125 7.50055 5.6209 7.66343 5.16345 7.66343Z" fill="#1C1B1F"/>
</svg>
