<svg width="24" height="24" viewBox="0 0 24 24" fill="none" xmlns="http://www.w3.org/2000/svg">
<path d="M8.5 15.5H5.25C5.0375 15.5 4.85938 15.4281 4.71563 15.2843C4.57188 15.1404 4.5 14.9622 4.5 14.7497C4.5 14.5371 4.57188 14.359 4.71563 14.2154C4.85938 14.0718 5.0375 14 5.25 14H8.5V10H5.25C5.0375 10 4.85938 9.9281 4.71563 9.78428C4.57188 9.64048 4.5 9.46228 4.5 9.24968C4.5 9.0371 4.57188 8.85901 4.71563 8.71543C4.85938 8.57183 5.0375 8.50003 5.25 8.50003H8.5V5.25003C8.5 5.03753 8.57191 4.85941 8.71572 4.71566C8.85954 4.57191 9.03774 4.50003 9.25033 4.50003C9.46292 4.50003 9.64102 4.57191 9.7846 4.71566C9.92818 4.85941 9.99997 5.03753 9.99997 5.25003V8.50003H14V5.25003C14 5.03753 14.0719 4.85941 14.2157 4.71566C14.3595 4.57191 14.5377 4.50003 14.7503 4.50003C14.9629 4.50003 15.141 4.57191 15.2845 4.71566C15.4282 4.85941 15.5 5.03753 15.5 5.25003V8.50003H18.75C18.9625 8.50003 19.1406 8.57194 19.2843 8.71576C19.4281 8.85957 19.5 9.03777 19.5 9.25036C19.5 9.46296 19.4281 9.64105 19.2843 9.78463C19.1406 9.92821 18.9625 10 18.75 10H15.5V14H18.75C18.9625 14 19.1406 14.0719 19.2843 14.2157C19.4281 14.3595 19.5 14.5377 19.5 14.7503C19.5 14.9629 19.4281 15.141 19.2843 15.2846C19.1406 15.4282 18.9625 15.5 18.75 15.5H15.5V18.75C15.5 18.9625 15.428 19.1406 15.2842 19.2844C15.1404 19.4281 14.9622 19.5 14.7496 19.5C14.537 19.5 14.3589 19.4281 14.2154 19.2844C14.0718 19.1406 14 18.9625 14 18.75V15.5H9.99997V18.75C9.99997 18.9625 9.92807 19.1406 9.78425 19.2844C9.64045 19.4281 9.46225 19.5 9.24965 19.5C9.03707 19.5 8.85898 19.4281 8.7154 19.2844C8.5718 19.1406 8.5 18.9625 8.5 18.75V15.5ZM9.99997 14H14V10H9.99997V14Z" fill="#1C1B1F"/>
</svg>
