<svg width="24" height="24" viewBox="0 0 24 24" fill="none" xmlns="http://www.w3.org/2000/svg">
<path d="M4.99997 11C4.59101 11 4.23877 10.8523 3.94327 10.5568C3.64776 10.2612 3.5 9.909 3.5 9.50003V5.00001C3.5 4.59104 3.64776 4.23881 3.94327 3.94331C4.23877 3.64779 4.59101 3.50003 4.99997 3.50003H9.5C9.90897 3.50003 10.2612 3.64779 10.5567 3.94331C10.8522 4.23881 11 4.59104 11 5.00001V9.50003C11 9.909 10.8522 10.2612 10.5567 10.5568C10.2612 10.8523 9.90897 11 9.5 11H4.99997ZM4.99997 20.5C4.59101 20.5 4.23877 20.3522 3.94327 20.0567C3.64776 19.7612 3.5 19.409 3.5 19V14.5C3.5 14.091 3.64776 13.7388 3.94327 13.4433C4.23877 13.1478 4.59101 13 4.99997 13H9.5C9.90897 13 10.2612 13.1478 10.5567 13.4433C10.8522 13.7388 11 14.091 11 14.5V19C11 19.409 10.8522 19.7612 10.5567 20.0567C10.2612 20.3522 9.90897 20.5 9.5 20.5H4.99997ZM14.5 11C14.091 11 13.7387 10.8523 13.4432 10.5568C13.1477 10.2612 13 9.909 13 9.50003V5.00001C13 4.59104 13.1477 4.23881 13.4432 3.94331C13.7387 3.64779 14.091 3.50003 14.5 3.50003H19C19.4089 3.50003 19.7612 3.64779 20.0567 3.94331C20.3522 4.23881 20.5 4.59104 20.5 5.00001V9.50003C20.5 9.909 20.3522 10.2612 20.0567 10.5568C19.7612 10.8523 19.4089 11 19 11H14.5ZM14.5 20.5C14.091 20.5 13.7387 20.3522 13.4432 20.0567C13.1477 19.7612 13 19.409 13 19V14.5C13 14.091 13.1477 13.7388 13.4432 13.4433C13.7387 13.1478 14.091 13 14.5 13H19C19.4089 13 19.7612 13.1478 20.0567 13.4433C20.3522 13.7388 20.5 14.091 20.5 14.5V19C20.5 19.409 20.3522 19.7612 20.0567 20.0567C19.7612 20.3522 19.4089 20.5 19 20.5H14.5ZM4.99997 9.50003H9.5V5.00001H4.99997V9.50003ZM14.5 9.50003H19V5.00001H14.5V9.50003ZM14.5 19H19V14.5H14.5V19ZM4.99997 19H9.5V14.5H4.99997V19Z" fill="#1C1B1F"/>
</svg>
