<svg width="24" height="24" viewBox="0 0 24 24" fill="none" xmlns="http://www.w3.org/2000/svg">
<path d="M5.3077 19.5C4.80257 19.5 4.375 19.325 4.025 18.975C3.675 18.625 3.5 18.1974 3.5 17.6923V11C3.5 9.83077 3.72308 8.73078 4.16925 7.70003C4.6154 6.66926 5.22437 5.76798 5.99615 4.99618C6.76795 4.2244 7.66923 3.61543 8.7 3.16928C9.73075 2.72311 10.8307 2.50003 12 2.50003C13.1692 2.50003 14.2692 2.72311 15.3 3.16928C16.3307 3.61543 17.232 4.2244 18.0038 4.99618C18.7756 5.76798 19.3846 6.66926 19.8307 7.70003C20.2769 8.73078 20.5 9.83077 20.5 11V20.3846C20.5 20.8897 20.325 21.3173 19.975 21.6673C19.625 22.0173 19.1974 22.1923 18.6923 22.1923H12.75C12.5371 22.1923 12.3589 22.1205 12.2154 21.9769C12.0718 21.8333 12 21.6551 12 21.4423C12 21.2294 12.0718 21.0512 12.2154 20.9077C12.3589 20.7641 12.5371 20.6923 12.75 20.6923H18.6923C18.782 20.6923 18.8557 20.6634 18.9134 20.6057C18.9711 20.548 19 20.4743 19 20.3846V19.5H17.2692C16.7705 19.5 16.3446 19.3233 15.9914 18.9701C15.6382 18.6169 15.4616 18.191 15.4616 17.6923V14.2308C15.4616 13.7321 15.6382 13.3061 15.9914 12.9529C16.3446 12.5997 16.7705 12.4231 17.2692 12.4231H19V11C19 9.06667 18.3166 7.41667 16.95 6.05001C15.5833 4.68334 13.9333 4.00001 12 4.00001C10.0666 4.00001 8.41664 4.68334 7.04998 6.05001C5.68331 7.41667 4.99997 9.06667 4.99997 11V12.4231H6.73073C7.22944 12.4231 7.6554 12.5997 8.0086 12.9529C8.3618 13.3061 8.5384 13.7321 8.5384 14.2308V17.6923C8.5384 18.191 8.3618 18.617 8.0086 18.9702C7.6554 19.3234 7.22944 19.5 6.73073 19.5H5.3077ZM5.3077 18H6.73073C6.82048 18 6.8942 17.9712 6.9519 17.9135C7.0096 17.8558 7.03845 17.782 7.03845 17.6923V14.2308C7.03845 14.141 7.0096 14.0673 6.9519 14.0096C6.8942 13.9519 6.82048 13.9231 6.73073 13.9231H4.99997V17.6923C4.99997 17.782 5.02883 17.8558 5.08653 17.9135C5.14423 17.9712 5.21795 18 5.3077 18ZM17.2692 18H19V13.9231H17.2692C17.1795 13.9231 17.1058 13.9519 17.0481 14.0096C16.9904 14.0673 16.9615 14.141 16.9615 14.2308V17.6923C16.9615 17.782 16.9904 17.8558 17.0481 17.9135C17.1058 17.9712 17.1795 18 17.2692 18ZM17.2692 13.9231H16.9615H19H17.2692Z" fill="#292735"/>
</svg>
