<svg width="19" height="20" viewBox="0 0 19 20" fill="none" xmlns="http://www.w3.org/2000/svg">
<g id="headset_mic">
<path id="Vector" d="M4.2016 15.6155C3.80171 15.6155 3.46322 15.477 3.18613 15.1999C2.90905 14.9228 2.77051 14.5843 2.77051 14.1844V8.88637C2.77051 7.96073 2.94712 7.0899 3.30033 6.27389C3.65353 5.45787 4.13563 4.74435 4.74663 4.13335C5.35764 3.52235 6.07115 3.04025 6.88717 2.68705C7.70319 2.33383 8.57401 2.15723 9.49966 2.15723C10.4253 2.15723 11.2961 2.33383 12.1121 2.68705C12.9282 3.04025 13.6417 3.52235 14.2527 4.13335C14.8637 4.74435 15.3458 5.45787 15.699 6.27389C16.0522 7.0899 16.2288 7.96073 16.2288 8.88637V16.3158C16.2288 16.7157 16.0903 17.0542 15.8132 17.3313C15.5361 17.6084 15.1976 17.7469 14.7977 17.7469H10.0934C9.92491 17.7469 9.78383 17.6901 9.67016 17.5764C9.55649 17.4627 9.49966 17.3216 9.49966 17.1532C9.49966 16.9847 9.55649 16.8436 9.67016 16.7299C9.78383 16.6162 9.92491 16.5594 10.0934 16.5594H14.7977C14.8688 16.5594 14.9271 16.5366 14.9728 16.4909C15.0185 16.4452 15.0413 16.3869 15.0413 16.3158V15.6155H13.6711C13.2763 15.6155 12.9391 15.4757 12.6595 15.1961C12.3799 14.9164 12.2401 14.5792 12.2401 14.1844V11.4441C12.2401 11.0492 12.3799 10.712 12.6595 10.4324C12.9391 10.1528 13.2763 10.013 13.6711 10.013H15.0413V8.88637C15.0413 7.35582 14.5004 6.04957 13.4184 4.96762C12.3365 3.88568 11.0302 3.34471 9.49966 3.34471C7.9691 3.34471 6.66285 3.88568 5.5809 4.96762C4.49896 6.04957 3.95799 7.35582 3.95799 8.88637V10.013H5.32817C5.72298 10.013 6.0602 10.1528 6.33982 10.4324C6.61943 10.712 6.75924 11.0493 6.75924 11.4441V14.1844C6.75924 14.5792 6.61943 14.9165 6.33982 15.1961C6.0602 15.4757 5.72298 15.6155 5.32817 15.6155H4.2016ZM4.2016 14.428H5.32817C5.39922 14.428 5.45758 14.4052 5.50326 14.3595C5.54894 14.3138 5.57178 14.2555 5.57178 14.1844V11.4441C5.57178 11.373 5.54894 11.3147 5.50326 11.269C5.45758 11.2233 5.39922 11.2005 5.32817 11.2005H3.95799V14.1844C3.95799 14.2555 3.98083 14.3138 4.02651 14.3595C4.07219 14.4052 4.13055 14.428 4.2016 14.428ZM13.6711 14.428H15.0413V11.2005H13.6711C13.6001 11.2005 13.5417 11.2233 13.496 11.269C13.4504 11.3147 13.4275 11.373 13.4275 11.4441V14.1844C13.4275 14.2555 13.4504 14.3138 13.496 14.3595C13.5417 14.4052 13.6001 14.428 13.6711 14.428ZM13.6711 11.2005H13.4275H15.0413H13.6711Z" fill="white"/>
</g>
</svg>
