<svg width="20" height="17" viewBox="0 0 20 17" fill="none" xmlns="http://www.w3.org/2000/svg">
<path d="M9.99035 16.7095C9.77625 16.7095 9.56119 16.671 9.34518 16.5941C9.12914 16.5171 8.93908 16.3966 8.77498 16.2325L7.33848 14.9268C5.56539 13.3101 3.98238 11.722 2.58943 10.1624C1.19648 8.60274 0.5 6.93191 0.5 5.14988C0.5 3.73066 0.978525 2.54253 1.93558 1.58548C2.89263 0.628428 4.08076 0.149902 5.49998 0.149902C6.30638 0.149902 7.10285 0.335803 7.8894 0.707603C8.67593 1.0794 9.37946 1.68325 9.99998 2.51915C10.6205 1.68325 11.324 1.0794 12.1105 0.707603C12.8971 0.335803 13.6936 0.149902 14.5 0.149902C15.9192 0.149902 17.1073 0.628428 18.0644 1.58548C19.0214 2.54253 19.5 3.73066 19.5 5.14988C19.5 6.95114 18.7916 8.64056 17.375 10.2181C15.9583 11.7957 14.3788 13.3704 12.6365 14.9422L11.2154 16.2325C11.0513 16.3966 10.8596 16.5171 10.6404 16.5941C10.4211 16.671 10.2045 16.7095 9.99035 16.7095Z" fill="#C33032"/>
</svg>
