<svg width="24" height="24" viewBox="0 0 24 24" fill="none" xmlns="http://www.w3.org/2000/svg">
<path d="M7.90382 20H16.0961V17C16.0961 15.8615 15.6981 14.8878 14.9019 14.0789C14.1058 13.2699 13.1384 12.8654 12 12.8654C10.8615 12.8654 9.8942 13.2702 9.09805 14.0799C8.3019 14.8896 7.90382 15.863 7.90382 17V20ZM12 11.1346C13.1384 11.1346 14.1058 10.7298 14.9019 9.92008C15.6981 9.11038 16.0961 8.13702 16.0961 7.00001V4.00001H7.90382V7.00001C7.90382 8.13847 8.3019 9.11219 9.09805 9.92116C9.8942 10.7301 10.8615 11.1346 12 11.1346ZM5.25 21.5C5.0375 21.5 4.85938 21.4281 4.71563 21.2843C4.57188 21.1404 4.5 20.9622 4.5 20.7497C4.5 20.5371 4.57188 20.359 4.71563 20.2154C4.85938 20.0718 5.0375 20 5.25 20H6.40385V17C6.40385 15.8744 6.71187 14.8497 7.3279 13.926C7.94393 13.0022 8.76029 12.3603 9.77697 12C8.76029 11.6334 7.94393 10.9898 7.3279 10.0693C6.71187 9.14874 6.40385 8.12566 6.40385 7.00001V4.00001H5.25C5.0375 4.00001 4.85938 3.9281 4.71563 3.78428C4.57188 3.64048 4.5 3.46228 4.5 3.24968C4.5 3.0371 4.57188 2.85901 4.71563 2.71543C4.85938 2.57183 5.0375 2.50003 5.25 2.50003H18.75C18.9625 2.50003 19.1406 2.57194 19.2843 2.71576C19.4281 2.85957 19.5 3.03777 19.5 3.25036C19.5 3.46296 19.4281 3.64105 19.2843 3.78463C19.1406 3.92821 18.9625 4.00001 18.75 4.00001H17.5961V7.00001C17.5961 8.12566 17.2881 9.14874 16.672 10.0693C16.056 10.9898 15.2397 11.6334 14.223 12C15.2397 12.3603 16.056 13.0022 16.672 13.926C17.2881 14.8497 17.5961 15.8744 17.5961 17V20H18.75C18.9625 20 19.1406 20.0719 19.2843 20.2157C19.4281 20.3595 19.5 20.5377 19.5 20.7503C19.5 20.9629 19.4281 21.141 19.2843 21.2846C19.1406 21.4282 18.9625 21.5 18.75 21.5H5.25Z" fill="#292735"/>
</svg>
