<svg width="17" height="17" viewBox="0 0 17 17" fill="none" xmlns="http://www.w3.org/2000/svg">
<rect width="17" height="17" rx="8.5" fill="#01B574"/>
<mask id="mask0_13333_925" style="mask-type:alpha" maskUnits="userSpaceOnUse" x="1" y="1" width="15" height="15">
<rect x="1" y="1" width="15" height="15" fill="#D9D9D9"/>
</mask>
<g mask="url(#mask0_13333_925)">
<path d="M7.61297 9.84134L6.16103 8.38942C6.0745 8.30288 5.96573 8.25861 5.83472 8.25661C5.70371 8.2546 5.59293 8.29887 5.50239 8.38942C5.41185 8.47996 5.36658 8.58974 5.36658 8.71874C5.36658 8.84774 5.41185 8.95751 5.50239 9.04805L7.21753 10.7632C7.33051 10.8762 7.46232 10.9327 7.61297 10.9327C7.7636 10.9327 7.89541 10.8762 8.00839 10.7632L11.4855 7.28603C11.5721 7.1995 11.6164 7.09073 11.6184 6.95972C11.6204 6.82871 11.5761 6.71793 11.4855 6.62739C11.395 6.53685 11.2852 6.49158 11.1562 6.49158C11.0272 6.49158 10.9175 6.53685 10.8269 6.62739L7.61297 9.84134ZM8.50103 14.4375C7.67982 14.4375 6.90793 14.2816 6.18534 13.97C5.46275 13.6583 4.8342 13.2353 4.29969 12.7011C3.76517 12.1668 3.34201 11.5385 3.0302 10.8162C2.7184 10.094 2.5625 9.32224 2.5625 8.50103C2.5625 7.67982 2.71833 6.90793 3.03 6.18534C3.34167 5.46275 3.76464 4.8342 4.29891 4.29969C4.83319 3.76517 5.46146 3.34201 6.18373 3.0302C6.90599 2.7184 7.67773 2.5625 8.49894 2.5625C9.32015 2.5625 10.092 2.71833 10.8146 3.03C11.5372 3.34167 12.1658 3.76464 12.7003 4.29891C13.2348 4.83319 13.658 5.46146 13.9698 6.18374C14.2816 6.906 14.4375 7.67773 14.4375 8.49894C14.4375 9.32015 14.2816 10.092 13.97 10.8146C13.6583 11.5372 13.2353 12.1658 12.7011 12.7003C12.1668 13.2348 11.5385 13.658 10.8162 13.9698C10.094 14.2816 9.32224 14.4375 8.50103 14.4375ZM8.49998 13.5C9.89582 13.5 11.0781 13.0156 12.0469 12.0469C13.0156 11.0781 13.5 9.89582 13.5 8.49999C13.5 7.10415 13.0156 5.92186 12.0469 4.95311C11.0781 3.98436 9.89582 3.49998 8.49998 3.49998C7.10415 3.49998 5.92186 3.98436 4.95311 4.95311C3.98436 5.92186 3.49998 7.10415 3.49998 8.49999C3.49998 9.89582 3.98436 11.0781 4.95311 12.0469C5.92186 13.0156 7.10415 13.5 8.49998 13.5Z" fill="white"/>
</g>
</svg>
