<svg width="24" height="24" viewBox="0 0 24 24" fill="none" xmlns="http://www.w3.org/2000/svg">
<path d="M6.544 4.99968C6.46388 4.91794 6.36845 4.85278 6.26315 4.80794C6.15784 4.76309 6.04473 4.73944 5.93028 4.73832C5.81584 4.73721 5.70229 4.75866 5.59613 4.80144C5.48997 4.84423 5.39329 4.90751 5.3116 4.98768C4.38754 5.90637 3.65453 6.99895 3.15487 8.20237C2.65522 9.4058 2.39879 10.6962 2.4004 11.9993C2.3989 13.3523 2.6755 14.6912 3.21304 15.9329C3.75058 17.1745 4.53758 18.2925 5.5252 19.2173C5.69142 19.3709 5.91099 19.4538 6.13728 19.4482C6.36358 19.4426 6.57878 19.349 6.7372 19.1873C7.1164 18.8081 7.0696 18.2045 6.7048 17.8553C5.9122 17.0999 5.28147 16.1913 4.85094 15.1846C4.42041 14.1779 4.19908 13.0942 4.2004 11.9993C4.2004 9.78408 5.0896 7.77528 6.532 6.31368C6.88 5.95968 6.916 5.37168 6.544 4.99968ZM8.6572 7.11528C8.49916 6.95266 8.2831 6.85933 8.05637 6.85573C7.82963 6.85213 7.61072 6.93856 7.4476 7.09608C6.79834 7.73682 6.28299 8.50029 5.93153 9.34206C5.58007 10.1838 5.39953 11.0871 5.4004 11.9993C5.4004 14.0297 6.2764 15.8549 7.672 17.1173C7.83685 17.2626 8.05131 17.339 8.27092 17.3305C8.49054 17.322 8.69846 17.2293 8.8516 17.0717C9.2452 16.6781 9.172 16.0589 8.8024 15.7109C8.29577 15.2346 7.89221 14.6595 7.61666 14.0211C7.34111 13.3827 7.19944 12.6946 7.2004 11.9993C7.2004 10.6193 7.7488 9.36648 8.6404 8.44728C8.9836 8.09448 9.04 7.49688 8.6572 7.11528ZM15.3436 7.11408C15.5016 6.95146 15.7177 6.85813 15.9444 6.85453C16.1712 6.85093 16.3901 6.93736 16.5532 7.09488C17.2026 7.73577 17.718 8.49943 18.0695 9.34141C18.421 10.1834 18.6014 11.0869 18.6004 11.9993C18.6004 14.0297 17.7244 15.8549 16.3288 17.1173C16.164 17.2626 15.9495 17.339 15.7299 17.3305C15.5103 17.322 15.3023 17.2293 15.1492 17.0717C14.7556 16.6781 14.8288 16.0589 15.1984 15.7109C15.705 15.2346 16.1086 14.6595 16.3841 14.0211C16.6597 13.3827 16.8014 12.6946 16.8004 11.9993C16.8004 10.6193 16.252 9.36648 15.3604 8.44728C15.0172 8.09448 14.9608 7.49568 15.3436 7.11408ZM17.4568 4.99968C17.5369 4.91794 17.6323 4.85278 17.7377 4.80794C17.843 4.76309 17.9561 4.73944 18.0705 4.73832C18.185 4.73721 18.2985 4.75866 18.4047 4.80144C18.5108 4.84423 18.6075 4.90751 18.6892 4.98768C19.6133 5.90637 20.3463 6.99895 20.8459 8.20237C21.3456 9.4058 21.602 10.6962 21.6004 11.9993C21.6019 13.3523 21.3253 14.6912 20.7878 15.9329C20.2502 17.1745 19.4632 18.2925 18.4756 19.2173C18.3094 19.3709 18.0898 19.4538 17.8635 19.4482C17.6372 19.4426 17.422 19.349 17.2636 19.1873C16.8844 18.8081 16.9312 18.2045 17.2972 17.8553C18.0896 17.0998 18.7201 16.1911 19.1504 15.1844C19.5807 14.1778 19.8019 13.0941 19.8004 11.9993C19.8004 9.78408 18.9112 7.77528 17.4688 6.31368C17.1208 5.95968 17.0848 5.37168 17.4568 4.99968ZM12.0004 10.1993C11.523 10.1993 11.0652 10.3889 10.7276 10.7265C10.39 11.0641 10.2004 11.5219 10.2004 11.9993C10.2004 12.4767 10.39 12.9345 10.7276 13.2721C11.0652 13.6096 11.523 13.7993 12.0004 13.7993C12.4778 13.7993 12.9356 13.6096 13.2732 13.2721C13.6108 12.9345 13.8004 12.4767 13.8004 11.9993C13.8004 11.5219 13.6108 11.0641 13.2732 10.7265C12.9356 10.3889 12.4778 10.1993 12.0004 10.1993Z" fill="#EB5757"/>
</svg>
