<svg width="17" height="18" viewBox="0 0 17 18" fill="none" xmlns="http://www.w3.org/2000/svg">
<mask id="mask0_11346_25499" style="mask-type:alpha" maskUnits="userSpaceOnUse" x="0" y="0" width="17" height="18">
<rect y="0.5" width="17" height="17" fill="#D9D9D9"/>
</mask>
<g mask="url(#mask0_11346_25499)">
<path d="M4.24998 10.417C4.24998 11.1308 4.42048 11.7951 4.76149 12.4099C5.10249 13.0247 5.57132 13.5205 6.16797 13.8974C6.1153 13.7975 6.07761 13.6978 6.0549 13.5984C6.03219 13.4989 6.02083 13.3947 6.02083 13.2857C6.02083 12.9579 6.08372 12.6492 6.2095 12.3595C6.33527 12.0698 6.51576 11.8073 6.75097 11.5721L8.49998 9.85173L10.2558 11.5721C10.491 11.8073 10.6704 12.0698 10.7939 12.3595C10.9174 12.6492 10.9791 12.9579 10.9791 13.2857C10.9791 13.3947 10.9678 13.4989 10.9451 13.5984C10.9224 13.6978 10.8847 13.7975 10.832 13.8974C11.4286 13.5205 11.8975 13.0247 12.2385 12.4099C12.5795 11.7951 12.75 11.1308 12.75 10.417C12.75 9.82672 12.6408 9.2689 12.4224 8.74356C12.204 8.21821 11.8882 7.74894 11.475 7.33574C11.2389 7.48922 10.991 7.60432 10.7312 7.68106C10.4715 7.75779 10.2059 7.79616 9.93436 7.79616C9.19787 7.79616 8.56105 7.55415 8.02389 7.07012C7.48674 6.58609 7.17912 5.98537 7.10102 5.26796C6.64061 5.653 6.23332 6.05507 5.87915 6.47416C5.52498 6.89326 5.22689 7.32053 4.98488 7.75598C4.74286 8.19142 4.55988 8.63344 4.43592 9.08205C4.31196 9.53066 4.24998 9.97564 4.24998 10.417ZM8.49998 11.3378L7.49061 12.3295C7.36075 12.4594 7.2604 12.6069 7.18957 12.7722C7.11873 12.9375 7.08332 13.1087 7.08332 13.2857C7.08332 13.6635 7.22203 13.9882 7.49946 14.2597C7.77689 14.5312 8.1104 14.667 8.49998 14.667C8.88957 14.667 9.22307 14.5312 9.5005 14.2597C9.77793 13.9882 9.91665 13.6635 9.91665 13.2857C9.91665 13.0969 9.88123 12.9227 9.8104 12.7633C9.73957 12.604 9.63922 12.4594 9.50936 12.3295L8.49998 11.3378ZM8.1458 3.25879V4.96283C8.1458 5.46411 8.31857 5.88458 8.6641 6.22423C9.00965 6.56386 9.43307 6.73368 9.93436 6.73368C10.1514 6.73368 10.3582 6.69281 10.5548 6.61108C10.7514 6.52935 10.9319 6.40903 11.0963 6.25012L11.4082 5.93546C12.1547 6.41312 12.742 7.05039 13.1702 7.84727C13.5984 8.64413 13.8125 9.50071 13.8125 10.417C13.8125 11.899 13.2976 13.155 12.2677 14.1848C11.238 15.2146 9.98203 15.7295 8.49998 15.7295C7.01794 15.7295 5.76201 15.2146 4.73222 14.1848C3.7024 13.155 3.1875 11.899 3.1875 10.417C3.1875 9.04847 3.63338 7.73171 4.52515 6.46671C5.41692 5.20169 6.6238 4.13239 8.1458 3.25879Z" fill="#15151F"/>
</g>
</svg>