<svg width="24" height="24" viewBox="0 0 24 24" fill="none" xmlns="http://www.w3.org/2000/svg">
<g clip-path="url(#clip0_12668_61649)">
<path d="M12 16.9091C10.6378 16.9091 9.47907 16.4315 8.5238 15.4762C7.56852 14.5209 7.09089 13.3622 7.09089 12C7.09089 10.6378 7.56852 9.47907 8.5238 8.5238C9.47907 7.56852 10.6378 7.09089 12 7.09089C13.3622 7.09089 14.5209 7.56852 15.4762 8.5238C16.4315 9.47907 16.9091 10.6378 16.9091 12C16.9091 13.3622 16.4315 14.5209 15.4762 15.4762C14.5209 16.4315 13.3622 16.9091 12 16.9091ZM1.09089 12.8182C0.859069 12.8182 0.664796 12.7397 0.508069 12.5829C0.35116 12.4259 0.272705 12.2316 0.272705 11.9998C0.272705 11.7677 0.35116 11.5734 0.508069 11.4169C0.664796 11.2601 0.859069 11.1818 1.09089 11.1818H3.54543C3.77725 11.1818 3.97162 11.2602 4.12852 11.4172C4.28525 11.5741 4.36361 11.7685 4.36361 12.0003C4.36361 12.2322 4.28525 12.4265 4.12852 12.5831C3.97162 12.7398 3.77725 12.8182 3.54543 12.8182H1.09089ZM20.4545 12.8182C20.2227 12.8182 20.0283 12.7397 19.8714 12.5829C19.7147 12.4259 19.6363 12.2316 19.6363 11.9998C19.6363 11.7677 19.7147 11.5734 19.8714 11.4169C20.0283 11.2601 20.2227 11.1818 20.4545 11.1818H22.9091C23.1409 11.1818 23.3352 11.2602 23.4919 11.4172C23.6488 11.5741 23.7273 11.7685 23.7273 12.0003C23.7273 12.2322 23.6488 12.4265 23.4919 12.5831C23.3352 12.7398 23.1409 12.8182 22.9091 12.8182H20.4545ZM11.9998 4.36361C11.7677 4.36361 11.5734 4.28525 11.4169 4.12852C11.2601 3.97162 11.1818 3.77725 11.1818 3.54543V1.09089C11.1818 0.859069 11.2602 0.664796 11.4172 0.508069C11.5741 0.35116 11.7685 0.272705 12.0003 0.272705C12.2322 0.272705 12.4265 0.35116 12.5831 0.508069C12.7398 0.664796 12.8182 0.859069 12.8182 1.09089V3.54543C12.8182 3.77725 12.7397 3.97162 12.5829 4.12852C12.4259 4.28525 12.2316 4.36361 11.9998 4.36361ZM11.9998 23.7273C11.7677 23.7273 11.5734 23.6488 11.4169 23.4919C11.2601 23.3352 11.1818 23.1409 11.1818 22.9091V20.4545C11.1818 20.2227 11.2602 20.0283 11.4172 19.8714C11.5741 19.7147 11.7685 19.6363 12.0003 19.6363C12.2322 19.6363 12.4265 19.7147 12.5831 19.8714C12.7398 20.0283 12.8182 20.2227 12.8182 20.4545V22.9091C12.8182 23.1409 12.7397 23.3352 12.5829 23.4919C12.4259 23.6488 12.2316 23.7273 11.9998 23.7273ZM5.4608 6.58961L4.08871 5.25516C3.92652 5.10407 3.84825 4.91425 3.85389 4.68571C3.85953 4.45697 3.93889 4.25798 4.09198 4.08871C4.25907 3.91961 4.45525 3.83507 4.68052 3.83507C4.90561 3.83507 5.09716 3.91961 5.25516 4.08871L6.59998 5.45043C6.75797 5.61952 6.83698 5.81106 6.83698 6.02507C6.83698 6.23907 6.75971 6.4307 6.60516 6.59998C6.45061 6.76925 6.26362 6.84934 6.04416 6.84025C5.82453 6.83116 5.63007 6.74761 5.4608 6.58961ZM18.7449 19.9113L17.4 18.5496C17.242 18.3805 17.1629 18.1861 17.1629 17.9665C17.1629 17.7468 17.242 17.5579 17.4 17.4C17.5476 17.2307 17.7321 17.1506 17.9534 17.1598C18.1746 17.1688 18.3699 17.2524 18.5392 17.4103L19.9113 18.7449C20.0735 18.8959 20.1517 19.0858 20.1461 19.3143C20.1405 19.543 20.061 19.7419 19.908 19.9113C19.7409 20.0803 19.5447 20.1649 19.3194 20.1649C19.0944 20.1649 18.9028 20.0803 18.7449 19.9113ZM17.4 6.60516C17.2307 6.45061 17.1506 6.26362 17.1598 6.04416C17.1688 5.82453 17.2524 5.63007 17.4103 5.4608L18.7449 4.08871C18.8959 3.92652 19.0858 3.84825 19.3143 3.85389C19.543 3.85953 19.7419 3.93889 19.9113 4.09198C20.0803 4.25907 20.1649 4.45525 20.1649 4.68052C20.1649 4.90561 20.0803 5.09716 19.9113 5.25516L18.5496 6.59998C18.3805 6.75797 18.1889 6.83698 17.9749 6.83698C17.7609 6.83698 17.5693 6.75971 17.4 6.60516ZM4.08871 19.9134C3.91961 19.7427 3.83507 19.5447 3.83507 19.3194C3.83507 19.0944 3.91961 18.9028 4.08871 18.7449L5.45043 17.4C5.61952 17.242 5.81389 17.1629 6.03352 17.1629C6.25316 17.1629 6.44198 17.242 6.59998 17.4C6.76216 17.5476 6.8387 17.7321 6.82961 17.9534C6.82053 18.1746 6.74052 18.3699 6.58961 18.5392L5.25516 19.9113C5.09716 20.0803 4.90561 20.1622 4.68052 20.1567C4.45525 20.151 4.25798 20.07 4.08871 19.9134Z" fill="white"/>
</g>
<defs>
<clipPath id="clip0_12668_61649">
<rect width="24" height="24" fill="white"/>
</clipPath>
</defs>
</svg>