<svg width="26" height="28" viewBox="0 0 26 28" fill="none" xmlns="http://www.w3.org/2000/svg">
<path d="M13 5.99994H9.99997C9.71663 5.99994 9.47915 5.90407 9.2875 5.71233C9.09583 5.52058 9 5.28298 9 4.99953C9 4.71607 9.09583 4.47861 9.2875 4.28717C9.47915 4.09572 9.71663 4 9.99997 4H13V0.999968C13 0.716634 13.0959 0.479134 13.2876 0.287467C13.4794 0.095823 13.717 0 14.0004 0C14.2839 0 14.5213 0.095823 14.7128 0.287467C14.9042 0.479134 14.9999 0.716634 14.9999 0.999968V4H18C18.2833 4 18.5208 4.09587 18.7125 4.2876C18.9041 4.47936 18.9999 4.71696 18.9999 5.0004C18.9999 5.28387 18.9041 5.52132 18.7125 5.71277C18.5208 5.90421 18.2833 5.99994 18 5.99994H14.9999V8.99997C14.9999 9.2833 14.9041 9.5208 14.7123 9.71247C14.5206 9.90411 14.283 9.99994 13.9995 9.99994C13.7161 9.99994 13.4786 9.90411 13.2872 9.71247C13.0957 9.5208 13 9.2833 13 8.99997V5.99994ZM7.53843 27.0768C6.89059 27.0768 6.33974 26.8499 5.8859 26.3961C5.43206 25.9423 5.20513 25.3914 5.20513 24.7435C5.20513 24.0957 5.43206 23.5448 5.8859 23.091C6.33974 22.6372 6.89059 22.4102 7.53843 22.4102C8.1863 22.4102 8.73716 22.6372 9.191 23.091C9.64484 23.5448 9.87177 24.0957 9.87177 24.7435C9.87177 25.3914 9.64484 25.9423 9.191 26.3961C8.73716 26.8499 8.1863 27.0768 7.53843 27.0768ZM20.4615 27.0768C19.8136 27.0768 19.2628 26.8499 18.8089 26.3961C18.3551 25.9423 18.1282 25.3914 18.1282 24.7435C18.1282 24.0957 18.3551 23.5448 18.8089 23.091C19.2628 22.6372 19.8136 22.4102 20.4615 22.4102C21.1093 22.4102 21.6602 22.6372 22.114 23.091C22.5679 23.5448 22.7948 24.0957 22.7948 24.7435C22.7948 25.3914 22.5679 25.9423 22.114 26.3961C21.6602 26.8499 21.1093 27.0768 20.4615 27.0768ZM2.53847 3.3333H1C0.716667 3.3333 0.479167 3.23743 0.2875 3.0457C0.0958333 2.85395 0 2.61634 0 2.3329C0 2.04943 0.0958333 1.81198 0.2875 1.62053C0.479167 1.42909 0.716667 1.33337 1 1.33337H3.05713C3.28569 1.33337 3.49911 1.39335 3.6974 1.5133C3.89569 1.63326 4.04441 1.80319 4.14357 2.0231L9.37947 13.0769H18.4692C18.5461 13.0769 18.6145 13.0577 18.6743 13.0192C18.7342 12.9808 18.7854 12.9273 18.8282 12.859L23.482 4.49997C23.5675 4.33759 23.6851 4.21367 23.8348 4.1282C23.9845 4.04273 24.1508 4 24.3338 4C24.7163 4 25.0034 4.16325 25.1948 4.48973C25.3862 4.81622 25.3897 5.14612 25.205 5.47943L20.5794 13.8563C20.3606 14.241 20.0711 14.5405 19.7109 14.7551C19.3508 14.9696 18.9565 15.0768 18.5282 15.0768H8.79997L7.25637 17.8974C7.18799 17.9999 7.18586 18.1111 7.24997 18.2307C7.31408 18.3504 7.41023 18.4102 7.53843 18.4102H21.7948C22.0781 18.4102 22.3156 18.5061 22.5073 18.6979C22.699 18.8896 22.7948 19.1272 22.7948 19.4107C22.7948 19.6941 22.699 19.9316 22.5073 20.123C22.3156 20.3144 22.0781 20.4102 21.7948 20.4102H7.53843C6.64957 20.4102 5.97821 20.0303 5.52437 19.2704C5.07052 18.5106 5.05812 17.7418 5.48717 16.9641L7.38977 13.5435L2.53847 3.3333Z" fill="#353340"/>
</svg>
