<svg width="24" height="24" viewBox="0 0 24 24" fill="none" xmlns="http://www.w3.org/2000/svg">
<path d="M8.24854 3C5.35429 3 3 5.35646 3 8.25146V15.7515C3 18.6457 5.35646 21 8.25146 21H15.7515C18.6457 21 21 18.6435 21 15.7485V8.24854C21 5.35429 18.6435 3 15.7485 3H8.24854ZM17.25 6C17.664 6 18 6.336 18 6.75C18 7.164 17.664 7.5 17.25 7.5C16.836 7.5 16.5 7.164 16.5 6.75C16.5 6.336 16.836 6 17.25 6ZM12 7.5C14.4818 7.5 16.5 9.51825 16.5 12C16.5 14.4818 14.4818 16.5 12 16.5C9.51825 16.5 7.5 14.4818 7.5 12C7.5 9.51825 9.51825 7.5 12 7.5ZM12 9C11.2044 9 10.4413 9.31607 9.87868 9.87868C9.31607 10.4413 9 11.2044 9 12C9 12.7956 9.31607 13.5587 9.87868 14.1213C10.4413 14.6839 11.2044 15 12 15C12.7956 15 13.5587 14.6839 14.1213 14.1213C14.6839 13.5587 15 12.7956 15 12C15 11.2044 14.6839 10.4413 14.1213 9.87868C13.5587 9.31607 12.7956 9 12 9Z" fill="black"/>
</svg>
