<svg width="24" height="24" viewBox="0 0 24 24" fill="none" xmlns="http://www.w3.org/2000/svg">
<path d="M16.017 2.00391H7.947C6.37015 2.00576 4.85844 2.63305 3.74353 3.74814C2.62862 4.86324 2.00159 6.37506 2 7.95191L2 16.0219C2.00185 17.5988 2.62914 19.1105 3.74424 20.2254C4.85933 21.3403 6.37115 21.9673 7.948 21.9689H16.018C17.5948 21.9671 19.1066 21.3398 20.2215 20.2247C21.3364 19.1096 21.9634 17.5978 21.965 16.0209V7.95091C21.9631 6.37406 21.3359 4.86234 20.2208 3.74744C19.1057 2.63253 17.5938 2.00549 16.017 2.00391V2.00391ZM19.957 16.0209C19.957 16.5383 19.8551 17.0507 19.6571 17.5287C19.4591 18.0067 19.1689 18.441 18.803 18.8069C18.4371 19.1728 18.0028 19.463 17.5248 19.661C17.0468 19.859 16.5344 19.9609 16.017 19.9609H7.947C6.90222 19.9606 5.90032 19.5454 5.16165 18.8066C4.42297 18.0677 4.008 17.0657 4.008 16.0209V7.95091C4.00827 6.90613 4.42349 5.90423 5.16235 5.16555C5.90122 4.42687 6.90322 4.01191 7.948 4.01191H16.018C17.0628 4.01217 18.0647 4.42739 18.8034 5.16626C19.542 5.90512 19.957 6.90713 19.957 7.95191V16.0219V16.0209Z" fill="white"/>
<path d="M11.982 6.82324C10.6134 6.82536 9.30154 7.37003 8.33391 8.33785C7.36627 9.30567 6.82186 10.6177 6.82001 11.9862C6.82159 13.3552 7.36603 14.6676 8.33391 15.6356C9.30179 16.6037 10.6141 17.1484 11.983 17.1502C13.3521 17.1487 14.6647 16.6041 15.6328 15.636C16.6008 14.6679 17.1454 13.3553 17.147 11.9862C17.1449 10.6173 16.5999 9.30513 15.6317 8.33744C14.6634 7.36975 13.3509 6.82556 11.982 6.82424V6.82324ZM11.982 15.1422C11.1452 15.1422 10.3428 14.8098 9.75109 14.2182C9.15941 13.6265 8.82701 12.824 8.82701 11.9872C8.82701 11.1505 9.15941 10.348 9.75109 9.75632C10.3428 9.16464 11.1452 8.83224 11.982 8.83224C12.8188 8.83224 13.6213 9.16464 14.2129 9.75632C14.8046 10.348 15.137 11.1505 15.137 11.9872C15.137 12.824 14.8046 13.6265 14.2129 14.2182C13.6213 14.8098 12.8188 15.1422 11.982 15.1422Z" fill="white"/>
<path d="M17.156 8.099C17.8392 8.099 18.393 7.54518 18.393 6.862C18.393 6.17882 17.8392 5.625 17.156 5.625C16.4728 5.625 15.919 6.17882 15.919 6.862C15.919 7.54518 16.4728 8.099 17.156 8.099Z" fill="white"/>
</svg>
