<svg width="24" height="24" viewBox="0 0 24 24" fill="none" xmlns="http://www.w3.org/2000/svg">
<path d="M7.91016 2.25C4.79297 2.25 2.25 4.79297 2.25 7.91016V16.0957C2.25 19.207 4.79297 21.75 7.91016 21.75H16.0957C19.207 21.75 21.75 19.207 21.75 16.0898V7.91016C21.75 4.79297 19.207 2.25 16.0898 2.25H7.91016ZM7.91016 3.75H16.0898C18.3984 3.75 20.25 5.60156 20.25 7.91016V16.0898C20.25 18.3984 18.3984 20.25 16.0957 20.25H7.91016C5.60156 20.25 3.75 18.3984 3.75 16.0957V7.91016C3.75 5.60156 5.60156 3.75 7.91016 3.75ZM18 5.25C17.584 5.25 17.25 5.58398 17.25 6C17.25 6.41602 17.584 6.75 18 6.75C18.416 6.75 18.75 6.41602 18.75 6C18.75 5.58398 18.416 5.25 18 5.25ZM12 6.75C9.11133 6.75 6.75 9.11133 6.75 12C6.75 14.8887 9.11133 17.25 12 17.25C14.8887 17.25 17.25 14.8887 17.25 12C17.25 9.11133 14.8887 6.75 12 6.75ZM12 8.25C14.0801 8.25 15.75 9.91992 15.75 12C15.75 14.0801 14.0801 15.75 12 15.75C9.91992 15.75 8.25 14.0801 8.25 12C8.25 9.91992 9.91992 8.25 12 8.25Z" fill="black"/>
</svg>
