<svg width="24" height="24" viewBox="0 0 24 24" fill="none" xmlns="http://www.w3.org/2000/svg">
<path d="M5.3077 21.5C4.80898 21.5 4.38303 21.3234 4.02983 20.9702C3.67661 20.617 3.5 20.191 3.5 19.6923V8.49423C3.20642 8.34295 2.96636 8.12788 2.77983 7.84903C2.59328 7.57018 2.5 7.24871 2.5 6.88461V4.30773C2.5 3.80902 2.67661 3.38306 3.02983 3.02986C3.38303 2.67664 3.80898 2.50003 4.3077 2.50003H19.6923C20.191 2.50003 20.6169 2.67664 20.9701 3.02986C21.3233 3.38306 21.5 3.80902 21.5 4.30773V6.88461C21.5 7.24871 21.4067 7.57018 21.2201 7.84903C21.0336 8.12788 20.7935 8.34295 20.5 8.49423V19.6923C20.5 20.191 20.3233 20.617 19.9701 20.9702C19.6169 21.3234 19.191 21.5 18.6923 21.5H5.3077ZM4.99998 8.69228V19.6442C4.99998 19.7468 5.03683 19.8317 5.11055 19.899C5.18428 19.9663 5.27564 20 5.38463 20H18.6923C18.782 20 18.8557 19.9712 18.9134 19.9135C18.9711 19.8558 19 19.782 19 19.6923V8.69228H4.99998ZM4.3077 7.19233H19.6923C19.782 7.19233 19.8557 7.16348 19.9134 7.10578C19.9711 7.04808 20 6.97436 20 6.88461V4.30773C20 4.21798 19.9711 4.14426 19.9134 4.08656C19.8557 4.02886 19.782 4.00001 19.6923 4.00001H4.3077C4.21795 4.00001 4.14423 4.02886 4.08653 4.08656C4.02883 4.14426 3.99998 4.21798 3.99998 4.30773V6.88461C3.99998 6.97436 4.02883 7.04808 4.08653 7.10578C4.14423 7.16348 4.21795 7.19233 4.3077 7.19233ZM9.91343 13.4327H14.0961C14.3025 13.4327 14.4727 13.3641 14.6067 13.2269C14.7407 13.0897 14.8077 12.9179 14.8077 12.7115C14.8077 12.5051 14.7407 12.3349 14.6067 12.201C14.4727 12.067 14.3025 12 14.0961 12H9.90383C9.69741 12 9.52722 12.067 9.39325 12.201C9.25928 12.3349 9.1923 12.5051 9.1923 12.7115C9.1923 12.9179 9.26088 13.0897 9.39805 13.2269C9.53523 13.3641 9.70703 13.4327 9.91343 13.4327Z" fill="#1C1B1F"/>
</svg>
