<svg width="19" height="20" viewBox="0 0 19 20" fill="none" xmlns="http://www.w3.org/2000/svg">
<g id="expand_more">
<mask id="mask0_11360_69239" style="mask-type:alpha" maskUnits="userSpaceOnUse" x="0" y="0" width="19" height="20">
<rect id="Bounding box" y="0.5" width="19" height="19" fill="#D9D9D9"/>
</mask>
<g mask="url(#mask0_11360_69239)">
<path id="expand_more_2" d="M9.49957 7.8934C9.59498 7.8934 9.68378 7.90871 9.76598 7.93915C9.8482 7.96959 9.92635 8.02179 10.0004 8.09588L13.5584 11.6538C13.668 11.7635 13.7241 11.9012 13.7266 12.0672C13.7291 12.2331 13.6731 12.3734 13.5584 12.4881C13.4437 12.6028 13.3034 12.6602 13.14 12.6602C12.9766 12.6602 12.8375 12.6028 12.7228 12.4881L9.49957 9.26361L6.27503 12.4881C6.16543 12.5977 6.02766 12.6538 5.86172 12.6564C5.69577 12.6589 5.55546 12.6028 5.44077 12.4881C5.32607 12.3734 5.26872 12.2344 5.26872 12.071C5.26872 11.9076 5.32607 11.7685 5.44077 11.6538L8.9987 8.09588C9.07279 8.02179 9.15094 7.96959 9.23315 7.93915C9.31535 7.90871 9.40416 7.8934 9.49957 7.8934Z" fill="white"/>
</g>
</g>
</svg>
