<svg width="24" height="24" viewBox="0 0 24 24" fill="none" xmlns="http://www.w3.org/2000/svg">
<path d="M12 13.5C11.3013 13.5 10.71 13.258 10.226 12.774C9.74204 12.29 9.50005 11.6987 9.50005 11V5.00001C9.50005 4.30131 9.74204 3.70996 10.226 3.22598C10.71 2.74201 11.3013 2.50003 12 2.50003C12.6987 2.50003 13.2901 2.74201 13.7741 3.22598C14.258 3.70996 14.5 4.30131 14.5 5.00001V11C14.5 11.6987 14.258 12.29 13.7741 12.774C13.2901 13.258 12.6987 13.5 12 13.5ZM11.2501 20V17.4538C9.76159 17.282 8.48594 16.6705 7.42313 15.6192C6.36031 14.5679 5.73788 13.2865 5.55583 11.775C5.52891 11.5622 5.58468 11.3798 5.72313 11.2279C5.86159 11.076 6.03724 11 6.25005 11C6.46287 11 6.64107 11.0734 6.78465 11.2202C6.92824 11.367 7.02374 11.5468 7.07118 11.7596C7.25323 12.984 7.81316 13.9968 8.75098 14.7981C9.68879 15.5994 10.7718 16 12 16C13.2449 16 14.3321 15.5952 15.2616 14.7856C16.1911 13.976 16.7468 12.9673 16.9289 11.7596C16.9763 11.5468 17.0718 11.367 17.2154 11.2202C17.359 11.0734 17.5372 11 17.75 11C17.9628 11 18.1385 11.076 18.2769 11.2279C18.4154 11.3798 18.4711 11.5622 18.4442 11.775C18.2622 13.2532 17.6439 14.5247 16.5894 15.5894C15.5349 16.6541 14.2551 17.2756 12.75 17.4538V20C12.75 20.2128 12.6782 20.391 12.5346 20.5346C12.391 20.6782 12.2128 20.75 12 20.75C11.7872 20.75 11.609 20.6782 11.4654 20.5346C11.3218 20.391 11.2501 20.2128 11.2501 20ZM12 12C12.2834 12 12.5209 11.9042 12.7125 11.7125C12.9042 11.5208 13 11.2833 13 11V5.00001C13 4.71667 12.9042 4.47917 12.7125 4.28751C12.5209 4.09584 12.2834 4.00001 12 4.00001C11.7167 4.00001 11.4792 4.09584 11.2875 4.28751C11.0959 4.47917 11 4.71667 11 5.00001V11C11 11.2833 11.0959 11.5208 11.2875 11.7125C11.4792 11.9042 11.7167 12 12 12Z" fill="#1C1B1F"/>
</svg>
