<svg width="24" height="24" viewBox="0 0 24 24" fill="none" xmlns="http://www.w3.org/2000/svg">
<mask id="mask0_94_2009" style="mask-type:alpha" maskUnits="userSpaceOnUse" x="0" y="0" width="24" height="24">
<rect width="24" height="24" fill="#D9D9D9"/>
</mask>
<g mask="url(#mask0_94_2009)">
<path d="M12 10.4538L7.92689 14.5269C7.78844 14.6653 7.6144 14.7362 7.40479 14.7394C7.19519 14.7426 7.01795 14.6718 6.87309 14.5269C6.7282 14.382 6.65576 14.2064 6.65576 14C6.65576 13.7936 6.7282 13.6179 6.87309 13.4731L11.3673 8.97885C11.5481 8.79809 11.759 8.7077 12 8.7077C12.241 8.7077 12.4519 8.79809 12.6327 8.97885L17.1269 13.4731C17.2654 13.6115 17.3362 13.7856 17.3394 13.9952C17.3426 14.2048 17.2718 14.382 17.1269 14.5269C16.982 14.6718 16.8064 14.7442 16.6 14.7442C16.3936 14.7442 16.218 14.6718 16.0731 14.5269L12 10.4538Z" fill="#1C1B1F"/>
</g>
</svg>
