<svg width="15" height="18" viewBox="0 0 15 18" fill="none" xmlns="http://www.w3.org/2000/svg">
<path d="M1.35391 16H2.45235L11.3656 5.7634L10.2671 4.50188L1.35391 14.7385V16ZM0.834854 17.5C0.611876 17.5 0.424969 17.4133 0.27413 17.2401C0.123278 17.0668 0.0478516 16.8522 0.0478516 16.5961V14.8635C0.0478516 14.6196 0.0886013 14.3871 0.170101 14.1661C0.251586 13.9451 0.363771 13.7526 0.506657 13.5885L11.533 0.930775C11.6647 0.793425 11.8101 0.687292 11.9692 0.612375C12.1283 0.537458 12.2951 0.5 12.4697 0.5C12.6443 0.5 12.8134 0.535584 12.977 0.60675C13.1407 0.677901 13.2856 0.791034 13.4117 0.94615L14.475 2.18268C14.6101 2.32754 14.7064 2.49424 14.7638 2.68278C14.8213 2.87129 14.8501 3.05981 14.8501 3.24833C14.8501 3.44941 14.8202 3.64131 14.7604 3.82403C14.7006 4.00676 14.6055 4.17373 14.475 4.32495L3.45366 16.973C3.31078 17.1371 3.14312 17.266 2.95069 17.3596C2.75824 17.4532 2.55585 17.5 2.34351 17.5H0.834854ZM10.8067 5.1437L10.2671 4.50188L11.3656 5.7634L10.8067 5.1437Z" fill="white"/>
</svg>
