<svg width="24" height="24" viewBox="0 0 24 24" fill="none" xmlns="http://www.w3.org/2000/svg">
<mask id="mask0_3110_97749" style="mask-type:alpha" maskUnits="userSpaceOnUse" x="0" y="0" width="24" height="24">
<rect width="24" height="24" fill="#D9D9D9"/>
</mask>
<g mask="url(#mask0_3110_97749)">
<path d="M11.2498 5.21156V1.51929H12.7497V5.21156H11.2498ZM17.3228 7.73079L16.294 6.70196L18.8728 4.03851L19.9363 5.11734L17.3228 7.73079ZM18.7882 12.75V11.25H22.4805V12.75H18.7882ZM11.2498 22.4807V18.7981H12.7497V22.4807H11.2498ZM6.69594 7.69039L4.03827 5.12696L5.12672 4.07314L7.74014 6.67696L6.69594 7.69039ZM18.8574 19.9615L16.294 17.2981L17.3074 16.2942L19.9266 18.8423L18.8574 19.9615ZM1.51904 12.75V11.25H5.21132V12.75H1.51904ZM5.11709 19.9615L4.07289 18.8731L6.65172 16.2942L7.19402 16.8058L7.74592 17.3327L5.11709 19.9615ZM12.002 17.5C10.4749 17.5 9.17607 16.9655 8.10557 15.8965C7.03505 14.8275 6.49979 13.5294 6.49979 12.0023C6.49979 10.4751 7.03429 9.17631 8.10329 8.10581C9.17229 7.0353 10.4704 6.50004 11.9975 6.50004C13.5246 6.50004 14.8235 7.03454 15.894 8.10354C16.9645 9.17254 17.4997 10.4706 17.4997 11.9977C17.4997 13.5249 16.9652 14.8237 15.8962 15.8942C14.8272 16.9647 13.5292 17.5 12.002 17.5ZM7.5 10.5C8.6 10.5 7.21667 10.7833 8 10C8.78333 9.21668 9.68177 9.20581 9.68177 8.10581C9.68177 7.00581 13.5 7.50002 14 8.50002C13.2167 7.71668 13.0998 8.00001 11.9998 8.00001C10.8998 8.00001 9.9581 8.39168 9.17477 9.17501C8.39143 9.95835 7.99977 10.9 7.99977 12C7.99977 13.1 6.71667 13.7167 7.5 14.5C6.5 13.5 6.4 10.5 7.5 10.5Z" fill="white"/>
</g>
</svg>
