<svg width="24" height="24" viewBox="0 0 24 24" fill="none" xmlns="http://www.w3.org/2000/svg">
<path d="M21.959 13.7233V21.1023H17.681V14.2173C17.681 12.4873 17.062 11.3073 15.514 11.3073C14.332 11.3073 13.628 12.1033 13.319 12.8723C13.206 13.1473 13.177 13.5303 13.177 13.9153V21.1023H8.897C8.897 21.1023 8.955 9.44227 8.897 8.23327H13.177V10.0573L13.149 10.0993H13.177V10.0573C13.745 9.18227 14.76 7.93127 17.033 7.93127C19.848 7.93127 21.959 9.77127 21.959 13.7233ZM4.421 2.03027C2.958 2.03027 2 2.99027 2 4.25327C2 5.48827 2.93 6.47727 4.365 6.47727H4.393C5.886 6.47727 6.813 5.48827 6.813 4.25327C6.787 2.99027 5.887 2.03027 4.422 2.03027H4.421ZM2.254 21.1023H6.532V8.23327H2.254V21.1023Z" fill="white"/>
</svg>
