<svg width="24" height="24" viewBox="0 0 24 24" fill="none" xmlns="http://www.w3.org/2000/svg">
<path d="M5.43389 3C4.09796 3 3 4.09796 3 5.43389V18.5715C3 19.902 4.09796 21 5.43389 21H18.5715C19.902 21 21 19.902 21 18.5715V5.43389C21 4.09796 19.902 3 18.5715 3H5.43389ZM5.43389 4.38462H18.5715C19.1556 4.38462 19.6154 4.84435 19.6154 5.43389V18.5715C19.6154 19.1556 19.1556 19.6154 18.5715 19.6154H5.43389C4.84435 19.6154 4.38462 19.1556 4.38462 18.5715V5.43389C4.38462 4.84435 4.84435 4.38462 5.43389 4.38462ZM7.15385 5.76923C6.39123 5.76923 5.76923 6.39123 5.76923 7.15385C5.76923 7.91647 6.39123 8.53846 7.15385 8.53846C7.91647 8.53846 8.53846 7.91647 8.53846 7.15385C8.53846 6.39123 7.91647 5.76923 7.15385 5.76923ZM5.76923 9.92308V18.2308H8.53846V9.92308H5.76923ZM9.92308 9.92308V18.2308H12.6923V14.5204C12.6923 13.3684 12.8005 12.3353 14.1851 12.3353C15.5481 12.3353 15.4615 13.5739 15.4615 14.5962V18.2308H18.2308V14.131C18.2308 11.7512 17.7332 9.92308 15.0343 9.92308C13.7362 9.92308 13.0817 10.4423 12.7248 11.1346H12.6923V9.92308H9.92308Z" fill="black"/>
</svg>
