<svg width="24" height="24" viewBox="0 0 24 24" fill="none" xmlns="http://www.w3.org/2000/svg">
<path d="M6.3077 20H17.6922C17.782 20 17.8557 19.9711 17.9134 19.9134C17.9711 19.8557 18 19.782 18 19.6923V10.3077C18 10.218 17.9711 10.1442 17.9134 10.0865C17.8557 10.0288 17.782 9.99999 17.6922 9.99999H6.3077C6.21795 9.99999 6.14423 10.0288 6.08652 10.0865C6.02882 10.1442 5.99997 10.218 5.99997 10.3077V19.6923C5.99997 19.782 6.02882 19.8557 6.08652 19.9134C6.14423 19.9711 6.21795 20 6.3077 20ZM12 16.75C12.4859 16.75 12.899 16.5798 13.2394 16.2394C13.5798 15.899 13.75 15.4859 13.75 15C13.75 14.5141 13.5798 14.101 13.2394 13.7606C12.899 13.4202 12.4859 13.25 12 13.25C11.5141 13.25 11.1009 13.4202 10.7606 13.7606C10.4202 14.101 10.25 14.5141 10.25 15C10.25 15.4859 10.4202 15.899 10.7606 16.2394C11.1009 16.5798 11.5141 16.75 12 16.75ZM6.3077 21.5C5.80898 21.5 5.38302 21.3234 5.02982 20.9701C4.67661 20.6169 4.5 20.191 4.5 19.6923V10.3077C4.5 9.80899 4.67661 9.38304 5.02982 9.02984C5.38302 8.67662 5.80898 8.50001 6.3077 8.50001H13.5V6.50001C13.5 5.25131 13.9378 4.18915 14.8134 3.31351C15.6891 2.43788 16.7513 2.00006 18 2.00006C19.1064 2.00006 20.0644 2.34557 20.874 3.03659C21.6836 3.72762 22.1916 4.58595 22.398 5.61159C22.4557 5.8244 22.4128 6.02568 22.2692 6.21541C22.1256 6.40515 21.9525 6.50001 21.75 6.50001C21.5371 6.50001 21.3615 6.4513 21.2231 6.35386C21.0846 6.25643 20.9865 6.10644 20.9288 5.90389C20.784 5.22567 20.4426 4.65547 19.9048 4.19329C19.367 3.7311 18.732 3.50001 18 3.50001C17.1666 3.50001 16.4583 3.79168 15.875 4.37501C15.2916 4.95834 15 5.66668 15 6.50001V8.50001H17.6922C18.191 8.50001 18.6169 8.67662 18.9701 9.02984C19.3233 9.38304 19.5 9.80899 19.5 10.3077V19.6923C19.5 20.191 19.3233 20.6169 18.9701 20.9701C18.6169 21.3234 18.191 21.5 17.6922 21.5H6.3077Z" fill="#1C1B1F"/>
</svg>
