<svg width="19" height="20" viewBox="0 0 19 20" fill="none" xmlns="http://www.w3.org/2000/svg">
<mask id="mask0_8996_55043" style="mask-type:alpha" maskUnits="userSpaceOnUse" x="0" y="0" width="19" height="20">
<rect y="0.415283" width="19" height="19" fill="#D9D9D9"/>
</mask>
<g mask="url(#mask0_8996_55043)">
<path d="M10.0858 16.6443C9.91731 16.6443 9.77623 16.5875 9.66256 16.4738C9.54888 16.3601 9.49204 16.2191 9.49204 16.0506C9.49204 15.8821 9.54888 15.741 9.66256 15.6274C9.77623 15.5137 9.91731 15.4569 10.0858 15.4569H14.7977C14.8586 15.4569 14.9144 15.4315 14.9652 15.3807C15.0159 15.33 15.0413 15.2741 15.0413 15.2132V4.61713C15.0413 4.55623 15.0159 4.50039 14.9652 4.44963C14.9144 4.39889 14.8586 4.37352 14.7977 4.37352H10.0858C9.91731 4.37352 9.77623 4.31668 9.66256 4.20301C9.54888 4.08934 9.49204 3.94827 9.49204 3.77979C9.49204 3.61131 9.54888 3.47023 9.66256 3.35656C9.77623 3.24288 9.91731 3.18604 10.0858 3.18604H14.7977C15.1976 3.18604 15.5361 3.32458 15.8132 3.60166C16.0903 3.87874 16.2288 4.21723 16.2288 4.61713V15.2132C16.2288 15.6131 16.0903 15.9516 15.8132 16.2287C15.5361 16.5058 15.1976 16.6443 14.7977 16.6443H10.0858ZM9.52406 10.5089H3.36426C3.19578 10.5089 3.0547 10.4521 2.94103 10.3384C2.82735 10.2247 2.77051 10.0837 2.77051 9.91518C2.77051 9.7467 2.82735 9.60563 2.94103 9.49196C3.0547 9.37829 3.19578 9.32145 3.36426 9.32145H9.52406L8.00162 7.79902C7.89202 7.6894 7.83594 7.55568 7.8334 7.39786C7.83086 7.24004 7.88694 7.09973 8.00162 6.97691C8.11631 6.85411 8.25535 6.79068 8.41875 6.78661C8.58217 6.78255 8.72527 6.84193 8.84807 6.96474L11.2976 9.41432C11.4408 9.55742 11.5123 9.72438 11.5123 9.91518C11.5123 10.106 11.4408 10.2729 11.2976 10.4161L8.84807 12.8656C8.73034 12.9834 8.59053 13.0415 8.42865 13.04C8.26678 13.0384 8.12444 12.9763 8.00162 12.8535C7.88694 12.7306 7.83163 12.5896 7.83569 12.4302C7.83974 12.2709 7.89911 12.1339 8.0138 12.0192L9.52406 10.5089Z" fill="#FF5757"/>
</g>
</svg>
