<svg width="24" height="24" viewBox="0 0 24 24" fill="none" xmlns="http://www.w3.org/2000/svg">
<path d="M14.4173 20.2557L8.99998 18.3615L4.72413 20.0158C4.57086 20.077 4.42268 20.0963 4.27958 20.0737C4.13646 20.051 4.00465 20.0019 3.88415 19.9264C3.76363 19.8509 3.66948 19.749 3.6017 19.6206C3.5339 19.4922 3.5 19.3449 3.5 19.1788V6.08016C3.5 5.87781 3.55289 5.6988 3.65868 5.54314C3.76444 5.38749 3.91283 5.2744 4.10385 5.20389L8.40768 3.74429C8.49879 3.71095 8.59371 3.68595 8.69243 3.66929C8.79114 3.65262 8.89366 3.64429 8.99998 3.64429C9.10629 3.64429 9.20881 3.65262 9.30753 3.66929C9.40624 3.68595 9.50116 3.71095 9.59228 3.74429L15 5.63851L19.2758 3.98426C19.4291 3.923 19.5773 3.9037 19.7204 3.92636C19.8635 3.94901 19.9953 3.99809 20.1158 4.07361C20.2363 4.14913 20.3305 4.25107 20.3983 4.37944C20.4661 4.50782 20.5 4.65508 20.5 4.82121V17.9628C20.5 18.1658 20.4423 18.3442 20.3269 18.4981C20.2115 18.6519 20.0551 18.7641 19.8576 18.8346L15.5827 20.2654C15.4891 20.2987 15.3943 20.3221 15.2983 20.3356C15.2023 20.349 15.1026 20.3557 14.9993 20.3557C14.8959 20.3557 14.7965 20.3474 14.701 20.3307C14.6054 20.3141 14.5109 20.2891 14.4173 20.2557ZM14.25 18.6269V6.92694L9.74995 5.35386V17.0539L14.25 18.6269ZM15.75 18.6269L19 17.55V5.70001L15.75 6.92694V18.6269ZM4.99997 18.3L8.25 17.0539V5.35386L4.99997 6.45001V18.3Z" fill="#1C1B1F"/>
</svg>
