<svg width="24" height="24" viewBox="0 0 24 24" fill="none" xmlns="http://www.w3.org/2000/svg">
<mask id="mask0_282_672" style="mask-type:alpha" maskUnits="userSpaceOnUse" x="0" y="0" width="24" height="24">
<rect width="24" height="24" fill="#D9D9D9"/>
</mask>
<g mask="url(#mask0_282_672)">
<path d="M4.25 17.6346C4.0375 17.6346 3.85938 17.5627 3.71563 17.4189C3.57188 17.2751 3.5 17.0969 3.5 16.8843C3.5 16.6717 3.57188 16.4936 3.71563 16.35C3.85938 16.2064 4.0375 16.1346 4.25 16.1346H19.75C19.9625 16.1346 20.1406 16.2066 20.2843 16.3504C20.4281 16.4942 20.5 16.6724 20.5 16.885C20.5 17.0976 20.4281 17.2756 20.2843 17.4192C20.1406 17.5628 19.9625 17.6346 19.75 17.6346H4.25ZM4.25 12.75C4.0375 12.75 3.85938 12.6781 3.71563 12.5343C3.57188 12.3905 3.5 12.2123 3.5 11.9997C3.5 11.7871 3.57188 11.609 3.71563 11.4654C3.85938 11.3218 4.0375 11.25 4.25 11.25H19.75C19.9625 11.25 20.1406 11.3219 20.2843 11.4657C20.4281 11.6096 20.5 11.7878 20.5 12.0003C20.5 12.2129 20.4281 12.391 20.2843 12.5346C20.1406 12.6782 19.9625 12.75 19.75 12.75H4.25ZM4.25 7.86539C4.0375 7.86539 3.85938 7.79348 3.71563 7.64967C3.57188 7.50587 3.5 7.32767 3.5 7.11507C3.5 6.90248 3.57188 6.7244 3.71563 6.58082C3.85938 6.43722 4.0375 6.36542 4.25 6.36542H19.75C19.9625 6.36542 20.1406 6.43733 20.2843 6.58114C20.4281 6.72496 20.5 6.90316 20.5 7.11574C20.5 7.32834 20.4281 7.50643 20.2843 7.65002C20.1406 7.7936 19.9625 7.86539 19.75 7.86539H4.25Z" fill="#1C1B1F"/>
</g>
</svg>
