<svg width="691" height="117" viewBox="0 0 691 117" fill="none" xmlns="http://www.w3.org/2000/svg">
<g clip-path="url(#clip0_511_120)">
<path d="M208.682 0H205.993C204.336 0 202.993 1.34367 202.993 3.00117V113.999C202.993 115.656 204.336 117 205.993 117H208.682C210.34 117 211.683 115.656 211.683 113.999V3.00117C211.683 1.34367 210.34 0 208.682 0Z" fill="#808080"/>
<path d="M368.744 109.144C368.743 110.176 368.945 111.199 369.339 112.153C369.733 113.107 370.312 113.974 371.041 114.704C371.771 115.434 372.637 116.014 373.59 116.409C374.544 116.804 375.566 117.008 376.598 117.008H452.792C452.792 114.924 451.965 112.926 450.492 111.452C449.019 109.979 447.021 109.151 444.938 109.151H368.744V109.144Z" fill="#808080"/>
<path d="M444.437 58.8154V57.349C444.437 56.5026 444.101 55.691 443.502 55.0925C442.904 54.4941 442.093 54.1578 441.247 54.1578H371.888C371.476 54.1568 371.067 54.2373 370.685 54.3945C370.304 54.5518 369.957 54.7828 369.665 55.0742C369.373 55.3657 369.141 55.712 368.983 56.0932C368.825 56.4744 368.744 56.8831 368.744 57.2958V58.8685C368.744 59.2813 368.825 59.6899 368.983 60.0711C369.141 60.4523 369.373 60.7986 369.665 61.0901C369.957 61.3816 370.304 61.6126 370.685 61.7698C371.067 61.927 371.476 62.0075 371.888 62.0065H441.247C442.093 62.0065 442.904 61.6703 443.502 61.0718C444.101 60.4734 444.437 59.6617 444.437 58.8154Z" fill="#808080"/>
<path d="M451.957 0H376.598C374.515 0 372.517 0.827707 371.044 2.30103C369.571 3.77436 368.744 5.77262 368.744 7.85622H444.103C446.186 7.85622 448.183 7.02852 449.656 5.55519C451.129 4.08186 451.957 2.0836 451.957 0Z" fill="#808080"/>
<path d="M582.773 35.1859C579.835 28.2107 575.482 21.9213 569.99 16.7154C564.29 11.3644 557.592 7.18959 550.278 4.4296C542.242 1.40706 533.713 -0.0949775 525.128 2.95178e-05H486.191C486.191 1.03172 486.395 2.05332 486.789 3.00648C487.184 3.95964 487.763 4.8257 488.492 5.55522C489.221 6.28474 490.087 6.86342 491.04 7.25823C491.993 7.65305 493.014 7.85625 494.046 7.85625H525.128C532.663 7.75321 540.145 9.12104 547.156 11.8831C553.404 14.351 559.088 18.057 563.867 22.7785C568.455 27.3781 572.071 32.8532 574.502 38.8785C577.024 45.1118 578.302 51.7792 578.262 58.5038V58.8381C578.318 65.5889 577.04 72.2841 574.502 78.5395C572.073 84.5232 568.455 89.9514 563.867 94.4951C559.08 99.1668 553.395 102.819 547.156 105.231C540.131 107.933 532.654 109.269 525.128 109.167H494.046C491.965 109.167 489.97 109.992 488.497 111.462C487.025 112.932 486.195 114.927 486.191 117.008H525.128C533.721 117.105 542.255 115.574 550.278 112.494C557.588 109.688 564.282 105.487 569.99 100.125C575.498 94.8998 579.852 88.5798 582.773 81.571C585.817 74.265 587.352 66.4186 587.285 58.5038V58.1695C587.357 50.2813 585.822 42.4612 582.773 35.1859Z" fill="#808080"/>
<path d="M326.343 101.812L245.804 0.212741V10.4471C245.801 12.1251 246.369 13.7542 247.414 15.0666L324.133 111.894C325.395 113.487 327.001 114.774 328.831 115.66C330.66 116.545 332.666 117.006 334.699 117.008V8.35769C334.699 6.14109 333.818 4.01528 332.251 2.44791C330.684 0.880539 328.559 0 326.343 0V101.812Z" fill="#808080"/>
<path d="M88.3708 116.126L8.35551 15.1958V114.804C8.35751 115.092 8.30266 115.378 8.19409 115.645C8.08552 115.911 7.92538 116.154 7.72285 116.359C7.52031 116.563 7.27937 116.726 7.01384 116.837C6.74831 116.949 6.46341 117.007 6.17549 117.008H2.18004C1.60116 117.006 1.04668 116.774 0.638062 116.364C0.229444 115.954 6.47973e-06 115.398 9.96932e-06 114.819V2.91C-0.000992204 2.52758 0.0735733 2.14872 0.219421 1.79521C0.365269 1.4417 0.579523 1.12051 0.84987 0.850092C1.12022 0.579674 1.44133 0.365364 1.79474 0.219478C2.14816 0.0735925 2.52692 -0.000992463 2.90924 9.97192e-06H6.5173L88.6367 103.628L168.91 2.31737V11.9667C168.912 14.0662 168.203 16.1045 166.897 17.7487L88.8722 116.126H88.3708Z" fill="#808080"/>
<path d="M591.106 6.23027H609.23V53.1397C609.23 53.5427 609.39 53.9292 609.675 54.2142C609.96 54.4992 610.346 54.6593 610.749 54.6593H614.228C614.631 54.6593 615.017 54.4992 615.302 54.2142C615.587 53.9292 615.747 53.5427 615.747 53.1397V6.23027H627.65C628.467 6.22928 629.276 6.06734 630.03 5.7537C630.785 5.44005 631.47 4.98086 632.047 4.40232C632.624 3.82379 633.081 3.13725 633.393 2.38189C633.705 1.62654 633.865 0.817174 633.864 0L597.32 0C595.671 0.00201348 594.091 0.658504 592.926 1.82526C591.761 2.99202 591.106 4.57364 591.106 6.22268V6.23027Z" fill="#C22E31"/>
<path d="M682.432 3.71539L664.475 45.7925L646.579 3.72299C646.115 2.61792 645.334 1.67487 644.335 1.01244C643.336 0.350004 642.164 -0.00223547 640.966 1.75938e-05H637.791L661.247 53.7171C661.419 54.1057 661.7 54.436 662.056 54.668C662.412 54.8999 662.827 55.0236 663.252 55.024H665.531C665.956 55.0236 666.371 54.8999 666.727 54.668C667.083 54.436 667.364 54.1057 667.536 53.7171L691 1.75938e-05H688.045C686.848 -0.00286387 685.676 0.348253 684.677 1.00927C683.679 1.67029 682.897 2.61174 682.432 3.71539Z" fill="#C22E31"/>
</g>
<defs>
<clipPath id="clip0_511_120">
<rect width="691" height="117" fill="white"/>
</clipPath>
</defs>
</svg>
