<svg width="24" height="24" viewBox="0 0 24 24" fill="none" xmlns="http://www.w3.org/2000/svg">
<path d="M12.75 12.2808L15.2692 14.8C15.4077 14.9369 15.4769 15.1079 15.4769 15.3132C15.4769 15.5185 15.4077 15.6955 15.2692 15.8442C15.1205 15.9994 14.9423 16.0753 14.7346 16.0721C14.5269 16.0689 14.3487 15.993 14.2 15.8442L11.5212 13.1654C11.4276 13.0718 11.359 12.9698 11.3154 12.8595C11.2718 12.7491 11.25 12.635 11.25 12.5173V8.71153C11.25 8.49903 11.3219 8.32091 11.4657 8.17716C11.6095 8.03341 11.7877 7.96153 12.0003 7.96153C12.2129 7.96153 12.391 8.03341 12.5346 8.17716C12.6782 8.32091 12.75 8.49903 12.75 8.71153V12.2808ZM11.9997 6.00001C11.7871 6.00001 11.609 5.92813 11.4654 5.78438C11.3218 5.64063 11.25 5.46251 11.25 5.25003V4.00001H12.75V5.25003C12.75 5.46251 12.6781 5.64063 12.5343 5.78438C12.3904 5.92813 12.2122 6.00001 11.9997 6.00001ZM18 11.9997C18 11.7871 18.0719 11.609 18.2156 11.4654C18.3594 11.3218 18.5375 11.25 18.75 11.25H20V12.75H18.75C18.5375 12.75 18.3594 12.6781 18.2156 12.5343C18.0719 12.3905 18 12.2123 18 11.9997ZM12.0003 18C12.2129 18 12.391 18.0719 12.5346 18.2156C12.6782 18.3594 12.75 18.5375 12.75 18.75V20H11.25V18.75C11.25 18.5375 11.3219 18.3594 11.4657 18.2156C11.6095 18.0719 11.7877 18 12.0003 18ZM5.99998 12.0003C5.99998 12.2129 5.9281 12.391 5.78435 12.5346C5.6406 12.6782 5.46248 12.75 5.25 12.75H3.99998V11.25H5.25C5.46248 11.25 5.6406 11.3219 5.78435 11.4657C5.9281 11.6095 5.99998 11.7877 5.99998 12.0003ZM12.0016 21.5C10.6877 21.5 9.45268 21.2506 8.29655 20.752C7.1404 20.2533 6.13472 19.5766 5.2795 18.7217C4.42427 17.8669 3.74721 16.8616 3.24833 15.706C2.74944 14.5504 2.5 13.3156 2.5 12.0017C2.5 10.6877 2.74933 9.45271 3.248 8.29658C3.74667 7.14043 4.42342 6.13475 5.27825 5.27953C6.1331 4.4243 7.13834 3.74724 8.29398 3.24836C9.44959 2.74947 10.6844 2.50003 11.9983 2.50003C13.3122 2.50003 14.5473 2.74936 15.7034 3.24803C16.8596 3.7467 17.8652 4.42345 18.7205 5.27828C19.5757 6.13313 20.2527 7.13837 20.7516 8.29401C21.2505 9.44962 21.5 10.6844 21.5 11.9983C21.5 13.3123 21.2506 14.5473 20.752 15.7034C20.2533 16.8596 19.5765 17.8653 18.7217 18.7205C17.8669 19.5757 16.8616 20.2528 15.706 20.7517C14.5504 21.2505 13.3156 21.5 12.0016 21.5ZM20 12C20 9.76667 19.225 7.87501 17.675 6.32501C16.125 4.77501 14.2333 4.00001 12 4.00001C9.76664 4.00001 7.87498 4.77501 6.32498 6.32501C4.77498 7.87501 3.99998 9.76667 3.99998 12C3.99998 14.2333 4.77498 16.125 6.32498 17.675C7.87498 19.225 9.76664 20 12 20C14.2333 20 16.125 19.225 17.675 17.675C19.225 16.125 20 14.2333 20 12Z" fill="#292735"/>
</svg>
