<svg width="24" height="24" viewBox="0 0 24 24" fill="none" xmlns="http://www.w3.org/2000/svg">
<g id="nest_clock_farsight_analog">
<path id="Vector" d="M12.75 12.2808L15.2692 14.8C15.4077 14.9369 15.4769 15.1079 15.4769 15.3132C15.4769 15.5185 15.4077 15.6955 15.2692 15.8442C15.1205 15.9993 14.9423 16.0753 14.7346 16.0721C14.5269 16.0689 14.3487 15.9929 14.2 15.8442L11.5212 13.1654C11.4276 13.0718 11.359 12.9698 11.3154 12.8594C11.2718 12.7491 11.25 12.635 11.25 12.5173V8.7115C11.25 8.499 11.3219 8.32088 11.4657 8.17713C11.6095 8.03338 11.7877 7.9615 12.0003 7.9615C12.2129 7.9615 12.391 8.03338 12.5346 8.17713C12.6782 8.32088 12.75 8.499 12.75 8.7115V12.2808ZM11.9997 5.99998C11.7871 5.99998 11.609 5.9281 11.4654 5.78435C11.3218 5.6406 11.25 5.46248 11.25 5.25V3.99998H12.75V5.25C12.75 5.46248 12.6781 5.6406 12.5343 5.78435C12.3904 5.9281 12.2122 5.99998 11.9997 5.99998ZM18 11.9997C18 11.7871 18.0719 11.609 18.2156 11.4654C18.3594 11.3218 18.5375 11.25 18.75 11.25H20V12.75H18.75C18.5375 12.75 18.3594 12.6781 18.2156 12.5343C18.0719 12.3904 18 12.2122 18 11.9997ZM12.0003 18C12.2129 18 12.391 18.0719 12.5346 18.2156C12.6782 18.3594 12.75 18.5375 12.75 18.75V20H11.25V18.75C11.25 18.5375 11.3219 18.3594 11.4657 18.2156C11.6095 18.0719 11.7877 18 12.0003 18ZM5.99998 12.0003C5.99998 12.2129 5.9281 12.391 5.78435 12.5346C5.6406 12.6782 5.46248 12.75 5.25 12.75H3.99998V11.25H5.25C5.46248 11.25 5.6406 11.3219 5.78435 11.4657C5.9281 11.6095 5.99998 11.7877 5.99998 12.0003ZM12.0016 21.5C10.6877 21.5 9.45268 21.2506 8.29655 20.752C7.1404 20.2533 6.13472 19.5765 5.2795 18.7217C4.42427 17.8669 3.74721 16.8616 3.24833 15.706C2.74944 14.5504 2.5 13.3156 2.5 12.0017C2.5 10.6877 2.74933 9.45268 3.248 8.29655C3.74667 7.1404 4.42342 6.13472 5.27825 5.2795C6.1331 4.42427 7.13834 3.74721 8.29398 3.24833C9.44959 2.74944 10.6844 2.5 11.9983 2.5C13.3122 2.5 14.5473 2.74933 15.7034 3.248C16.8596 3.74667 17.8652 4.42342 18.7205 5.27825C19.5757 6.1331 20.2527 7.13834 20.7516 8.29398C21.2505 9.44959 21.5 10.6844 21.5 11.9983C21.5 13.3122 21.2506 14.5473 20.752 15.7034C20.2533 16.8596 19.5765 17.8652 18.7217 18.7205C17.8669 19.5757 16.8616 20.2527 15.706 20.7516C14.5504 21.2505 13.3156 21.5 12.0016 21.5ZM20 12C20 9.76664 19.225 7.87498 17.675 6.32498C16.125 4.77498 14.2333 3.99998 12 3.99998C9.76664 3.99998 7.87498 4.77498 6.32498 6.32498C4.77498 7.87498 3.99998 9.76664 3.99998 12C3.99998 14.2333 4.77498 16.125 6.32498 17.675C7.87498 19.225 9.76664 20 12 20C14.2333 20 16.125 19.225 17.675 17.675C19.225 16.125 20 14.2333 20 12Z" fill="white"/>
</g>
</svg>
