<svg width="24" height="24" viewBox="0 0 24 24" fill="none" xmlns="http://www.w3.org/2000/svg">
<path d="M10.95 13.0654L9.32694 11.4577C9.18849 11.3193 9.01703 11.2484 8.81254 11.2452C8.60806 11.242 8.42826 11.318 8.27314 11.4731C8.12826 11.618 8.05582 11.7936 8.05582 12C8.05582 12.2064 8.12826 12.382 8.27314 12.5269L10.3174 14.5711C10.4981 14.7519 10.709 14.8423 10.95 14.8423C11.1911 14.8423 11.4019 14.7519 11.5827 14.5711L15.7269 10.4269C15.8757 10.2782 15.9491 10.1042 15.9471 9.9048C15.9452 9.70545 15.8718 9.52822 15.7269 9.3731C15.5718 9.21797 15.3936 9.13783 15.1923 9.1327C14.9911 9.12758 14.8129 9.20258 14.6577 9.3577L10.95 13.0654ZM8.40967 21.1827L7.02699 18.8577L4.41162 18.2961C4.18725 18.2525 4.00808 18.1346 3.87412 17.9423C3.74015 17.75 3.68663 17.5416 3.71354 17.3173L3.96932 14.6269L2.19047 12.5923C2.03663 12.4282 1.95972 12.2308 1.95972 12C1.95972 11.7692 2.03663 11.5718 2.19047 11.4077L3.96932 9.3731L3.71354 6.68273C3.68663 6.45836 3.74015 6.25003 3.87412 6.05773C4.00808 5.86541 4.18725 5.74746 4.41162 5.70388L7.02699 5.14235L8.40967 2.81735C8.53018 2.61992 8.69429 2.4853 8.90199 2.4135C9.10968 2.34172 9.32057 2.35262 9.53467 2.4462L12 3.4885L14.4654 2.4462C14.6795 2.35262 14.8904 2.34172 15.0981 2.4135C15.3058 2.4853 15.4699 2.61992 15.5904 2.81735L16.9731 5.14235L19.5885 5.70388C19.8128 5.74746 19.992 5.86541 20.126 6.05773C20.2599 6.25003 20.3135 6.45836 20.2865 6.68273L20.0308 9.3731L21.8096 11.4077C21.9635 11.5718 22.0404 11.7692 22.0404 12C22.0404 12.2308 21.9635 12.4282 21.8096 12.5923L20.0308 14.6269L20.2865 17.3173C20.3135 17.5416 20.2599 17.75 20.126 17.9423C19.992 18.1346 19.8128 18.2525 19.5885 18.2961L16.9731 18.8577L15.5904 21.1827C15.4699 21.3801 15.3058 21.5147 15.0981 21.5865C14.8904 21.6583 14.6795 21.6474 14.4654 21.5538L12 20.5115L9.53467 21.5538C9.32057 21.6474 9.10968 21.6583 8.90199 21.5865C8.69429 21.5147 8.53018 21.3801 8.40967 21.1827ZM9.45004 19.95L12 18.8692L14.5808 19.95L16 17.55L18.75 16.9192L18.5 14.1L20.35 12L18.5 9.86923L18.75 7.05L16 6.45L14.55 4.05L12 5.13078L9.41927 4.05L8.00004 6.45L5.25004 7.05L5.50004 9.86923L3.65004 12L5.50004 14.1L5.25004 16.95L8.00004 17.55L9.45004 19.95Z" fill="#292735"/>
</svg>
