<svg width="17" height="13" viewBox="0 0 17 13" fill="none" xmlns="http://www.w3.org/2000/svg">
<path d="M16.8178 6.29306C15.8807 4.75856 14.6649 3.45506 13.3021 2.52318C11.7944 1.49118 10.1298 0.945557 8.48861 0.945557C6.9827 0.945557 5.50194 1.40118 4.08741 2.29968C2.6449 3.21581 1.33803 4.55418 0.202934 6.27731C0.0747921 6.47205 0.00421928 6.70273 0.000183327 6.94003C-0.00385262 7.17734 0.0588306 7.41056 0.180268 7.61006C1.11562 9.15993 2.31942 10.4653 3.66099 11.3844C5.1715 12.4206 6.79712 12.9456 8.48861 12.9456C10.1429 12.9456 11.811 12.4044 13.3123 11.3811C14.6744 10.4522 15.8878 9.14381 16.8214 7.59656C16.9386 7.40169 17.0006 7.17531 17 6.94426C16.9994 6.71321 16.9361 6.4872 16.8178 6.29306ZM8.50065 10.5456C7.82819 10.5456 7.17084 10.3344 6.61172 9.93885C6.0526 9.54327 5.61681 8.98103 5.35948 8.32322C5.10214 7.6654 5.03481 6.94156 5.166 6.24323C5.29719 5.5449 5.62101 4.90344 6.0965 4.39997C6.572 3.8965 7.17781 3.55364 7.83734 3.41473C8.49688 3.27582 9.1805 3.34712 9.80176 3.61959C10.423 3.89207 10.954 4.35349 11.3276 4.9455C11.7012 5.53752 11.9006 6.23354 11.9006 6.94556C11.8996 7.9 11.5411 8.81504 10.9037 9.48993C10.2663 10.1648 9.40206 10.5445 8.50065 10.5456Z" fill="#292735"/>
</svg>
