<svg width="24" height="24" viewBox="0 0 24 24" fill="none" xmlns="http://www.w3.org/2000/svg">
<mask id="mask0_13_129" style="mask-type:alpha" maskUnits="userSpaceOnUse" x="0" y="0" width="24" height="24">
<rect width="24" height="24" fill="#D9D9D9"/>
</mask>
<g mask="url(#mask0_13_129)">
<path d="M5.3077 20.5C4.80257 20.5 4.375 20.325 4.025 19.975C3.675 19.625 3.5 19.1974 3.5 18.6923V5.30773C3.5 4.8026 3.675 4.37503 4.025 4.02503C4.375 3.67503 4.80257 3.50003 5.3077 3.50003H10.8654C11.0782 3.50003 11.2564 3.57183 11.4 3.71543C11.5435 3.85901 11.6153 4.03721 11.6153 4.25003C11.6153 4.46285 11.5435 4.64105 11.4 4.78463C11.2564 4.92821 11.0782 5.00001 10.8654 5.00001H5.3077C5.23077 5.00001 5.16024 5.03206 5.09612 5.09616C5.03202 5.16027 4.99997 5.2308 4.99997 5.30773V18.6923C4.99997 18.7692 5.03202 18.8397 5.09612 18.9039C5.16024 18.968 5.23077 19 5.3077 19H18.6923C18.7692 19 18.8397 18.968 18.9038 18.9039C18.9679 18.8397 19 18.7692 19 18.6923V13.1346C19 12.9218 19.0718 12.7436 19.2154 12.6C19.3589 12.4564 19.5371 12.3847 19.75 12.3847C19.9628 12.3847 20.141 12.4564 20.2845 12.6C20.4282 12.7436 20.5 12.9218 20.5 13.1346V18.6923C20.5 19.1974 20.325 19.625 19.975 19.975C19.625 20.325 19.1974 20.5 18.6923 20.5H5.3077ZM19 6.05383L10.2461 14.8077C10.1077 14.9461 9.93363 15.017 9.72403 15.0202C9.51441 15.0234 9.33717 14.9525 9.1923 14.8077C9.04743 14.6628 8.975 14.4872 8.975 14.2808C8.975 14.0744 9.04743 13.8987 9.1923 13.7539L17.9461 5.00001H14.75C14.5371 5.00001 14.3589 4.92821 14.2154 4.78463C14.0718 4.64105 14 4.46285 14 4.25003C14 4.03721 14.0718 3.85901 14.2154 3.71543C14.3589 3.57183 14.5371 3.50003 14.75 3.50003H20.5V9.25003C20.5 9.46285 20.4282 9.64105 20.2845 9.78463C20.141 9.92822 19.9628 10 19.75 10C19.5371 10 19.3589 9.92822 19.2154 9.78463C19.0718 9.64105 19 9.46285 19 9.25003V6.05383Z" fill="#1C1B1F"/>
</g>
</svg>
