<svg width="24" height="24" viewBox="0 0 24 24" fill="none" xmlns="http://www.w3.org/2000/svg">
<path d="M11.9808 21.5C10.6846 21.5 9.46024 21.2503 8.30768 20.7509C7.15513 20.2516 6.14872 19.5718 5.28845 18.7115C4.4282 17.8513 3.7484 16.8432 3.24905 15.6875C2.74968 14.5317 2.5 13.3026 2.5 12C2.5 10.6808 2.75642 9.44328 3.26925 8.28753C3.78207 7.13176 4.47853 6.12631 5.35865 5.27118C6.23878 4.41606 7.26827 3.74043 8.4471 3.24428C9.62595 2.74811 10.8833 2.50003 12.2192 2.50003C13.4692 2.50003 14.6538 2.71317 15.773 3.13946C16.8923 3.56574 17.8753 4.15581 18.7221 4.90966C19.5689 5.66349 20.2435 6.55931 20.7461 7.59713C21.2487 8.63495 21.5 9.76026 21.5 10.9731C21.5 12.7038 20.9855 14.0577 19.9567 15.0346C18.9278 16.0115 17.6089 16.5 16 16.5H14.1885C13.9038 16.5 13.6762 16.5929 13.5057 16.7788C13.3352 16.9647 13.25 17.1846 13.25 17.4385C13.25 17.7475 13.375 18.0686 13.625 18.4019C13.875 18.7353 14 19.118 14 19.55C14 20.2103 13.8173 20.7003 13.4519 21.0202C13.0865 21.34 12.5961 21.5 11.9808 21.5ZM6.49998 12.75C6.85638 12.75 7.15381 12.6308 7.39227 12.3923C7.63072 12.1538 7.74995 11.8564 7.74995 11.5C7.74995 11.1436 7.63072 10.8462 7.39227 10.6077C7.15381 10.3693 6.85638 10.25 6.49998 10.25C6.14358 10.25 5.84614 10.3693 5.60768 10.6077C5.36923 10.8462 5.25 11.1436 5.25 11.5C5.25 11.8564 5.36923 12.1538 5.60768 12.3923C5.84614 12.6308 6.14358 12.75 6.49998 12.75ZM9.49998 8.74998C9.85638 8.74998 10.1538 8.63076 10.3923 8.39231C10.6307 8.15384 10.75 7.85641 10.75 7.50001C10.75 7.14361 10.6307 6.84617 10.3923 6.60771C10.1538 6.36926 9.85638 6.25003 9.49998 6.25003C9.14358 6.25003 8.84614 6.36926 8.60768 6.60771C8.36923 6.84617 8.25 7.14361 8.25 7.50001C8.25 7.85641 8.36923 8.15384 8.60768 8.39231C8.84614 8.63076 9.14358 8.74998 9.49998 8.74998ZM14.5 8.74998C14.8564 8.74998 15.1538 8.63076 15.3923 8.39231C15.6307 8.15384 15.75 7.85641 15.75 7.50001C15.75 7.14361 15.6307 6.84617 15.3923 6.60771C15.1538 6.36926 14.8564 6.25003 14.5 6.25003C14.1436 6.25003 13.8461 6.36926 13.6077 6.60771C13.3692 6.84617 13.25 7.14361 13.25 7.50001C13.25 7.85641 13.3692 8.15384 13.6077 8.39231C13.8461 8.63076 14.1436 8.74998 14.5 8.74998ZM17.5 12.75C17.8564 12.75 18.1538 12.6308 18.3923 12.3923C18.6307 12.1538 18.75 11.8564 18.75 11.5C18.75 11.1436 18.6307 10.8462 18.3923 10.6077C18.1538 10.3693 17.8564 10.25 17.5 10.25C17.1436 10.25 16.8461 10.3693 16.6077 10.6077C16.3692 10.8462 16.25 11.1436 16.25 11.5C16.25 11.8564 16.3692 12.1538 16.6077 12.3923C16.8461 12.6308 17.1436 12.75 17.5 12.75ZM11.9808 20C12.1436 20 12.2708 19.9599 12.3625 19.8798C12.4541 19.7997 12.5 19.6898 12.5 19.55C12.5 19.3167 12.375 19.0545 12.125 18.7635C11.875 18.4724 11.75 18.0167 11.75 17.3962C11.75 16.6833 11.9916 16.1058 12.475 15.6635C12.9583 15.2212 13.55 15 14.25 15H16C17.1769 15 18.1378 14.6551 18.8827 13.9654C19.6275 13.2756 20 12.2782 20 10.9731C20 8.95 19.2243 7.28205 17.6731 5.96923C16.1218 4.65641 14.3038 4.00001 12.2192 4.00001C9.9333 4.00001 7.99196 4.77501 6.39518 6.32501C4.79838 7.87501 3.99998 9.76667 3.99998 12C3.99998 14.2167 4.77914 16.1042 6.33748 17.6625C7.89581 19.2208 9.7769 20 11.9808 20Z" fill="#1C1B1F"/>
</svg>
