<svg width="24" height="24" viewBox="0 0 24 24" fill="none" xmlns="http://www.w3.org/2000/svg">
<mask id="mask0_281_626" style="mask-type:alpha" maskUnits="userSpaceOnUse" x="0" y="0" width="24" height="24">
<rect width="24" height="24" fill="#D9D9D9"/>
</mask>
<g mask="url(#mask0_281_626)">
<path d="M10.1542 15.75C10.3668 15.75 10.5448 15.6781 10.6884 15.5344C10.832 15.3906 10.9038 15.2125 10.9038 15V9.00001C10.9038 8.78751 10.8319 8.60938 10.6881 8.46563C10.5443 8.3219 10.3661 8.25003 10.1535 8.25003C9.9409 8.25003 9.76281 8.3219 9.61923 8.46563C9.47564 8.60938 9.40385 8.78751 9.40385 9.00001V15C9.40385 15.2125 9.47576 15.3906 9.61958 15.5344C9.76338 15.6781 9.94158 15.75 10.1542 15.75ZM13.8465 15.75C14.0591 15.75 14.2371 15.6781 14.3807 15.5344C14.5243 15.3906 14.5961 15.2125 14.5961 15V9.00001C14.5961 8.78751 14.5242 8.60938 14.3804 8.46563C14.2366 8.3219 14.0584 8.25003 13.8458 8.25003C13.6332 8.25003 13.4551 8.3219 13.3115 8.46563C13.1679 8.60938 13.0961 8.78751 13.0961 9.00001V15C13.0961 15.2125 13.168 15.3906 13.3119 15.5344C13.4557 15.6781 13.6339 15.75 13.8465 15.75ZM12.0016 21.5C10.6877 21.5 9.45268 21.2506 8.29655 20.752C7.1404 20.2533 6.13472 19.5766 5.2795 18.7217C4.42427 17.8669 3.74721 16.8616 3.24833 15.706C2.74944 14.5504 2.5 13.3156 2.5 12.0017C2.5 10.6877 2.74933 9.45271 3.248 8.29658C3.74667 7.14043 4.42342 6.13475 5.27825 5.27953C6.1331 4.4243 7.13834 3.74724 8.29398 3.24836C9.44959 2.74947 10.6844 2.50003 11.9983 2.50003C13.3122 2.50003 14.5473 2.74936 15.7034 3.24803C16.8596 3.7467 17.8652 4.42345 18.7205 5.27828C19.5757 6.13313 20.2527 7.13837 20.7516 8.29401C21.2505 9.44962 21.5 10.6844 21.5 11.9983C21.5 13.3123 21.2506 14.5473 20.752 15.7034C20.2533 16.8596 19.5765 17.8653 18.7217 18.7205C17.8669 19.5757 16.8616 20.2528 15.706 20.7517C14.5504 21.2505 13.3156 21.5 12.0016 21.5ZM12 20C14.2333 20 16.125 19.225 17.675 17.675C19.225 16.125 20 14.2333 20 12C20 9.76667 19.225 7.87501 17.675 6.32501C16.125 4.77501 14.2333 4.00001 12 4.00001C9.76664 4.00001 7.87498 4.77501 6.32498 6.32501C4.77498 7.87501 3.99998 9.76667 3.99998 12C3.99998 14.2333 4.77498 16.125 6.32498 17.675C7.87498 19.225 9.76664 20 12 20Z" fill="#1C1B1F"/>
</g>
</svg>
