<svg width="24" height="24" viewBox="0 0 24 24" fill="none" xmlns="http://www.w3.org/2000/svg">
<mask id="mask0_2_1223" style="mask-type:alpha" maskUnits="userSpaceOnUse" x="0" y="0" width="24" height="24">
<rect width="24" height="24" fill="#D9D9D9"/>
</mask>
<g mask="url(#mask0_2_1223)">
<path d="M11.25 11.1L9.32692 13.023C9.17821 13.1717 9.00161 13.2451 8.79712 13.2432C8.59264 13.2413 8.41283 13.1628 8.2577 13.0077C8.11283 12.8525 8.03784 12.6769 8.03272 12.4807C8.02759 12.2846 8.10258 12.1089 8.2577 11.9538L11.3673 8.84426C11.4609 8.75066 11.5596 8.68463 11.6634 8.64618C11.7673 8.60771 11.8795 8.58848 12 8.58848C12.1205 8.58848 12.2327 8.60771 12.3365 8.64618C12.4403 8.68463 12.5391 8.75066 12.6327 8.84426L15.7422 11.9538C15.891 12.1025 15.9644 12.2766 15.9624 12.4759C15.9605 12.6753 15.8871 12.8525 15.7422 13.0077C15.5871 13.1628 15.4089 13.2429 15.2077 13.248C15.0064 13.2532 14.8282 13.1782 14.673 13.023L12.7499 11.1V18.75C12.7499 18.9628 12.6782 19.141 12.5346 19.2846C12.391 19.4282 12.2128 19.5 12 19.5C11.7872 19.5 11.609 19.4282 11.4654 19.2846C11.3218 19.141 11.25 18.9628 11.25 18.75V11.1ZM4.5 8.26926V6.30773C4.5 5.8026 4.675 5.37503 5.025 5.02503C5.375 4.67503 5.80257 4.50003 6.3077 4.50003H17.6922C18.1974 4.50003 18.625 4.67503 18.975 5.02503C19.325 5.37503 19.5 5.8026 19.5 6.30773V8.26926C19.5 8.48207 19.4281 8.66027 19.2845 8.80386C19.141 8.94744 18.9628 9.01923 18.75 9.01923C18.5371 9.01923 18.3589 8.94744 18.2154 8.80386C18.0718 8.66027 18 8.48207 18 8.26926V6.30773C18 6.2308 17.9679 6.16027 17.9038 6.09616C17.8397 6.03206 17.7692 6.00001 17.6922 6.00001H6.3077C6.23077 6.00001 6.16024 6.03206 6.09612 6.09616C6.03202 6.16027 5.99997 6.2308 5.99997 6.30773V8.26926C5.99997 8.48207 5.92818 8.66027 5.7846 8.80386C5.64102 8.94744 5.46282 9.01923 5.25 9.01923C5.03718 9.01923 4.85898 8.94744 4.7154 8.80386C4.5718 8.66027 4.5 8.48207 4.5 8.26926Z" fill="#292735"/>
</g>
</svg>
