<svg width="20" height="21" viewBox="0 0 20 21" fill="none" xmlns="http://www.w3.org/2000/svg">
<path d="M10.5705 11.0168L12.6591 13.1162C12.7739 13.2303 12.8313 13.3728 12.8313 13.5439C12.8313 13.7149 12.7739 13.8624 12.6591 13.9864C12.5358 14.1157 12.3881 14.179 12.2159 14.1763C12.0437 14.1736 11.896 14.1103 11.7727 13.9864L9.55177 11.754C9.47417 11.676 9.4173 11.591 9.38117 11.4991C9.34504 11.4071 9.32697 11.3121 9.32697 11.2139V8.04246C9.32697 7.86538 9.38658 7.71694 9.5058 7.59715C9.62503 7.47736 9.77277 7.41746 9.94901 7.41746C10.1253 7.41746 10.2729 7.47736 10.392 7.59715C10.511 7.71694 10.5705 7.86538 10.5705 8.04246V11.0168ZM9.94847 5.78286C9.77222 5.78286 9.62457 5.72296 9.50553 5.60317C9.38649 5.48338 9.32697 5.33495 9.32697 5.15788V4.11619H10.5705V5.15788C10.5705 5.33495 10.5109 5.48338 10.3917 5.60317C10.2725 5.72296 10.1247 5.78286 9.94847 5.78286ZM14.9231 10.7826C14.9231 10.6054 14.9827 10.457 15.1018 10.3374C15.221 10.2177 15.3687 10.1579 15.5448 10.1579H16.5812V11.4078H15.5448C15.3687 11.4078 15.221 11.3479 15.1018 11.2281C14.9827 11.1082 14.9231 10.9597 14.9231 10.7826ZM9.94901 15.7829C10.1253 15.7829 10.2729 15.8428 10.392 15.9625C10.511 16.0823 10.5705 16.2308 10.5705 16.4078V17.4495H9.32697V16.4078C9.32697 16.2308 9.38658 16.0823 9.5058 15.9625C9.62503 15.8428 9.77277 15.7829 9.94901 15.7829ZM4.97442 10.7831C4.97442 10.9603 4.91483 11.1087 4.79566 11.2284C4.67648 11.348 4.52881 11.4078 4.35265 11.4078H3.31631V10.1579H4.35265C4.52881 10.1579 4.67648 10.2178 4.79566 10.3376C4.91483 10.4575 4.97442 10.606 4.97442 10.7831ZM9.95013 18.6995C8.86081 18.6995 7.8369 18.4917 6.8784 18.0762C5.91989 17.6606 5.08613 17.0967 4.37711 16.3843C3.66807 15.6719 3.10676 14.8342 2.69316 13.8712C2.27955 12.9082 2.07275 11.8792 2.07275 10.7843C2.07275 9.68931 2.27946 8.66011 2.69289 7.69667C3.10631 6.73321 3.66737 5.89514 4.37607 5.18246C5.08479 4.46977 5.91819 3.90555 6.87627 3.48982C7.83434 3.07408 8.85803 2.86621 9.94735 2.86621C11.0367 2.86621 12.0606 3.07399 13.0191 3.48955C13.9776 3.9051 14.8114 4.46906 15.5204 5.18142C16.2294 5.89379 16.7907 6.7315 17.2043 7.69452C17.6179 8.65754 17.8247 9.68652 17.8247 10.7815C17.8247 11.8764 17.618 12.9056 17.2046 13.869C16.7912 14.8325 16.2301 15.6706 15.5214 16.3833C14.8127 17.0959 13.9793 17.6602 13.0212 18.0759C12.0631 18.4916 11.0395 18.6995 9.95013 18.6995ZM16.5812 10.7829C16.5812 8.92175 15.9387 7.34536 14.6536 6.05369C13.3686 4.76202 11.8003 4.11619 9.94874 4.11619C8.09719 4.11619 6.5289 4.76202 5.24386 6.05369C3.95883 7.34536 3.31631 8.92175 3.31631 10.7829C3.31631 12.644 3.95883 14.2204 5.24386 15.512C6.5289 16.8037 8.09719 17.4495 9.94874 17.4495C11.8003 17.4495 13.3686 16.8037 14.6536 15.512C15.9387 14.2204 16.5812 12.644 16.5812 10.7829Z" fill="#9A9AA2"/>
</svg>