<svg width="24" height="24" viewBox="0 0 24 24" fill="none" xmlns="http://www.w3.org/2000/svg">
<path d="M9.99998 7.74999C9.78748 7.74999 9.60936 7.67809 9.46563 7.53429C9.32188 7.39047 9.25 7.21227 9.25 6.99969C9.25 6.78709 9.32188 6.60899 9.46563 6.46541C9.60936 6.32183 9.78748 6.25004 9.99998 6.25004H14C14.2125 6.25004 14.3906 6.32194 14.5344 6.46574C14.6781 6.60955 14.75 6.78775 14.75 7.00034C14.75 7.21294 14.6781 7.39103 14.5344 7.53461C14.3906 7.67819 14.2125 7.74999 14 7.74999H9.99998ZM7.15382 21.5577C6.66794 21.5577 6.25481 21.3875 5.91442 21.0471C5.57404 20.7067 5.40385 20.2936 5.40385 19.8077C5.40385 19.3218 5.57404 18.9087 5.91442 18.5683C6.25481 18.2279 6.66794 18.0577 7.15382 18.0577C7.63972 18.0577 8.05287 18.2279 8.39325 18.5683C8.73363 18.9087 8.90382 19.3218 8.90382 19.8077C8.90382 20.2936 8.73363 20.7067 8.39325 21.0471C8.05287 21.3875 7.63972 21.5577 7.15382 21.5577ZM16.8461 21.5577C16.3602 21.5577 15.9471 21.3875 15.6067 21.0471C15.2663 20.7067 15.0961 20.2936 15.0961 19.8077C15.0961 19.3218 15.2663 18.9087 15.6067 18.5683C15.9471 18.2279 16.3602 18.0577 16.8461 18.0577C17.332 18.0577 17.7451 18.2279 18.0855 18.5683C18.4259 18.9087 18.5961 19.3218 18.5961 19.8077C18.5961 20.2936 18.4259 20.7067 18.0855 21.0471C17.7451 21.3875 17.332 21.5577 16.8461 21.5577ZM3.40385 3.75001H2.25C2.0375 3.75001 1.85938 3.67811 1.71563 3.53431C1.57188 3.39049 1.5 3.21229 1.5 2.99971C1.5 2.78711 1.57188 2.60902 1.71563 2.46544C1.85938 2.32185 2.0375 2.25006 2.25 2.25006H3.79285C3.96427 2.25006 4.12433 2.29504 4.27305 2.38501C4.42177 2.47498 4.53331 2.60243 4.60768 2.76736L8.5346 11.0577H15.3519C15.4096 11.0577 15.4609 11.0433 15.5058 11.0145C15.5506 10.9856 15.5891 10.9455 15.6211 10.8943L19.1115 4.62501C19.1756 4.50323 19.2638 4.41029 19.3761 4.34619C19.4884 4.28209 19.6131 4.25004 19.7503 4.25004C20.0373 4.25004 20.2525 4.37247 20.3961 4.61734C20.5397 4.8622 20.5422 5.10963 20.4038 5.35961L16.9346 11.6423C16.7705 11.9308 16.5533 12.1554 16.2832 12.3163C16.0131 12.4772 15.7174 12.5577 15.3961 12.5577H8.09998L6.94227 14.6731C6.89099 14.75 6.88939 14.8333 6.93747 14.9231C6.98556 15.0128 7.05767 15.0577 7.15382 15.0577H17.8461C18.0586 15.0577 18.2367 15.1296 18.3805 15.2734C18.5242 15.4172 18.5961 15.5954 18.5961 15.808C18.5961 16.0206 18.5242 16.1987 18.3805 16.3423C18.2367 16.4859 18.0586 16.5577 17.8461 16.5577H7.15382C6.48717 16.5577 5.98366 16.2727 5.64327 15.7029C5.30289 15.133 5.29359 14.5564 5.61538 13.9731L7.04233 11.4077L3.40385 3.75001Z" fill="#1C1B1F"/>
</svg>
