<svg width="24" height="24" viewBox="0 0 24 24" fill="none" xmlns="http://www.w3.org/2000/svg">
<path d="M12.75 11.6962V7.74998C12.75 7.5375 12.6781 7.35938 12.5343 7.21563C12.3904 7.07188 12.2122 7.00001 11.9997 7.00001C11.7871 7.00001 11.609 7.07188 11.4654 7.21563C11.3218 7.35938 11.25 7.5375 11.25 7.74998V11.9269C11.25 12.0446 11.2718 12.1587 11.3154 12.2691C11.359 12.3794 11.4276 12.4814 11.5212 12.575L14.9462 16C15.0846 16.1385 15.2587 16.2093 15.4683 16.2125C15.6779 16.2157 15.8551 16.1449 16 16C16.1448 15.8551 16.2173 15.6795 16.2173 15.4731C16.2173 15.2667 16.1448 15.091 16 14.9462L12.75 11.6962ZM12.0016 21.5C10.6877 21.5 9.45268 21.2506 8.29655 20.752C7.1404 20.2533 6.13472 19.5766 5.2795 18.7217C4.42427 17.8669 3.74721 16.8616 3.24833 15.706C2.74944 14.5504 2.5 13.3156 2.5 12.0017C2.5 10.6877 2.74933 9.45271 3.248 8.29658C3.74667 7.14043 4.42342 6.13475 5.27825 5.27953C6.1331 4.4243 7.13834 3.74724 8.29398 3.24836C9.44959 2.74947 10.6844 2.50003 11.9983 2.50003C13.3122 2.50003 14.5473 2.74936 15.7034 3.24803C16.8596 3.7467 17.8652 4.42345 18.7205 5.27828C19.5757 6.13313 20.2527 7.13837 20.7516 8.29401C21.2505 9.44962 21.5 10.6844 21.5 11.9983C21.5 13.3123 21.2506 14.5473 20.752 15.7034C20.2533 16.8596 19.5765 17.8653 18.7217 18.7205C17.8669 19.5757 16.8616 20.2528 15.706 20.7517C14.5504 21.2505 13.3156 21.5 12.0016 21.5ZM12 20C14.2166 20 16.1041 19.2208 17.6625 17.6625C19.2208 16.1042 20 14.2167 20 12C20 9.78334 19.2208 7.89584 17.6625 6.33751C16.1041 4.77917 14.2166 4.00001 12 4.00001C9.78331 4.00001 7.89581 4.77917 6.33748 6.33751C4.77914 7.89584 3.99998 9.78334 3.99998 12C3.99998 14.2167 4.77914 16.1042 6.33748 17.6625C7.89581 19.2208 9.78331 20 12 20Z" fill="#292735"/>
</svg>
