<svg width="98" height="20" viewBox="0 0 98 20" fill="none" xmlns="http://www.w3.org/2000/svg">
<path d="M10.6251 10.2339L12.7245 12.3333C12.8399 12.4473 12.8976 12.5899 12.8976 12.7609C12.8976 12.932 12.8399 13.0795 12.7245 13.2034C12.6006 13.3327 12.4521 13.396 12.279 13.3933C12.1059 13.3907 11.9574 13.3274 11.8335 13.2034L9.60112 10.971C9.52312 10.8931 9.46596 10.8081 9.42964 10.7161C9.39332 10.6241 9.37516 10.5291 9.37516 10.431V7.2595C9.37516 7.08242 9.43508 6.93398 9.55491 6.81419C9.67476 6.6944 9.82326 6.6345 10.0004 6.6345C10.1776 6.6345 10.326 6.6944 10.4456 6.81419C10.5653 6.93398 10.6251 7.08242 10.6251 7.2595V10.2339ZM9.99987 4.9999C9.82271 4.9999 9.6743 4.94 9.55464 4.82021C9.43499 4.70042 9.37516 4.55199 9.37516 4.37492V3.33323H10.6251V4.37492C10.6251 4.55199 10.5652 4.70042 10.4454 4.82021C10.3255 4.94 10.177 4.9999 9.99987 4.9999ZM15.0001 9.99963C15.0001 9.82246 15.06 9.67405 15.1798 9.5544C15.2996 9.43475 15.4481 9.37492 15.6251 9.37492H16.6668V10.6249H15.6251C15.4481 10.6249 15.2996 10.565 15.1798 10.4451C15.06 10.3253 15.0001 10.1768 15.0001 9.99963ZM10.0004 14.9999C10.1776 14.9999 10.326 15.0598 10.4456 15.1796C10.5653 15.2994 10.6251 15.4478 10.6251 15.6249V16.6666H9.37516V15.6249C9.37516 15.4478 9.43508 15.2994 9.55491 15.1796C9.67476 15.0598 9.82326 14.9999 10.0004 14.9999ZM5.00014 10.0002C5.00014 10.1773 4.94025 10.3257 4.82045 10.4454C4.70066 10.5651 4.55223 10.6249 4.37516 10.6249H3.33348V9.37492H4.37516C4.55223 9.37492 4.70066 9.43484 4.82045 9.55467C4.94025 9.67452 5.00014 9.82302 5.00014 10.0002ZM10.0015 17.9165C8.90659 17.9165 7.8774 17.7088 6.91395 17.2932C5.9505 16.8777 5.11243 16.3137 4.39975 15.6013C3.68705 14.889 3.12284 14.0513 2.7071 13.0882C2.29136 12.1252 2.0835 11.0962 2.0835 10.0013C2.0835 8.90635 2.29127 7.87716 2.70683 6.91371C3.12239 5.95025 3.68634 5.11218 4.3987 4.3995C5.11108 3.68681 5.94878 3.12259 6.91181 2.70686C7.87482 2.29112 8.9038 2.08325 9.99875 2.08325C11.0937 2.08325 12.1229 2.29103 13.0863 2.70659C14.0498 3.12214 14.8879 3.6861 15.6005 4.39846C16.3132 5.11084 16.8774 5.94854 17.2932 6.91157C17.7089 7.87458 17.9168 8.90356 17.9168 9.9985C17.9168 11.0934 17.709 12.1226 17.2935 13.0861C16.8779 14.0495 16.3139 14.8876 15.6016 15.6003C14.8892 16.313 14.0515 16.8772 13.0885 17.2929C12.1255 17.7087 11.0965 17.9165 10.0015 17.9165ZM16.6668 9.9999C16.6668 8.13879 16.021 6.5624 14.7293 5.27073C13.4376 3.97907 11.8613 3.33323 10.0001 3.33323C8.13903 3.33323 6.56264 3.97907 5.27098 5.27073C3.97931 6.5624 3.33348 8.13879 3.33348 9.9999C3.33348 11.861 3.97931 13.4374 5.27098 14.7291C6.56264 16.0207 8.13903 16.6666 10.0001 16.6666C11.8613 16.6666 13.4376 16.0207 14.7293 14.7291C16.021 13.4374 16.6668 11.861 16.6668 9.9999Z" fill="white"/>
<path d="M26.46 12.956H31.356V14H25.26V5.6H31.188V6.644H26.46V9.224H30.672V10.244H26.46V12.956ZM36.5271 7.58C38.0751 7.58 39.1671 8.468 39.1671 10.34V14H38.0151V10.472C38.0151 9.224 37.3911 8.612 36.2991 8.612C35.0751 8.612 34.2831 9.344 34.2831 10.724V14H33.1311V7.64H34.2351V8.6C34.7031 7.952 35.5191 7.58 36.5271 7.58ZM49.2977 7.64H50.4497V14H49.3577V13.04C48.8897 13.7 48.0977 14.072 47.1977 14.072C45.5537 14.072 44.4617 13.172 44.4617 11.3V7.64H45.6137V11.168C45.6137 12.416 46.2377 13.04 47.3297 13.04C48.5297 13.04 49.2977 12.296 49.2977 10.928V7.64ZM56.0388 7.58C57.5868 7.58 58.6788 8.468 58.6788 10.34V14H57.5268V10.472C57.5268 9.224 56.9028 8.612 55.8108 8.612C54.5868 8.612 53.7948 9.344 53.7948 10.724V14H52.6428V7.64H53.7468V8.6C54.2148 7.952 55.0308 7.58 56.0388 7.58ZM63.1268 7.58C64.8668 7.58 65.8508 8.42 65.8508 10.16V14H64.7588V13.16C64.3748 13.736 63.6668 14.072 62.6708 14.072C61.2308 14.072 60.3188 13.304 60.3188 12.2C60.3188 11.18 60.9788 10.34 62.8748 10.34H64.6988V10.112C64.6988 9.14 64.1348 8.576 62.9948 8.576C62.2388 8.576 61.4708 8.84 60.9788 9.26L60.4988 8.396C61.1588 7.868 62.1068 7.58 63.1268 7.58ZM62.8628 13.184C63.7268 13.184 64.4108 12.788 64.6988 12.056V11.168H62.9228C61.7828 11.168 61.4588 11.612 61.4588 12.152C61.4588 12.788 61.9868 13.184 62.8628 13.184ZM74.6013 7.58C76.1493 7.58 77.2413 8.468 77.2413 10.34V14H76.0893V10.472C76.0893 9.224 75.4653 8.612 74.3733 8.612C73.1493 8.612 72.3573 9.344 72.3573 10.724V14H71.2053V5.096H72.3573V8.54C72.8373 7.928 73.6293 7.58 74.6013 7.58ZM82.1324 14.072C80.2244 14.072 78.8204 12.716 78.8204 10.82C78.8204 8.924 80.2244 7.58 82.1324 7.58C84.0404 7.58 85.4324 8.924 85.4324 10.82C85.4324 12.716 84.0404 14.072 82.1324 14.072ZM82.1324 13.064C83.3564 13.064 84.2684 12.176 84.2684 10.82C84.2684 9.464 83.3564 8.588 82.1324 8.588C80.9084 8.588 79.9844 9.464 79.9844 10.82C79.9844 12.176 80.9084 13.064 82.1324 13.064ZM88.1296 8.708C88.5376 7.964 89.3296 7.58 90.4456 7.58V8.696C90.3496 8.684 90.2656 8.684 90.1816 8.684C88.9456 8.684 88.1776 9.44 88.1776 10.832V14H87.0256V7.64H88.1296V8.708ZM94.1697 7.58C95.9097 7.58 96.8937 8.42 96.8937 10.16V14H95.8017V13.16C95.4177 13.736 94.7097 14.072 93.7137 14.072C92.2737 14.072 91.3617 13.304 91.3617 12.2C91.3617 11.18 92.0217 10.34 93.9177 10.34H95.7417V10.112C95.7417 9.14 95.1777 8.576 94.0377 8.576C93.2817 8.576 92.5137 8.84 92.0217 9.26L91.5417 8.396C92.2017 7.868 93.1497 7.58 94.1697 7.58ZM93.9057 13.184C94.7697 13.184 95.4537 12.788 95.7417 12.056V11.168H93.9657C92.8257 11.168 92.5017 11.612 92.5017 12.152C92.5017 12.788 93.0297 13.184 93.9057 13.184Z" fill="white"/>
</svg>
