<svg width="24" height="24" viewBox="0 0 24 24" fill="none" xmlns="http://www.w3.org/2000/svg">
<path d="M7.15385 21.5577C6.66797 21.5577 6.25483 21.3875 5.91445 21.0471C5.57407 20.7067 5.40388 20.2936 5.40388 19.8077C5.40388 19.3218 5.57407 18.9087 5.91445 18.5683C6.25483 18.2279 6.66797 18.0577 7.15385 18.0577C7.63975 18.0577 8.05289 18.2279 8.39328 18.5683C8.73366 18.9087 8.90385 19.3218 8.90385 19.8077C8.90385 20.2936 8.73366 20.7067 8.39328 21.0471C8.05289 21.3875 7.63975 21.5577 7.15385 21.5577ZM16.8462 21.5577C16.3603 21.5577 15.9471 21.3875 15.6067 21.0471C15.2663 20.7067 15.0962 20.2936 15.0962 19.8077C15.0962 19.3218 15.2663 18.9087 15.6067 18.5683C15.9471 18.2279 16.3603 18.0577 16.8462 18.0577C17.332 18.0577 17.7452 18.2279 18.0856 18.5683C18.4259 18.9087 18.5961 19.3218 18.5961 19.8077C18.5961 20.2936 18.4259 20.7067 18.0856 21.0471C17.7452 21.3875 17.332 21.5577 16.8462 21.5577ZM6.01538 5.75001L8.55 11.0577H15.3673C15.425 11.0577 15.4763 11.0433 15.5212 11.0144C15.566 10.9856 15.6045 10.9455 15.6366 10.8942L18.3192 6.01923C18.3577 5.94871 18.3609 5.88621 18.3289 5.83173C18.2968 5.77723 18.2423 5.74998 18.1654 5.74998L6.01538 5.75001ZM5.29615 4.25006H19.1807C19.5897 4.25006 19.899 4.42409 20.1086 4.77216C20.3182 5.12024 20.3282 5.47569 20.1384 5.83851L16.9346 11.6423C16.7705 11.9307 16.5535 12.1554 16.2836 12.3163C16.0138 12.4772 15.7179 12.5577 15.3962 12.5577H8.1L6.9423 14.6731C6.89102 14.75 6.88942 14.8333 6.9375 14.9231C6.98558 15.0128 7.0577 15.0577 7.15385 15.0577H17.8462C18.059 15.0577 18.2372 15.1295 18.3808 15.2731C18.5243 15.4167 18.5961 15.5949 18.5961 15.8077C18.5961 16.0205 18.5243 16.1987 18.3808 16.3423C18.2372 16.4859 18.059 16.5577 17.8462 16.5577H7.15385C6.4872 16.5577 5.98624 16.2702 5.65098 15.6952C5.31573 15.1202 5.30387 14.5461 5.6154 13.9731L7.04235 11.4077L3.40388 3.74998H2.25003C2.03719 3.74998 1.85899 3.67819 1.71542 3.53461C1.57181 3.39102 1.5 3.21282 1.5 3.00001C1.5 2.78719 1.5718 2.60899 1.7154 2.46541C1.85898 2.32182 2.03718 2.25003 2.25 2.25003H3.77883C3.94934 2.25003 4.10832 2.29522 4.25575 2.38561C4.40318 2.47599 4.51537 2.60323 4.5923 2.76733L5.29615 4.25006Z" fill="#1C1B1F"/>
</svg>
