<svg width="20" height="20" viewBox="0 0 20 20" fill="none" xmlns="http://www.w3.org/2000/svg">
<mask id="mask0_8996_9253" style="mask-type:alpha" maskUnits="userSpaceOnUse" x="0" y="0" width="20" height="20">
<rect width="20" height="20" fill="#D9D9D9"/>
</mask>
<g mask="url(#mask0_8996_9253)">
<path d="M5.0957 13.798V6.2019C5.0957 6.02482 5.15563 5.87638 5.27547 5.75659C5.39532 5.6368 5.54382 5.5769 5.72097 5.5769C5.89813 5.5769 6.04654 5.6368 6.1662 5.75659C6.28586 5.87638 6.34568 6.02482 6.34568 6.2019V13.798C6.34568 13.9751 6.28576 14.1235 6.16591 14.2433C6.04606 14.3631 5.89756 14.423 5.72041 14.423C5.54326 14.423 5.39485 14.3631 5.27518 14.2433C5.15553 14.1235 5.0957 13.9751 5.0957 13.798ZM13.7318 13.6489L9.20627 10.6233C9.09195 10.5453 9.00754 10.454 8.95306 10.3493C8.89857 10.2446 8.87133 10.1282 8.87133 9.99995C8.87133 9.87174 8.89857 9.75529 8.95306 9.65059C9.00754 9.5459 9.09195 9.45455 9.20627 9.37655L13.7318 6.35095C13.796 6.30074 13.8643 6.26869 13.937 6.2548C14.0096 6.24091 14.0807 6.23397 14.1501 6.23397C14.351 6.23397 14.5267 6.30301 14.6774 6.44109C14.828 6.57918 14.9033 6.7612 14.9033 6.98715V13.0127C14.9033 13.2387 14.828 13.4207 14.6774 13.5588C14.5267 13.6969 14.351 13.7659 14.1501 13.7659C14.0807 13.7659 14.0096 13.759 13.937 13.7451C13.8643 13.7312 13.796 13.6992 13.7318 13.6489ZM13.6533 12.0833V7.91659L10.5155 9.99995L13.6533 12.0833Z" fill="white"/>
</g>
</svg>