<svg width="20" height="20" viewBox="0 0 20 20" fill="none" xmlns="http://www.w3.org/2000/svg">
<mask id="mask0_11423_8292" style="mask-type:alpha" maskUnits="userSpaceOnUse" x="0" y="0" width="20" height="20">
<rect width="20" height="20" fill="#D9D9D9"/>
</mask>
<g mask="url(#mask0_11423_8292)">
<path d="M5.09619 13.7982V6.20215C5.09619 6.02507 5.15611 5.87663 5.27596 5.75684C5.39581 5.63704 5.54431 5.57715 5.72146 5.57715C5.89862 5.57715 6.04702 5.63704 6.16669 5.75684C6.28634 5.87663 6.34617 6.02507 6.34617 6.20215V13.7982C6.34617 13.9753 6.28625 14.1238 6.1664 14.2435C6.04655 14.3633 5.89805 14.4232 5.7209 14.4232C5.54375 14.4232 5.39534 14.3633 5.27567 14.2435C5.15602 14.1238 5.09619 13.9753 5.09619 13.7982ZM13.7323 13.6492L9.20675 10.6236C9.09243 10.5456 9.00803 10.4542 8.95355 10.3495C8.89906 10.2449 8.87182 10.1284 8.87182 10.0002C8.87182 9.87198 8.89906 9.75553 8.95355 9.65084C9.00803 9.54614 9.09243 9.45479 9.20675 9.37679L13.7323 6.35119C13.7964 6.30098 13.8648 6.26893 13.9375 6.25504C14.0101 6.24116 14.0812 6.23421 14.1506 6.23421C14.3515 6.23421 14.5272 6.30325 14.6779 6.44134C14.8285 6.57942 14.9038 6.76144 14.9038 6.9874V13.013C14.9038 13.2389 14.8285 13.421 14.6779 13.559C14.5272 13.6971 14.3515 13.7662 14.1506 13.7662C14.0812 13.7662 14.0101 13.7592 13.9375 13.7453C13.8648 13.7314 13.7964 13.6994 13.7323 13.6492ZM13.6538 12.0835V7.91684L10.516 10.0002L13.6538 12.0835Z" fill="#15151F"/>
</g>
</svg>
