<svg width="20" height="20" viewBox="0 0 20 20" fill="none" xmlns="http://www.w3.org/2000/svg">
<mask id="mask0_11423_16349" style="mask-type:alpha" maskUnits="userSpaceOnUse" x="0" y="0" width="20" height="20">
<rect width="20" height="20" fill="#D9D9D9"/>
</mask>
<g mask="url(#mask0_11423_16349)">
<path d="M13.6538 13.7982V6.20215C13.6538 6.02507 13.7138 5.87663 13.8336 5.75684C13.9535 5.63704 14.102 5.57715 14.2791 5.57715C14.4563 5.57715 14.6047 5.63704 14.7243 5.75684C14.844 5.87663 14.9038 6.02507 14.9038 6.20215V13.7982C14.9038 13.9753 14.8439 14.1238 14.724 14.2435C14.6042 14.3633 14.4557 14.4232 14.2785 14.4232C14.1014 14.4232 13.953 14.3633 13.8333 14.2435C13.7137 14.1238 13.6538 13.9753 13.6538 13.7982ZM5.09619 13.013V6.9874C5.09619 6.76144 5.17151 6.57942 5.32215 6.44134C5.47279 6.30325 5.64854 6.23421 5.8494 6.23421C5.91884 6.23421 5.98989 6.24116 6.06252 6.25504C6.13518 6.26893 6.20356 6.30098 6.26767 6.35119L10.7933 9.37679C10.9076 9.45479 10.992 9.54614 11.0465 9.65084C11.1009 9.75553 11.1282 9.87198 11.1282 10.0002C11.1282 10.1284 11.1009 10.2449 11.0465 10.3495C10.992 10.4542 10.9076 10.5456 10.7933 10.6236L6.26767 13.6492C6.20356 13.6994 6.13518 13.7314 6.06252 13.7453C5.98989 13.7592 5.91884 13.7662 5.8494 13.7662C5.64854 13.7662 5.47279 13.6971 5.32215 13.559C5.17151 13.421 5.09619 13.2389 5.09619 13.013ZM6.34617 12.0835L9.484 10.0002L6.34617 7.91684V12.0835Z" fill="#15151F"/>
</g>
</svg>