<svg width="20" height="20" viewBox="0 0 20 20" fill="none" xmlns="http://www.w3.org/2000/svg">
<mask id="mask0_8996_12258" style="mask-type:alpha" maskUnits="userSpaceOnUse" x="0" y="0" width="20" height="20">
<rect width="20" height="20" fill="#D9D9D9"/>
</mask>
<g mask="url(#mask0_8996_12258)">
<path d="M13.6533 13.798V6.2019C13.6533 6.02482 13.7133 5.87638 13.8331 5.75659C13.953 5.6368 14.1015 5.5769 14.2786 5.5769C14.4558 5.5769 14.6042 5.6368 14.7238 5.75659C14.8435 5.87638 14.9033 6.02482 14.9033 6.2019V13.798C14.9033 13.9751 14.8434 14.1235 14.7236 14.2433C14.6037 14.3631 14.4552 14.423 14.2781 14.423C14.1009 14.423 13.9525 14.3631 13.8328 14.2433C13.7132 14.1235 13.6533 13.9751 13.6533 13.798ZM5.0957 13.0127V6.98715C5.0957 6.7612 5.17102 6.57918 5.32166 6.44109C5.4723 6.30301 5.64805 6.23397 5.84891 6.23397C5.91836 6.23397 5.9894 6.24091 6.06204 6.2548C6.13469 6.26869 6.20307 6.30074 6.26718 6.35095L10.7928 9.37655C10.9071 9.45455 10.9915 9.5459 11.046 9.65059C11.1005 9.75529 11.1277 9.87174 11.1277 9.99995C11.1277 10.1282 11.1005 10.2446 11.046 10.3493C10.9915 10.454 10.9071 10.5453 10.7928 10.6233L6.26718 13.6489C6.20307 13.6992 6.13469 13.7312 6.06204 13.7451C5.9894 13.759 5.91836 13.7659 5.84891 13.7659C5.64805 13.7659 5.4723 13.6969 5.32166 13.5588C5.17102 13.4207 5.0957 13.2387 5.0957 13.0127ZM6.34568 12.0833L9.48352 9.99995L6.34568 7.91659V12.0833Z" fill="white"/>
</g>
</svg>
