<svg width="24" height="24" viewBox="0 0 24 24" fill="none" xmlns="http://www.w3.org/2000/svg">
<mask id="mask0_362_612" style="mask-type:alpha" maskUnits="userSpaceOnUse" x="0" y="0" width="24" height="24">
<rect width="24" height="24" fill="#D9D9D9"/>
</mask>
<g mask="url(#mask0_362_612)">
<path d="M16.3846 16.5577V7.44235C16.3846 7.22985 16.4565 7.05173 16.6003 6.90798C16.7441 6.76423 16.9223 6.69235 17.1349 6.69235C17.3475 6.69235 17.5256 6.76423 17.6692 6.90798C17.8128 7.05173 17.8846 7.22985 17.8846 7.44235V16.5577C17.8846 16.7702 17.8127 16.9483 17.6688 17.092C17.525 17.2358 17.3468 17.3077 17.1342 17.3077C16.9217 17.3077 16.7436 17.2358 16.6 17.092C16.4564 16.9483 16.3846 16.7702 16.3846 16.5577ZM6.11542 15.6154V8.38465C6.11542 8.1135 6.2058 7.89508 6.38657 7.72938C6.56733 7.56368 6.77823 7.48083 7.01927 7.48083C7.1026 7.48083 7.18785 7.48916 7.27502 7.50583C7.3622 7.52249 7.44426 7.56095 7.52119 7.6212L12.9519 11.2519C13.0891 11.3455 13.1904 11.4551 13.2557 11.5808C13.3211 11.7064 13.3538 11.8462 13.3538 12C13.3538 12.1539 13.3211 12.2936 13.2557 12.4192C13.1904 12.5449 13.0891 12.6545 12.9519 12.7481L7.52119 16.3788C7.44426 16.4391 7.3622 16.4775 7.27502 16.4942C7.18785 16.5108 7.1026 16.5192 7.01927 16.5192C6.77823 16.5192 6.56733 16.4363 6.38657 16.2706C6.2058 16.1049 6.11542 15.8865 6.11542 15.6154ZM7.61539 14.5L11.3808 12L7.61539 9.49998V14.5Z" fill="#1C1B1F"/>
</g>
</svg>
