<svg width="24" height="24" viewBox="0 0 24 24" fill="none" xmlns="http://www.w3.org/2000/svg">
<mask id="mask0_362_582" style="mask-type:alpha" maskUnits="userSpaceOnUse" x="0" y="0" width="24" height="24">
<rect width="24" height="24" fill="#D9D9D9"/>
</mask>
<g mask="url(#mask0_362_582)">
<path d="M6.11542 16.5577V7.44235C6.11542 7.22985 6.18733 7.05173 6.33114 6.90798C6.47496 6.76423 6.65316 6.69235 6.86574 6.69235C7.07833 6.69235 7.25642 6.76423 7.40002 6.90798C7.5436 7.05173 7.61539 7.22985 7.61539 7.44235V16.5577C7.61539 16.7702 7.54348 16.9483 7.39967 17.092C7.25585 17.2358 7.07765 17.3077 6.86507 17.3077C6.65248 17.3077 6.47439 17.2358 6.33079 17.092C6.18721 16.9483 6.11542 16.7702 6.11542 16.5577ZM16.4788 16.3788L11.0481 12.7481C10.9109 12.6545 10.8096 12.5449 10.7442 12.4192C10.6789 12.2936 10.6462 12.1539 10.6462 12C10.6462 11.8462 10.6789 11.7064 10.7442 11.5808C10.8096 11.4551 10.9109 11.3455 11.0481 11.2519L16.4788 7.6212C16.5557 7.56095 16.6378 7.52249 16.725 7.50583C16.8121 7.48916 16.8974 7.48083 16.9807 7.48083C17.2218 7.48083 17.4327 7.56368 17.6134 7.72938C17.7942 7.89508 17.8846 8.1135 17.8846 8.38465V15.6154C17.8846 15.8865 17.7942 16.1049 17.6134 16.2706C17.4327 16.4363 17.2218 16.5192 16.9807 16.5192C16.8974 16.5192 16.8121 16.5108 16.725 16.4942C16.6378 16.4775 16.5557 16.4391 16.4788 16.3788ZM16.3846 14.5V9.49998L12.6192 12L16.3846 14.5Z" fill="#1C1B1F"/>
</g>
</svg>
