<svg width="24" height="24" viewBox="0 0 24 24" fill="none" xmlns="http://www.w3.org/2000/svg">
<mask id="mask0_327_563" style="mask-type:alpha" maskUnits="userSpaceOnUse" x="0" y="0" width="24" height="24">
<rect width="24" height="24" fill="#D9D9D9"/>
</mask>
<g mask="url(#mask0_327_563)">
<path d="M8.84998 17.825L12 15.925L15.15 17.85L14.325 14.25L17.1 11.85L13.45 11.525L12 8.125L10.55 11.5L6.89998 11.825L9.67498 14.25L8.84998 17.825ZM12 17.6884L8.1096 20.0346C7.96474 20.1192 7.81955 20.1547 7.67405 20.1413C7.52854 20.1278 7.3968 20.0788 7.27885 19.9942C7.16092 19.9096 7.0699 19.799 7.0058 19.6624C6.94169 19.5259 6.93143 19.375 6.97503 19.2096L8.0077 14.7923L4.5731 11.8192C4.4449 11.7077 4.36318 11.5785 4.32793 11.4317C4.29268 11.2849 4.30197 11.1423 4.3558 11.0039C4.40965 10.8654 4.48722 10.7523 4.5885 10.6645C4.68979 10.5766 4.82825 10.5193 5.00388 10.4923L9.53655 10.0962L11.2962 5.92505C11.3603 5.76993 11.4574 5.65519 11.5875 5.58082C11.7176 5.50647 11.8551 5.4693 12 5.4693C12.1448 5.4693 12.2823 5.50647 12.4125 5.58082C12.5426 5.65519 12.6397 5.76993 12.7038 5.92505L14.4634 10.0962L18.9961 10.4923C19.1717 10.5193 19.3102 10.5766 19.4115 10.6645C19.5127 10.7523 19.5903 10.8654 19.6442 11.0039C19.698 11.1423 19.7073 11.2849 19.672 11.4317C19.6368 11.5785 19.5551 11.7077 19.4269 11.8192L15.9923 14.7923L17.0249 19.2096C17.0685 19.375 17.0583 19.5259 16.9942 19.6624C16.9301 19.799 16.839 19.9096 16.7211 19.9942C16.6032 20.0788 16.4714 20.1278 16.3259 20.1413C16.1804 20.1547 16.0352 20.1192 15.8904 20.0346L12 17.6884Z" fill="#1C1B1F"/>
</g>
</svg>
