<svg width="24" height="23" viewBox="0 0 24 23" fill="none" xmlns="http://www.w3.org/2000/svg">
<path d="M7.2754 18.7367L12.0004 15.8867L16.7254 18.7742L15.4879 13.3742L19.6504 9.77418L14.1754 9.28668L12.0004 4.18668L9.8254 9.24918L4.3504 9.73668L8.5129 13.3742L7.2754 18.7367ZM12.0004 18.5318L6.16483 22.051C5.94753 22.1779 5.72976 22.2313 5.51151 22.2111C5.29323 22.1909 5.09563 22.1174 4.91871 21.9904C4.74181 21.8635 4.60528 21.6977 4.50913 21.4929C4.41296 21.2881 4.39757 21.0616 4.46297 20.8135L6.01198 14.1876L0.860084 9.72801C0.667784 9.56071 0.545196 9.36698 0.492321 9.1468C0.439446 8.9266 0.453384 8.71266 0.534134 8.50499C0.614909 8.29729 0.731259 8.12758 0.883184 7.99585C1.03511 7.86413 1.2428 7.77807 1.50625 7.7377L8.30526 7.14348L10.9447 0.886752C11.0408 0.654077 11.1865 0.481962 11.3816 0.370412C11.5768 0.258887 11.7831 0.203125 12.0004 0.203125C12.2177 0.203125 12.4239 0.258887 12.6191 0.370412C12.8143 0.481962 12.96 0.654077 13.0561 0.886752L15.6955 7.14348L22.4945 7.7377C22.758 7.77807 22.9657 7.86413 23.1176 7.99585C23.2695 8.12758 23.3859 8.29729 23.4667 8.50499C23.5474 8.71266 23.5613 8.9266 23.5085 9.1468C23.4556 9.36698 23.333 9.56071 23.1407 9.72801L17.9888 14.1876L19.5378 20.8135C19.6032 21.0616 19.5878 21.2881 19.4917 21.4929C19.3955 21.6977 19.259 21.8635 19.0821 21.9904C18.9052 22.1174 18.7076 22.1909 18.4893 22.2111C18.271 22.2313 18.0533 22.1779 17.836 22.051L12.0004 18.5318Z" fill="#292735"/>
</svg>