<svg width="24" height="24" viewBox="0 0 24 24" fill="none" xmlns="http://www.w3.org/2000/svg">
<path d="M8.5277 19.5C8.23358 19.5 7.98237 19.3971 7.77405 19.1915C7.56572 18.9858 7.46155 18.7361 7.46155 18.4423V6.62498H3.5673C3.27083 6.62498 3.01883 6.52138 2.8113 6.31418C2.60377 6.10698 2.5 5.85539 2.5 5.55941C2.5 5.26341 2.60283 5.01285 2.8085 4.80773C3.01415 4.6026 3.26388 4.50003 3.55768 4.50003H13.4808C13.7772 4.50003 14.0292 4.60297 14.2367 4.80886C14.4443 5.01474 14.548 5.26473 14.548 5.55883C14.548 5.85295 14.4452 6.10417 14.2395 6.31248C14.0339 6.52082 13.7842 6.62498 13.4904 6.62498H9.58648V18.4327C9.58648 18.7291 9.48354 18.9811 9.27768 19.1887C9.07179 19.3962 8.8218 19.5 8.5277 19.5ZM17.4604 19.5C17.1663 19.5 16.9167 19.3971 16.7115 19.1915C16.5064 18.9858 16.4039 18.7361 16.4039 18.4423V11.5769H14.4904C14.1939 11.5769 13.9419 11.4733 13.7344 11.2661C13.5268 11.0589 13.4231 10.8073 13.4231 10.5113C13.4231 10.2153 13.5259 9.96477 13.7316 9.75966C13.9372 9.55452 14.187 9.45196 14.4808 9.45196H20.4327C20.7291 9.45196 20.9811 9.5549 21.1887 9.76078C21.3962 9.96665 21.5 10.2166 21.5 10.5108C21.5 10.8049 21.3971 11.0561 21.1915 11.2644C20.9858 11.4727 20.7361 11.5769 20.4423 11.5769H18.5192V18.4423C18.5192 18.7361 18.4162 18.9858 18.2104 19.1915C18.0045 19.3971 17.7545 19.5 17.4604 19.5Z" fill="#1C1B1F"/>
</svg>
