<svg width="24" height="24" viewBox="0 0 24 24" fill="none" xmlns="http://www.w3.org/2000/svg">
<mask id="mask0_166_314" style="mask-type:alpha" maskUnits="userSpaceOnUse" x="0" y="0" width="24" height="24">
<rect width="24" height="24" fill="#D9D9D9"/>
</mask>
<g mask="url(#mask0_166_314)">
<path d="M11.8988 18L15.3453 9.96899H16.5536L20 18H18.7694L17.8929 15.87H14.0059L13.1294 18H11.8988ZM5.79314 15.9452L4.97767 15.2093L8.82591 11.7296C8.37947 11.3223 7.95511 10.8388 7.55283 10.2792C7.15054 9.71964 6.81943 9.15066 6.55952 8.57229H7.79016C8.01336 8.99487 8.28494 9.41747 8.60489 9.84007C8.92483 10.2627 9.27032 10.6472 9.64135 10.9937C10.191 10.4932 10.7108 9.88551 11.2009 9.17058C11.691 8.45567 12.0372 7.79067 12.2396 7.17559H4V6.12808H9.07442V5H10.2351V6.12808H15.3095V7.17559H13.4152C13.1642 7.95988 12.7641 8.77977 12.215 9.63525C11.6659 10.4907 11.0798 11.196 10.4568 11.7511L12.3661 13.5158L11.9271 14.5915L9.64135 12.4763L5.79314 15.9452ZM14.378 14.9434H17.5209L15.9494 11.1333L14.378 14.9434Z" fill="#1C1B1F"/>
</g>
</svg>
