<svg width="36" height="36" viewBox="0 0 36 36" fill="none" xmlns="http://www.w3.org/2000/svg">
<mask id="mask0_1559_43912" style="mask-type:alpha" maskUnits="userSpaceOnUse" x="6" y="6" width="24" height="24">
<rect x="6" y="6" width="24" height="24" fill="#D9D9D9"/>
</mask>
<g mask="url(#mask0_1559_43912)">
<path d="M18.0016 27.5C16.6877 27.5 15.4527 27.2506 14.2966 26.752C13.1404 26.2533 12.1347 25.5765 11.2795 24.7217C10.4243 23.8669 9.74721 22.8616 9.24833 21.706C8.74944 20.5504 8.5 19.3156 8.5 18.0017C8.5 16.6877 8.74933 15.4527 9.248 14.2966C9.74667 13.1404 10.4234 12.1347 11.2783 11.2795C12.1331 10.4243 13.1383 9.74721 14.294 9.24833C15.4496 8.74944 16.6844 8.5 17.9983 8.5C19.3122 8.5 20.5473 8.74933 21.7034 9.248C22.8596 9.74667 23.8652 10.4234 24.7205 11.2783C25.5757 12.1331 26.2527 13.1383 26.7516 14.294C27.2505 15.4496 27.5 16.6844 27.5 17.9983C27.5 19.3122 27.2506 20.5473 26.752 21.7034C26.2533 22.8596 25.5765 23.8652 24.7217 24.7205C23.8669 25.5757 22.8616 26.2527 21.706 26.7516C20.5504 27.2505 19.3156 27.5 18.0016 27.5ZM18 26C20.2333 26 22.125 25.225 23.675 23.675C25.225 22.125 26 20.2333 26 18C26 15.7666 25.225 13.875 23.675 12.325C22.125 10.775 20.2333 9.99998 18 9.99998C15.7666 9.99998 13.875 10.775 12.325 12.325C10.775 13.875 9.99998 15.7666 9.99998 18C9.99998 20.2333 10.775 22.125 12.325 23.675C13.875 25.225 15.7666 26 18 26Z" fill="#01B574"/>
</g>
</svg>
