<svg width="24" height="24" viewBox="0 0 24 24" fill="none" xmlns="http://www.w3.org/2000/svg">
<mask id="mask0_38_115" style="mask-type:alpha" maskUnits="userSpaceOnUse" x="0" y="0" width="24" height="24">
<rect width="24" height="24" fill="#D9D9D9"/>
</mask>
<g mask="url(#mask0_38_115)">
<path d="M20.5154 15.8615L17.7692 13.1154V15.0115L7.25773 4.50004H15.9615C16.4667 4.50004 16.8942 4.67504 17.2442 5.02504C17.5942 5.37504 17.7692 5.8026 17.7692 6.30774V10.8847L20.5154 8.13854C20.6628 7.9911 20.8285 7.95425 21.0125 8.02796C21.1964 8.10168 21.2884 8.24238 21.2884 8.45006V15.55C21.2884 15.7576 21.1964 15.8983 21.0125 15.9721C20.8285 16.0458 20.6628 16.0089 20.5154 15.8615ZM19.4461 21.6307L2.0616 4.24616C1.92314 4.10771 1.8523 3.93368 1.8491 3.72406C1.8459 3.51446 1.91674 3.33723 2.0616 3.19236C2.20647 3.04748 2.3821 2.97504 2.5885 2.97504C2.7949 2.97504 2.97054 3.04748 3.1154 3.19236L20.5 20.5769C20.6384 20.7153 20.7092 20.8894 20.7125 21.099C20.7157 21.3086 20.6448 21.4858 20.5 21.6307C20.3551 21.7756 20.1794 21.848 19.973 21.848C19.7666 21.848 19.591 21.7756 19.4461 21.6307ZM4.44235 4.51926L17.75 17.8269C17.7179 18.2936 17.5317 18.6891 17.1913 19.0134C16.8509 19.3378 16.441 19.5 15.9615 19.5H4.57698C4.07184 19.5 3.64428 19.325 3.29428 18.975C2.94428 18.625 2.76928 18.1974 2.76928 17.6923V6.30771C2.76928 5.82823 2.93146 5.4183 3.25583 5.07791C3.58018 4.73753 3.97569 4.55131 4.44235 4.51926Z" fill="#1C1B1F"/>
</g>
</svg>
