<svg width="24" height="25" viewBox="0 0 24 25" fill="none" xmlns="http://www.w3.org/2000/svg">
<path d="M12.0021 16.5222C13.1352 16.5222 14.0976 16.1256 14.8892 15.3324C15.6809 14.5393 16.0767 13.5761 16.0767 12.443C16.0767 11.3099 15.6802 10.3476 14.887 9.55589C14.0938 8.76422 13.1307 8.36839 11.9976 8.36839C10.8645 8.36839 9.9021 8.76497 9.11044 9.55814C8.31877 10.3513 7.92294 11.3145 7.92294 12.4476C7.92294 13.5806 8.31952 14.543 9.11269 15.3347C9.90587 16.1264 10.869 16.5222 12.0021 16.5222ZM11.9998 15.1453C11.2498 15.1453 10.6123 14.8828 10.0873 14.3578C9.56234 13.8328 9.29984 13.1953 9.29984 12.4453C9.29984 11.6953 9.56234 11.0578 10.0873 10.5328C10.6123 10.0078 11.2498 9.74529 11.9998 9.74529C12.7498 9.74529 13.3873 10.0078 13.9123 10.5328C14.4373 11.0578 14.6998 11.6953 14.6998 12.4453C14.6998 13.1953 14.4373 13.8328 13.9123 14.3578C13.3873 14.8828 12.7498 15.1453 11.9998 15.1453ZM11.9998 19.4453C9.89472 19.4453 7.96941 18.8837 6.22391 17.7606C4.47839 16.6376 3.08513 15.16 2.04411 13.328C1.96078 13.1844 1.89988 13.0397 1.86141 12.8938C1.82294 12.748 1.80371 12.5983 1.80371 12.4448C1.80371 12.2913 1.82294 12.1418 1.86141 11.9963C1.89988 11.8507 1.96078 11.7062 2.04411 11.5626C3.08513 9.73056 4.47839 8.253 6.22391 7.12994C7.96941 6.00685 9.89472 5.44531 11.9998 5.44531C14.105 5.44531 16.0303 6.00685 17.7758 7.12994C19.5213 8.253 20.9145 9.73056 21.9556 11.5626C22.0389 11.7062 22.0998 11.8509 22.1383 11.9967C22.1767 12.1426 22.196 12.2923 22.196 12.4458C22.196 12.5993 22.1767 12.7488 22.1383 12.8943C22.0998 13.0398 22.0389 13.1844 21.9556 13.328C20.9145 15.16 19.5213 16.6376 17.7758 17.7606C16.0303 18.8837 14.105 19.4453 11.9998 19.4453ZM11.9998 17.9453C13.8832 17.9453 15.6123 17.4495 17.1873 16.4578C18.7623 15.4661 19.9665 14.1286 20.7998 12.4453C19.9665 10.762 18.7623 9.42445 17.1873 8.43279C15.6123 7.44112 13.8832 6.94529 11.9998 6.94529C10.1165 6.94529 8.38734 7.44112 6.81234 8.43279C5.23734 9.42445 4.03317 10.762 3.19984 12.4453C4.03317 14.1286 5.23734 15.4661 6.81234 16.4578C8.38734 17.4495 10.1165 17.9453 11.9998 17.9453Z" fill="#292735"/>
</svg>