<svg width="24" height="24" viewBox="0 0 24 24" fill="none" xmlns="http://www.w3.org/2000/svg">
<path d="M15.7732 12.973L14.6501 11.8499C14.8206 10.9602 14.5867 10.2012 13.9482 9.57297C13.3097 8.94477 12.5437 8.70374 11.6501 8.84989L10.5271 7.72684C10.7591 7.61914 10.9979 7.54158 11.2434 7.49414C11.4889 7.44671 11.7411 7.42299 12.0001 7.42299C13.1347 7.42299 14.0978 7.81883 14.8895 8.61049C15.6812 9.40216 16.077 10.3653 16.077 11.4999C16.077 11.7589 16.0549 12.0111 16.0107 12.2566C15.9664 12.5021 15.8873 12.7409 15.7732 12.973ZM18.9539 16.0845L17.8501 15.0499C18.4834 14.5666 19.0501 14.0291 19.5501 13.4374C20.0501 12.8457 20.4668 12.1999 20.8001 11.4999C19.9668 9.81656 18.7626 8.47906 17.1876 7.48739C15.6126 6.49573 13.8834 5.99989 12.0001 5.99989C11.5168 5.99989 11.0459 6.03323 10.5876 6.09989C10.1293 6.16656 9.66674 6.26656 9.20007 6.39989L8.03472 5.23454C8.67061 4.98326 9.319 4.798 9.9799 4.67877C10.6408 4.55953 11.3142 4.49992 12.0001 4.49992C14.1488 4.49992 16.1225 5.05825 17.9212 6.17492C19.72 7.29158 21.1033 8.80248 22.0712 10.7076C22.1379 10.8345 22.1863 10.9624 22.2164 11.0913C22.2465 11.2201 22.2616 11.3563 22.2616 11.4999C22.2616 11.6435 22.2491 11.7797 22.2241 11.9086C22.1991 12.0374 22.1533 12.1653 22.0866 12.2922C21.7328 13.0448 21.2885 13.7396 20.7539 14.3768C20.2193 15.014 19.6193 15.5832 18.9539 16.0845ZM12.0001 18.4999C9.89496 18.4999 7.96548 17.9374 6.21165 16.8124C4.4578 15.6874 3.06356 14.2057 2.02895 12.3672C1.94561 12.2403 1.88472 12.1025 1.84627 11.9538C1.80781 11.805 1.78857 11.6538 1.78857 11.4999C1.78857 11.3461 1.80524 11.1973 1.83857 11.0538C1.87191 10.9102 1.93024 10.7698 2.01357 10.6326C2.38537 9.95311 2.80653 9.30599 3.27705 8.69124C3.74756 8.07649 4.28859 7.52553 4.90012 7.03837L2.64242 4.76527C2.50396 4.61655 2.43569 4.43995 2.43762 4.23547C2.43954 4.03098 2.51293 3.85631 2.6578 3.71144C2.80266 3.56657 2.97831 3.49414 3.18472 3.49414C3.39112 3.49414 3.56676 3.56657 3.71162 3.71144L20.2886 20.2884C20.427 20.4268 20.5004 20.5983 20.5087 20.8028C20.5171 21.0072 20.4437 21.1871 20.2886 21.3422C20.1437 21.4871 19.9681 21.5595 19.7616 21.5595C19.5552 21.5595 19.3796 21.4871 19.2347 21.3422L15.7155 17.8537C15.1258 18.0819 14.5197 18.2467 13.8972 18.348C13.2748 18.4492 12.6424 18.4999 12.0001 18.4999ZM5.95395 8.09217C5.36805 8.54473 4.84144 9.0566 4.37412 9.62777C3.90681 10.1989 3.51546 10.823 3.20007 11.4999C4.03341 13.1832 5.23757 14.5207 6.81257 15.5124C8.38757 16.5041 10.1168 16.9999 12.0001 16.9999C12.4296 16.9999 12.8524 16.9711 13.2684 16.9134C13.6844 16.8557 14.0976 16.7666 14.5078 16.6461L13.2424 15.3499C13.0399 15.4383 12.8376 15.4983 12.6357 15.5297C12.4338 15.5611 12.2219 15.5768 12.0001 15.5768C10.8655 15.5768 9.90234 15.181 9.11067 14.3893C8.31901 13.5976 7.92317 12.6345 7.92317 11.4999C7.92317 11.2781 7.94048 11.0663 7.9751 10.8643C8.00971 10.6624 8.06805 10.4602 8.1501 10.2576L5.95395 8.09217Z" fill="white"/>
</svg>
