<svg width="17" height="13" viewBox="0 0 17 13" fill="none" xmlns="http://www.w3.org/2000/svg">
<path d="M16.8178 6.29281C15.8807 4.75831 14.6649 3.45481 13.3021 2.52294C11.7944 1.49094 10.1298 0.945312 8.48861 0.945312C6.9827 0.945312 5.50194 1.40094 4.08741 2.29944C2.6449 3.21556 1.33803 4.55394 0.202934 6.27706C0.0747921 6.4718 0.00421928 6.70248 0.000183327 6.93979C-0.00385262 7.17709 0.0588306 7.41031 0.180268 7.60981C1.11562 9.15969 2.31942 10.4651 3.66099 11.3842C5.1715 12.4203 6.79712 12.9453 8.48861 12.9453C10.1429 12.9453 11.811 12.4042 13.3123 11.3808C14.6744 10.4519 15.8878 9.14356 16.8214 7.59631C16.9386 7.40145 17.0006 7.17506 17 6.94401C16.9994 6.71296 16.9361 6.48696 16.8178 6.29281ZM8.50065 10.5453C7.82819 10.5453 7.17084 10.3342 6.61172 9.9386C6.0526 9.54303 5.61681 8.98079 5.35948 8.32297C5.10214 7.66516 5.03481 6.94132 5.166 6.24299C5.29719 5.54466 5.62101 4.9032 6.0965 4.39973C6.572 3.89626 7.17781 3.55339 7.83734 3.41449C8.49688 3.27558 9.1805 3.34687 9.80176 3.61935C10.423 3.89182 10.954 4.35324 11.3276 4.94526C11.7012 5.53728 11.9006 6.2333 11.9006 6.94531C11.8996 7.89976 11.5411 8.8148 10.9037 9.48969C10.2663 10.1646 9.40206 10.5442 8.50065 10.5453Z" fill="white"/>
</svg>