<svg width="24" height="24" viewBox="0 0 24 24" fill="none" xmlns="http://www.w3.org/2000/svg">
<mask id="mask0_2_1237" style="mask-type:alpha" maskUnits="userSpaceOnUse" x="0" y="0" width="24" height="24">
<rect width="24" height="24" fill="#D9D9D9"/>
</mask>
<g mask="url(#mask0_2_1237)">
<path d="M3.42543 20.4999C3.25593 20.4999 3.1037 20.4585 2.96875 20.3756C2.8338 20.2928 2.72884 20.1836 2.65388 20.048C2.57589 19.9134 2.533 19.7676 2.5252 19.6105C2.5174 19.4535 2.55978 19.2979 2.65233 19.1439L11.2131 4.35609C11.3056 4.20206 11.4215 4.08819 11.5606 4.01447C11.6997 3.94074 11.8461 3.90387 12 3.90387C12.1538 3.90387 12.3003 3.94074 12.4394 4.01447C12.5785 4.08819 12.6943 4.20206 12.7869 4.35609L21.3476 19.1439C21.4402 19.2979 21.4826 19.4535 21.4748 19.6105C21.467 19.7676 21.4241 19.9134 21.3461 20.048C21.2711 20.1836 21.1662 20.2928 21.0312 20.3756C20.8963 20.4585 20.744 20.4999 20.5745 20.4999H3.42543ZM4.44998 19H19.55L12 5.99997L4.44998 19ZM12 17.8076C12.2288 17.8076 12.4207 17.7302 12.5755 17.5754C12.7303 17.4206 12.8077 17.2288 12.8077 17C12.8077 16.7711 12.7303 16.5793 12.5755 16.4245C12.4207 16.2697 12.2288 16.1923 12 16.1923C11.7711 16.1923 11.5793 16.2697 11.4245 16.4245C11.2697 16.5793 11.1923 16.7711 11.1923 17C11.1923 17.2288 11.2697 17.4206 11.4245 17.5754C11.5793 17.7302 11.7711 17.8076 12 17.8076ZM12.0003 15.1923C12.2129 15.1923 12.391 15.1204 12.5346 14.9767C12.6782 14.8329 12.75 14.6548 12.75 14.4423V10.9423C12.75 10.7298 12.6781 10.5517 12.5343 10.4079C12.3904 10.2642 12.2122 10.1923 11.9997 10.1923C11.7871 10.1923 11.609 10.2642 11.4654 10.4079C11.3218 10.5517 11.25 10.7298 11.25 10.9423V14.4423C11.25 14.6548 11.3219 14.8329 11.4657 14.9767C11.6095 15.1204 11.7877 15.1923 12.0003 15.1923Z" fill="#292735"/>
</g>
</svg>
