<svg width="24" height="24" viewBox="0 0 24 24" fill="none" xmlns="http://www.w3.org/2000/svg">
<path d="M16.36 14.0039C16.44 13.3439 16.5 12.6839 16.5 12.0039C16.5 11.3239 16.44 10.6639 16.36 10.0039H19.74C19.9 10.6439 20 11.3139 20 12.0039C20 12.6939 19.9 13.3639 19.74 14.0039M14.59 19.5639C15.19 18.4539 15.65 17.2539 15.97 16.0039H18.92C17.9512 17.6722 16.4141 18.9359 14.59 19.5639ZM14.34 14.0039H9.66C9.56 13.3439 9.5 12.6839 9.5 12.0039C9.5 11.3239 9.56 10.6539 9.66 10.0039H14.34C14.43 10.6539 14.5 11.3239 14.5 12.0039C14.5 12.6839 14.43 13.3439 14.34 14.0039ZM12 19.9639C11.17 18.7639 10.5 17.4339 10.09 16.0039H13.91C13.5 17.4339 12.83 18.7639 12 19.9639ZM8 8.00391H5.08C6.03886 6.33112 7.5748 5.06539 9.4 4.44391C8.8 5.55391 8.35 6.75391 8 8.00391ZM5.08 16.0039H8C8.35 17.2539 8.8 18.4539 9.4 19.5639C7.57862 18.9356 6.04485 17.6716 5.08 16.0039ZM4.26 14.0039C4.1 13.3639 4 12.6939 4 12.0039C4 11.3139 4.1 10.6439 4.26 10.0039H7.64C7.56 10.6639 7.5 11.3239 7.5 12.0039C7.5 12.6839 7.56 13.3439 7.64 14.0039M12 4.03391C12.83 5.23391 13.5 6.57391 13.91 8.00391H10.09C10.5 6.57391 11.17 5.23391 12 4.03391ZM18.92 8.00391H15.97C15.657 6.76536 15.1936 5.5698 14.59 4.44391C16.43 5.07391 17.96 6.34391 18.92 8.00391ZM12 2.00391C6.47 2.00391 2 6.50391 2 12.0039C2 14.6561 3.05357 17.1996 4.92893 19.075C5.85752 20.0036 6.95991 20.7402 8.17317 21.2427C9.38642 21.7452 10.6868 22.0039 12 22.0039C14.6522 22.0039 17.1957 20.9503 19.0711 19.075C20.9464 17.1996 22 14.6561 22 12.0039C22 10.6907 21.7413 9.39033 21.2388 8.17707C20.7362 6.96382 19.9997 5.86142 19.0711 4.93284C18.1425 4.00425 17.0401 3.26766 15.8268 2.76511C14.6136 2.26256 13.3132 2.00391 12 2.00391Z" fill="white"/>
</svg>
