<svg width="14" height="19" viewBox="0 0 14 19" fill="none" xmlns="http://www.w3.org/2000/svg">
<path d="M5.06217 10.2727L5.79134 7.89771L3.87467 6.35604H6.24967L6.99967 4.02271L7.74967 6.35604H10.1247L8.18717 7.89771L8.91634 10.2727L6.99967 8.79354L5.06217 10.2727ZM1.99967 18.0227V11.5852C1.4719 11.0019 1.06217 10.3352 0.770508 9.58521C0.478841 8.83521 0.333008 8.03659 0.333008 7.18937C0.333008 5.32826 0.978841 3.75187 2.27051 2.46021C3.56217 1.16854 5.13856 0.522705 6.99967 0.522705C8.86079 0.522705 10.4372 1.16854 11.7288 2.46021C13.0205 3.75187 13.6663 5.32826 13.6663 7.18937C13.6663 8.03659 13.5205 8.83521 13.2288 9.58521C12.9372 10.3352 12.5275 11.0019 11.9997 11.5852V18.0227L6.99967 16.356L1.99967 18.0227ZM6.99967 12.1894C8.38856 12.1894 9.56912 11.7033 10.5413 10.731C11.5136 9.75882 11.9997 8.57826 11.9997 7.18937C11.9997 5.80048 11.5136 4.61993 10.5413 3.64771C9.56912 2.67548 8.38856 2.18937 6.99967 2.18937C5.61079 2.18937 4.43023 2.67548 3.45801 3.64771C2.48579 4.61993 1.99967 5.80048 1.99967 7.18937C1.99967 8.57826 2.48579 9.75882 3.45801 10.731C4.43023 11.7033 5.61079 12.1894 6.99967 12.1894ZM3.66634 15.5435L6.99967 14.6894L10.333 15.5435V12.9602C9.8469 13.238 9.32259 13.4567 8.76009 13.6165C8.19759 13.7762 7.61079 13.856 6.99967 13.856C6.38856 13.856 5.80176 13.7762 5.23926 13.6165C4.67676 13.4567 4.15245 13.238 3.66634 12.9602V15.5435Z" fill="#1C1B1F"/>
</svg>
