<svg width="21" height="22" viewBox="0 0 21 22" fill="none" xmlns="http://www.w3.org/2000/svg">
<g id="workspace_premium">
<mask id="mask0_11396_65839" style="mask-type:alpha" maskUnits="userSpaceOnUse" x="0" y="0" width="21" height="22">
<rect id="Bounding box" y="0.237305" width="21" height="21" fill="#D9D9D9"/>
</mask>
<g mask="url(#mask0_11396_65839)">
<path id="workspace_premium_2" d="M8.575 12.0397L9.29862 9.66368L7.3955 8.19652H9.76303L10.5 5.83052L11.237 8.19652H13.6045L11.688 9.66368L12.4114 12.0397L10.5 10.5623L8.575 12.0397ZM5.6875 19.6892V13.4262C5.13333 12.8474 4.70312 12.1782 4.39688 11.4187C4.09063 10.6594 3.9375 9.84889 3.9375 8.98731C3.9375 7.15651 4.57355 5.60507 5.84566 4.33296C7.11776 3.06086 8.66921 2.4248 10.5 2.4248C12.3308 2.4248 13.8822 3.06086 15.1543 4.33296C16.4264 5.60507 17.0625 7.15651 17.0625 8.98731C17.0625 9.84889 16.9094 10.6594 16.6031 11.4187C16.2969 12.1782 15.8667 12.8474 15.3125 13.4262V19.6892L10.5 18.158L5.6875 19.6892ZM10.5 14.2373C11.9583 14.2373 13.1979 13.7269 14.2188 12.7061C15.2396 11.6852 15.75 10.4456 15.75 8.98731C15.75 7.52897 15.2396 6.28939 14.2188 5.26855C13.1979 4.24772 11.9583 3.7373 10.5 3.7373C9.04167 3.7373 7.80208 4.24772 6.78125 5.26855C5.76042 6.28939 5.25 7.52897 5.25 8.98731C5.25 10.4456 5.76042 11.6852 6.78125 12.7061C7.80208 13.7269 9.04167 14.2373 10.5 14.2373ZM7 17.7675L10.5 16.8286L14 17.7675V14.5167C13.5008 14.842 12.9545 15.0955 12.3611 15.2772C11.7676 15.459 11.1472 15.5498 10.5 15.5498C9.85279 15.5498 9.23242 15.459 8.63888 15.2772C8.04548 15.0955 7.49919 14.842 7 14.5167V17.7675Z" fill="white"/>
</g>
</g>
</svg>
