<svg width="24" height="24" viewBox="0 0 24 24" fill="none" xmlns="http://www.w3.org/2000/svg">
<path d="M17.812 5.02053H6.145C3.855 5.02053 2 6.85553 2 9.11953V14.8875C2 17.1515 3.856 18.9875 6.145 18.9875H17.812C20.102 18.9875 21.957 17.1515 21.957 14.8875V9.11953C21.957 6.85553 20.101 5.01953 17.812 5.01953V5.02053ZM15.009 12.2835L9.552 14.8585C9.51872 14.8746 9.48192 14.8819 9.44503 14.8799C9.40815 14.8779 9.37237 14.8666 9.34103 14.847C9.3097 14.8274 9.28382 14.8003 9.2658 14.768C9.24779 14.7358 9.23822 14.6995 9.238 14.6625V9.35353C9.23867 9.3164 9.24872 9.28005 9.26722 9.24786C9.28573 9.21566 9.31208 9.18867 9.34382 9.16941C9.37556 9.15014 9.41167 9.13923 9.44877 9.13767C9.48587 9.13612 9.52276 9.14398 9.556 9.16053L15.014 11.8955C15.0504 11.9137 15.0809 11.9417 15.102 11.9764C15.1232 12.011 15.1341 12.051 15.1336 12.0916C15.1331 12.1322 15.1211 12.1719 15.0991 12.206C15.077 12.2401 15.0458 12.2673 15.009 12.2845V12.2835Z" fill="white"/>
</svg>
