<svg width="24" height="24" viewBox="0 0 24 24" fill="none" xmlns="http://www.w3.org/2000/svg">
<path d="M12 4.92856C9.37835 4.92856 7.05804 5.19976 5.64676 5.4107C4.49163 5.58146 3.57255 6.48548 3.36161 7.64563C3.1808 8.66014 3 10.1417 3 12C3 13.8582 3.1808 15.3398 3.36161 16.3543C3.57255 17.5145 4.49163 18.4135 5.64676 18.5893C7.06306 18.8002 9.39341 19.0714 12 19.0714C14.6066 19.0714 16.9319 18.8002 18.3482 18.5893H18.3532C19.5084 18.4185 20.4275 17.5145 20.6384 16.3543C20.8192 15.3348 21 13.8532 21 12C21 10.1417 20.8192 8.66014 20.6334 7.64563C20.4275 6.48548 19.5084 5.58146 18.3532 5.4107C16.942 5.19976 14.6217 4.92856 12 4.92856ZM12 6.21427C14.5312 6.21427 16.7963 6.47543 18.1624 6.68135C18.7651 6.77175 19.2522 7.24385 19.3677 7.87164C19.5385 8.82086 19.7143 10.2271 19.7143 12C19.7143 13.7729 19.5385 15.1791 19.3728 16.1233C19.2573 16.7561 18.7701 17.2282 18.1624 17.3186C16.7863 17.5195 14.5162 17.7857 12 17.7857C9.48382 17.7857 7.20871 17.5195 5.83761 17.3186C5.23493 17.2282 4.74275 16.7561 4.62723 16.1233C4.4615 15.1741 4.28571 13.7729 4.28571 12C4.28571 10.2221 4.4615 8.82086 4.62723 7.87164C4.74275 7.24385 5.22991 6.77175 5.83259 6.68637H5.83761C7.20368 6.48046 9.46875 6.21427 12 6.21427ZM9.42857 8.7857V15.2143L15.8571 12L9.42857 8.7857Z" fill="black"/>
</svg>
