<svg width="24" height="24" viewBox="0 0 24 24" fill="none" xmlns="http://www.w3.org/2000/svg">
<path d="M17.2615 5.70177H6.73854C4.6731 5.70177 3 7.35683 3 9.39882V14.6012C3 16.6432 4.674 18.2992 6.73854 18.2992H17.2615C19.3269 18.2992 21 16.6432 21 14.6012V9.39882C21 7.35683 19.326 5.70087 17.2615 5.70087V5.70177ZM14.7333 12.2526L9.81144 14.575C9.78142 14.5895 9.74824 14.5961 9.71497 14.5943C9.6817 14.5925 9.64943 14.5823 9.62116 14.5646C9.5929 14.547 9.56956 14.5225 9.55331 14.4934C9.53706 14.4643 9.52844 14.4316 9.52824 14.3983V9.60987C9.52884 9.57639 9.5379 9.5436 9.55459 9.51456C9.57128 9.48552 9.59505 9.46118 9.62368 9.4438C9.65231 9.42643 9.68487 9.41658 9.71834 9.41518C9.7518 9.41378 9.78507 9.42087 9.81505 9.4358L14.7378 11.9026C14.7706 11.919 14.7981 11.9442 14.8172 11.9755C14.8363 12.0068 14.8462 12.0428 14.8457 12.0794C14.8452 12.1161 14.8344 12.1518 14.8146 12.1826C14.7947 12.2134 14.7665 12.238 14.7333 12.2535V12.2526Z" fill="black"/>
</svg>
