<svg width="24" height="24" viewBox="0 0 24 24" fill="none" xmlns="http://www.w3.org/2000/svg">
<mask id="mask0_281_599" style="mask-type:alpha" maskUnits="userSpaceOnUse" x="0" y="0" width="24" height="24">
<rect width="24" height="24" fill="#D9D9D9"/>
</mask>
<g mask="url(#mask0_281_599)">
<path d="M8.76924 10.25H7.57692C7.36442 10.25 7.1863 10.1781 7.04257 10.0343C6.89882 9.89045 6.82694 9.71225 6.82694 9.49967C6.82694 9.28707 6.89882 9.10898 7.04257 8.96539C7.1863 8.82181 7.36442 8.75002 7.57692 8.75002H8.76924V7.55769C8.76924 7.34519 8.84115 7.16707 8.98497 7.02332C9.12877 6.87959 9.30697 6.80772 9.51957 6.80772C9.73215 6.80772 9.91024 6.87959 10.0538 7.02332C10.1974 7.16707 10.2692 7.34519 10.2692 7.55769V8.75002H11.4615C11.674 8.75002 11.8521 8.82192 11.9959 8.96572C12.1396 9.10954 12.2115 9.28774 12.2115 9.50032C12.2115 9.71292 12.1396 9.89101 11.9959 10.0346C11.8521 10.1782 11.674 10.25 11.4615 10.25H10.2692V11.4423C10.2692 11.6548 10.1973 11.8329 10.0535 11.9767C9.90968 12.1204 9.73148 12.1923 9.5189 12.1923C9.3063 12.1923 9.1282 12.1204 8.98462 11.9767C8.84104 11.8329 8.76924 11.6548 8.76924 11.4423V10.25ZM9.51922 15.6153C7.81005 15.6153 6.36354 15.0236 5.17967 13.84C3.9958 12.6564 3.40387 11.2103 3.40387 9.50157C3.40387 7.79284 3.99565 6.34616 5.17922 5.16154C6.36279 3.97694 7.80894 3.38464 9.51767 3.38464C11.2264 3.38464 12.6731 3.97658 13.8577 5.16044C15.0423 6.34431 15.6346 7.79083 15.6346 9.49999C15.6346 10.2141 15.5147 10.8961 15.275 11.5461C15.0352 12.1961 14.7153 12.7615 14.3153 13.2423L20.0692 18.9961C20.2077 19.1346 20.2785 19.3087 20.2817 19.5183C20.2849 19.7279 20.2141 19.9051 20.0692 20.05C19.9243 20.1948 19.7487 20.2673 19.5423 20.2673C19.3359 20.2673 19.1603 20.1948 19.0154 20.05L13.2615 14.2961C12.7615 14.7089 12.1865 15.032 11.5365 15.2653C10.8865 15.4987 10.2141 15.6153 9.51922 15.6153ZM9.51922 14.1154C10.8077 14.1154 11.899 13.6683 12.7933 12.774C13.6875 11.8798 14.1346 10.7885 14.1346 9.49999C14.1346 8.21153 13.6875 7.12018 12.7933 6.22594C11.899 5.33171 10.8077 4.88459 9.51922 4.88459C8.23075 4.88459 7.1394 5.33171 6.24517 6.22594C5.35095 7.12018 4.90384 8.21153 4.90384 9.49999C4.90384 10.7885 5.35095 11.8798 6.24517 12.774C7.1394 13.6683 8.23075 14.1154 9.51922 14.1154Z" fill="#1C1B1F"/>
</g>
</svg>
