<svg width="24" height="24" viewBox="0 0 24 24" fill="none" xmlns="http://www.w3.org/2000/svg">
<mask id="mask0_332_602" style="mask-type:alpha" maskUnits="userSpaceOnUse" x="0" y="0" width="24" height="24">
<rect width="24" height="24" fill="#D9D9D9"/>
</mask>
<g mask="url(#mask0_332_602)">
<path d="M6.0538 19H8.25C8.46248 19 8.6406 19.0719 8.78435 19.2157C8.9281 19.3595 8.99998 19.5377 8.99998 19.7503C8.99998 19.9629 8.9281 20.141 8.78435 20.2846C8.6406 20.4282 8.46248 20.5 8.25 20.5H4.40385C4.14777 20.5 3.93311 20.4133 3.75987 20.2401C3.58662 20.0668 3.5 19.8522 3.5 19.5961V15.75C3.5 15.5375 3.57191 15.3594 3.71572 15.2156C3.85954 15.0719 4.03774 15 4.25033 15C4.46293 15 4.64102 15.0719 4.7846 15.2156C4.92818 15.3594 4.99997 15.5375 4.99997 15.75V17.9462L7.82308 15.1231C7.96154 14.9846 8.13558 14.9138 8.34518 14.9106C8.55479 14.9074 8.73203 14.9782 8.8769 15.1231C9.02177 15.2679 9.0942 15.4436 9.0942 15.65C9.0942 15.8564 9.02177 16.032 8.8769 16.1769L6.0538 19ZM17.9461 19L15.123 16.1769C14.9846 16.0384 14.9137 15.8644 14.9106 15.6548C14.9074 15.4452 14.9782 15.2679 15.123 15.1231C15.2679 14.9782 15.4436 14.9058 15.65 14.9058C15.8564 14.9058 16.032 14.9782 16.1769 15.1231L19 17.9462V15.75C19 15.5375 19.0719 15.3594 19.2157 15.2156C19.3595 15.0719 19.5377 15 19.7503 15C19.9629 15 20.141 15.0719 20.2845 15.2156C20.4282 15.3594 20.5 15.5375 20.5 15.75V19.5961C20.5 19.8522 20.4133 20.0668 20.2401 20.2401C20.0668 20.4133 19.8522 20.5 19.5961 20.5H15.75C15.5375 20.5 15.3594 20.428 15.2156 20.2842C15.0719 20.1404 15 19.9622 15 19.7496C15 19.537 15.0719 19.3589 15.2156 19.2154C15.3594 19.0718 15.5375 19 15.75 19H17.9461ZM4.99997 6.0538V8.25C4.99997 8.46248 4.92807 8.6406 4.78425 8.78435C4.64045 8.9281 4.46225 8.99998 4.24965 8.99998C4.03707 8.99998 3.85898 8.9281 3.7154 8.78435C3.5718 8.6406 3.5 8.46248 3.5 8.25V4.40385C3.5 4.14777 3.58662 3.93311 3.75987 3.75988C3.93311 3.58663 4.14777 3.5 4.40385 3.5H8.25C8.46248 3.5 8.6406 3.57191 8.78435 3.71573C8.9281 3.85954 8.99998 4.03774 8.99998 4.25033C8.99998 4.46293 8.9281 4.64102 8.78435 4.7846C8.6406 4.92818 8.46248 4.99998 8.25 4.99998H6.0538L8.8769 7.82308C9.01537 7.96154 9.0862 8.13558 9.0894 8.34518C9.0926 8.55479 9.02177 8.73204 8.8769 8.8769C8.73203 9.02177 8.5564 9.0942 8.35 9.0942C8.14358 9.0942 7.96794 9.02177 7.82308 8.8769L4.99997 6.0538ZM19 6.0538L16.1769 8.8769C16.0384 9.01537 15.8644 9.0862 15.6548 9.0894C15.4452 9.0926 15.2679 9.02177 15.123 8.8769C14.9782 8.73204 14.9058 8.5564 14.9058 8.35C14.9058 8.14358 14.9782 7.96794 15.123 7.82308L17.9461 4.99998H15.75C15.5375 4.99998 15.3594 4.92807 15.2156 4.78425C15.0719 4.64045 15 4.46225 15 4.24965C15 4.03707 15.0719 3.85898 15.2156 3.7154C15.3594 3.5718 15.5375 3.5 15.75 3.5H19.5961C19.8522 3.5 20.0668 3.58663 20.2401 3.75988C20.4133 3.93311 20.5 4.14777 20.5 4.40385V8.25C20.5 8.46248 20.428 8.6406 20.2842 8.78435C20.1404 8.9281 19.9622 8.99998 19.7496 8.99998C19.537 8.99998 19.3589 8.9281 19.2154 8.78435C19.0718 8.6406 19 8.46248 19 8.25V6.0538Z" fill="#1C1B1F"/>
</g>
</svg>
