<svg width="24" height="24" viewBox="0 0 24 24" fill="none" xmlns="http://www.w3.org/2000/svg">
<mask id="mask0_332_603" style="mask-type:alpha" maskUnits="userSpaceOnUse" x="0" y="0" width="24" height="24">
<rect width="24" height="24" fill="#D9D9D9"/>
</mask>
<g mask="url(#mask0_332_603)">
<path d="M7.50005 17.5538L4.67695 20.3769C4.5385 20.5154 4.36446 20.5862 4.15485 20.5894C3.94523 20.5926 3.76799 20.5218 3.62312 20.3769C3.47826 20.2321 3.40582 20.0564 3.40582 19.85C3.40582 19.6436 3.47826 19.468 3.62312 19.3231L6.44625 16.5H4.25005C4.03755 16.5 3.85942 16.4281 3.71567 16.2843C3.57192 16.1405 3.50005 15.9623 3.50005 15.7497C3.50005 15.5371 3.57192 15.359 3.71567 15.2154C3.85942 15.0718 4.03755 15 4.25005 15H8.09617C8.35227 15 8.56694 15.0866 8.74017 15.2599C8.91341 15.4331 9.00002 15.6478 9.00002 15.9039V19.75C9.00002 19.9625 8.92811 20.1406 8.7843 20.2844C8.6405 20.4281 8.4623 20.5 8.2497 20.5C8.03711 20.5 7.85903 20.4281 7.71545 20.2844C7.57185 20.1406 7.50005 19.9625 7.50005 19.75V17.5538ZM16.5 17.5538V19.75C16.5 19.9625 16.4281 20.1406 16.2843 20.2844C16.1405 20.4281 15.9623 20.5 15.7497 20.5C15.5371 20.5 15.359 20.4281 15.2154 20.2844C15.0718 20.1406 15 19.9625 15 19.75V15.9039C15 15.6478 15.0866 15.4331 15.2599 15.2599C15.4331 15.0866 15.6478 15 15.9039 15H19.75C19.9625 15 20.1406 15.0719 20.2844 15.2157C20.4281 15.3595 20.5 15.5377 20.5 15.7503C20.5 15.9629 20.4281 16.141 20.2844 16.2846C20.1406 16.4282 19.9625 16.5 19.75 16.5H17.5538L20.3769 19.3231C20.5154 19.4615 20.5862 19.6356 20.5894 19.8452C20.5926 20.0548 20.5218 20.2321 20.3769 20.3769C20.2321 20.5218 20.0564 20.5942 19.85 20.5942C19.6436 20.5942 19.468 20.5218 19.3231 20.3769L16.5 17.5538ZM6.44625 7.50005L3.62312 4.67695C3.48467 4.5385 3.41384 4.36446 3.41062 4.15485C3.40742 3.94523 3.47826 3.76799 3.62312 3.62312C3.76799 3.47826 3.94363 3.40582 4.15005 3.40582C4.35645 3.40582 4.53208 3.47826 4.67695 3.62312L7.50005 6.44625V4.25005C7.50005 4.03755 7.57196 3.85942 7.71577 3.71567C7.85959 3.57192 8.03779 3.50005 8.25037 3.50005C8.46297 3.50005 8.64107 3.57192 8.78465 3.71567C8.92823 3.85942 9.00002 4.03755 9.00002 4.25005V8.09617C9.00002 8.35227 8.91341 8.56694 8.74017 8.74017C8.56694 8.91341 8.35227 9.00002 8.09617 9.00002H4.25005C4.03755 9.00002 3.85942 8.92811 3.71567 8.7843C3.57192 8.6405 3.50005 8.4623 3.50005 8.2497C3.50005 8.03711 3.57192 7.85903 3.71567 7.71545C3.85942 7.57185 4.03755 7.50005 4.25005 7.50005H6.44625ZM17.5538 7.50005H19.75C19.9625 7.50005 20.1406 7.57196 20.2844 7.71577C20.4281 7.85959 20.5 8.03779 20.5 8.25037C20.5 8.46297 20.4281 8.64107 20.2844 8.78465C20.1406 8.92823 19.9625 9.00002 19.75 9.00002H15.9039C15.6478 9.00002 15.4331 8.91341 15.2599 8.74017C15.0866 8.56694 15 8.35227 15 8.09617V4.25005C15 4.03755 15.0719 3.85942 15.2157 3.71567C15.3595 3.57192 15.5377 3.50005 15.7503 3.50005C15.9629 3.50005 16.141 3.57192 16.2846 3.71567C16.4282 3.85942 16.5 4.03755 16.5 4.25005V6.44625L19.3231 3.62312C19.4615 3.48467 19.6356 3.41384 19.8452 3.41062C20.0548 3.40742 20.2321 3.47826 20.3769 3.62312C20.5218 3.76799 20.5942 3.94363 20.5942 4.15005C20.5942 4.35645 20.5218 4.53208 20.3769 4.67695L17.5538 7.50005Z" fill="#1C1B1F"/>
</g>
</svg>
